<svg width="15" height="15" viewBox="0 0 15 15" fill="none" xmlns="http://www.w3.org/2000/svg">
<g clip-path="url(#clip0_28_1253)">
<path d="M15 7.5C15 3.35786 11.6421 0 7.5 0C3.35786 0 0 3.35786 0 7.5C0 11.6421 3.35786 15 7.5 15C11.6421 15 15 11.6421 15 7.5Z" fill="#4898FF"/>
<path d="M8.5 8.4V8L13 8.5V7L8.5 5.2V3.5C8.5 2.5 8 2 7.5 2C7 2 6.5 2.5 6.5 3.5V5.2L2 7V8.4L6.5 8V8.4V9.5V11.3L5 12V13L7.5 12.5L10 13V12L8.5 11.2V9.5V8.4Z" fill="white"/>
</g>
<defs>
<clipPath id="clip0_28_1253">
<rect width="15" height="15" fill="white"/>
</clipPath>
</defs>
</svg>
