<svg width="17" height="17" viewBox="0 0 17 17" fill="none" xmlns="http://www.w3.org/2000/svg">
<g filter="url(#filter0_d_41_24)">
<path d="M16 7.5C16 3.35786 12.6421 0 8.5 0C4.35786 0 1 3.35786 1 7.5C1 11.6421 4.35786 15 8.5 15C12.6421 15 16 11.6421 16 7.5Z" fill="white"/>
</g>
<path d="M15 7.5C15 3.91015 12.0899 1 8.5 1C4.91015 1 2 3.91015 2 7.5C2 11.0899 4.91015 14 8.5 14C12.0899 14 15 11.0899 15 7.5Z" fill="#4898FF"/>
<path d="M9.31818 8.23636V7.90909L13 8.31818V7.09091L9.31818 5.61818V4.22727C9.31818 3.40909 8.90909 3 8.5 3C8.09091 3 7.68182 3.40909 7.68182 4.22727V5.61818L4 7.09091V8.23636L7.68182 7.90909V8.23636V9.13636V10.6091L6.45455 11.1818V12L8.5 11.5909L10.5455 12V11.1818L9.31818 10.5273V9.13636V8.23636Z" fill="white"/>
<defs>
<filter id="filter0_d_41_24" x="0" y="0" width="17" height="17" filterUnits="userSpaceOnUse" color-interpolation-filters="sRGB">
<feFlood flood-opacity="0" result="BackgroundImageFix"/>
<feColorMatrix in="SourceAlpha" type="matrix" values="0 0 0 0 0 0 0 0 0 0 0 0 0 0 0 0 0 0 127 0" result="hardAlpha"/>
<feOffset dy="1"/>
<feGaussianBlur stdDeviation="0.5"/>
<feComposite in2="hardAlpha" operator="out"/>
<feColorMatrix type="matrix" values="0 0 0 0 0 0 0 0 0 0 0 0 0 0 0 0 0 0 0.25 0"/>
<feBlend mode="normal" in2="BackgroundImageFix" result="effect1_dropShadow_41_24"/>
<feBlend mode="normal" in="SourceGraphic" in2="effect1_dropShadow_41_24" result="shape"/>
</filter>
</defs>
</svg>
