<svg width="15" height="17" viewBox="0 0 15 17" fill="none" xmlns="http://www.w3.org/2000/svg">
<path d="M7.5 0C11.6421 0 15 3.35786 15 7.5C15 9.83341 13.9344 11.9179 12.2632 13.2934L9.86168 15.695C8.55071 17.006 6.42522 17.006 5.11425 15.695L2.57999 13.1607C0.999297 11.7857 0 9.75958 0 7.5C0 3.35786 3.35786 0 7.5 0Z" fill="#A2A2A2"/>
<path d="M14 7.5C14 3.91015 11.0899 1 7.5 1C3.91015 1 1 3.91015 1 7.5C1 11.0899 3.91015 14 7.5 14C11.0899 14 14 11.0899 14 7.5Z" fill="#597FA6"/>
<path d="M9.60778 4.84098L7.77222 3.10902C7.62094 2.9645 7.37478 2.96354 7.22226 3.10689L7.22 3.10902L5.39222 4.84098H4.38889C4.17414 4.84098 4 5.006 4 5.20948V9.6315C4 9.83499 4.17414 10 4.38889 10H10.6111C10.8259 10 11 9.83499 11 9.6315V5.20948C11 5.006 10.8259 4.84098 10.6111 4.84098H9.60778ZM7.5 3.89025L8.50333 4.84098H6.49667L7.5 3.89025ZM10.2222 9.263H4.77778V5.57798H10.2222V9.263ZM6.72222 6.68349C6.72222 6.88697 6.54808 7.05199 6.33333 7.05199C6.11859 7.05199 5.94444 6.88697 5.94444 6.68349C5.94444 6.48 6.11859 6.31499 6.33333 6.31499C6.54808 6.31499 6.72222 6.48 6.72222 6.68349ZM9.44444 8.52599H6.33333L6.91667 7.42049L7.30556 8.15749L8.27778 6.31499L9.44444 8.52599Z" fill="#292929"/>
</svg>
