<svg width="17" height="19" viewBox="0 0 17 19" fill="none" xmlns="http://www.w3.org/2000/svg">
<g filter="url(#filter0_d_28_1362)">
<path d="M8.5 0C12.6421 0 16 3.35786 16 7.5C16 9.83341 14.9344 11.9179 13.2632 13.2934L10.8617 15.695C9.55071 17.006 7.42522 17.006 6.11425 15.695L3.57999 13.1607C1.9993 11.7857 1 9.75958 1 7.5C1 3.35786 4.35786 0 8.5 0Z" fill="white"/>
</g>
<path d="M15 7.5C15 3.91015 12.0899 1 8.5 1C4.91015 1 2 3.91015 2 7.5C2 11.0899 4.91015 14 8.5 14C12.0899 14 15 11.0899 15 7.5Z" fill="#597FA6"/>
<path d="M10.6078 4.84098L8.77222 3.10902C8.62094 2.9645 8.37478 2.96354 8.22226 3.10689L8.22 3.10902L6.39222 4.84098H5.38889C5.17414 4.84098 5 5.006 5 5.20948V9.6315C5 9.83499 5.17414 10 5.38889 10H11.6111C11.8259 10 12 9.83499 12 9.6315V5.20948C12 5.006 11.8259 4.84098 11.6111 4.84098H10.6078ZM8.5 3.89025L9.50333 4.84098H7.49667L8.5 3.89025ZM11.2222 9.263H5.77778V5.57798H11.2222V9.263ZM7.72222 6.68349C7.72222 6.88697 7.54808 7.05199 7.33333 7.05199C7.11859 7.05199 6.94444 6.88697 6.94444 6.68349C6.94444 6.48 7.11859 6.31499 7.33333 6.31499C7.54808 6.31499 7.72222 6.48 7.72222 6.68349ZM10.4444 8.52599H7.33333L7.91667 7.42049L8.30556 8.15749L9.27778 6.31499L10.4444 8.52599Z" fill="white"/>
<defs>
<filter id="filter0_d_28_1362" x="0" y="0" width="17" height="18.6777" filterUnits="userSpaceOnUse" color-interpolation-filters="sRGB">
<feFlood flood-opacity="0" result="BackgroundImageFix"/>
<feColorMatrix in="SourceAlpha" type="matrix" values="0 0 0 0 0 0 0 0 0 0 0 0 0 0 0 0 0 0 127 0" result="hardAlpha"/>
<feOffset dy="1"/>
<feGaussianBlur stdDeviation="0.5"/>
<feComposite in2="hardAlpha" operator="out"/>
<feColorMatrix type="matrix" values="0 0 0 0 0 0 0 0 0 0 0 0 0 0 0 0 0 0 0.25 0"/>
<feBlend mode="normal" in2="BackgroundImageFix" result="effect1_dropShadow_28_1362"/>
<feBlend mode="normal" in="SourceGraphic" in2="effect1_dropShadow_28_1362" result="shape"/>
</filter>
</defs>
</svg>
