<svg width="15" height="17" viewBox="0 0 15 17" fill="none" xmlns="http://www.w3.org/2000/svg">
<path d="M7.5 0C11.6421 0 15 3.35786 15 7.5C15 9.83341 13.9344 11.9179 12.2632 13.2934L9.86168 15.695C8.55071 17.006 6.42522 17.006 5.11425 15.695L2.57999 13.1607C0.999297 11.7857 0 9.75958 0 7.5C0 3.35786 3.35786 0 7.5 0Z" fill="white"/>
<path d="M14 7.5C14 3.91015 11.0899 1 7.5 1C3.91015 1 1 3.91015 1 7.5C1 11.0899 3.91015 14 7.5 14C11.0899 14 14 11.0899 14 7.5Z" fill="#597FA6"/>
<path d="M6.76875 9V6.75H5.75625V6H8.45625V6.75H7.44375V9H6.76875ZM3 9V6.5C3 6.35833 3.0432 6.23967 3.1296 6.144C3.216 6.04833 3.3228 6.00033 3.45 6H4.8C4.9275 6 5.03445 6.048 5.12085 6.144C5.20725 6.24 5.2503 6.35867 5.25 6.5V9H4.575V8.25H3.675V9H3ZM3.675 7.5H4.575V6.75H3.675V7.5ZM9.075 9V6.5C9.075 6.35833 9.1182 6.23967 9.2046 6.144C9.291 6.04833 9.3978 6.00033 9.525 6H11.55C11.6775 6 11.7844 6.048 11.8708 6.144C11.9572 6.24 12.0003 6.35867 12 6.5V9H11.325V6.75H10.875V8.5H10.2V6.75H9.75V9H9.075Z" fill="white"/>
</svg>
