<svg width="17" height="19" viewBox="0 0 17 19" fill="none" xmlns="http://www.w3.org/2000/svg">
<g filter="url(#filter0_d_28_1357)">
<path d="M8.5 0C12.6421 0 16 3.35786 16 7.5C16 9.83341 14.9344 11.9179 13.2632 13.2934L10.8617 15.695C9.55071 17.006 7.42522 17.006 6.11425 15.695L3.57999 13.1607C1.9993 11.7857 1 9.75958 1 7.5C1 3.35786 4.35786 0 8.5 0Z" fill="white"/>
</g>
<path d="M15 7.5C15 3.91015 12.0899 1 8.5 1C4.91015 1 2 3.91015 2 7.5C2 11.0899 4.91015 14 8.5 14C12.0899 14 15 11.0899 15 7.5Z" fill="#597FA6"/>
<path d="M7.76875 9V6.75H6.75625V6H9.45625V6.75H8.44375V9H7.76875ZM4 9V6.5C4 6.35833 4.0432 6.23967 4.1296 6.144C4.216 6.04833 4.3228 6.00033 4.45 6H5.8C5.9275 6 6.03445 6.048 6.12085 6.144C6.20725 6.24 6.2503 6.35867 6.25 6.5V9H5.575V8.25H4.675V9H4ZM4.675 7.5H5.575V6.75H4.675V7.5ZM10.075 9V6.5C10.075 6.35833 10.1182 6.23967 10.2046 6.144C10.291 6.04833 10.3978 6.00033 10.525 6H12.55C12.6775 6 12.7844 6.048 12.8708 6.144C12.9572 6.24 13.0003 6.35867 13 6.5V9H12.325V6.75H11.875V8.5H11.2V6.75H10.75V9H10.075Z" fill="white"/>
<defs>
<filter id="filter0_d_28_1357" x="0" y="0" width="17" height="18.6777" filterUnits="userSpaceOnUse" color-interpolation-filters="sRGB">
<feFlood flood-opacity="0" result="BackgroundImageFix"/>
<feColorMatrix in="SourceAlpha" type="matrix" values="0 0 0 0 0 0 0 0 0 0 0 0 0 0 0 0 0 0 127 0" result="hardAlpha"/>
<feOffset dy="1"/>
<feGaussianBlur stdDeviation="0.5"/>
<feComposite in2="hardAlpha" operator="out"/>
<feColorMatrix type="matrix" values="0 0 0 0 0 0 0 0 0 0 0 0 0 0 0 0 0 0 0.25 0"/>
<feBlend mode="normal" in2="BackgroundImageFix" result="effect1_dropShadow_28_1357"/>
<feBlend mode="normal" in="SourceGraphic" in2="effect1_dropShadow_28_1357" result="shape"/>
</filter>
</defs>
</svg>
