<svg width="15" height="17" viewBox="0 0 15 17" fill="none" xmlns="http://www.w3.org/2000/svg">
<path d="M7.5 0C11.6421 0 15 3.35786 15 7.5C15 9.83341 13.9344 11.9179 12.2632 13.2934L9.86168 15.695C8.55071 17.006 6.42522 17.006 5.11425 15.695L2.57999 13.1607C0.999297 11.7857 0 9.75958 0 7.5C0 3.35786 3.35786 0 7.5 0Z" fill="#A2A2A2"/>
<path d="M14 7.5C14 3.91015 11.0899 1 7.5 1C3.91015 1 1 3.91015 1 7.5C1 11.0899 3.91015 14 7.5 14C11.0899 14 14 11.0899 14 7.5Z" fill="#597FA6"/>
<path d="M6.46154 4C6.078 4 5.94092 4.3535 5.76923 4.7L5.42308 5.4H4.03846C3.46315 5.4 3 5.8683 3 6.45V9.95C3 10.5317 3.46315 11 4.03846 11H10.9615C11.5368 11 12 10.5317 12 9.95V6.45C12 5.8683 11.5368 5.4 10.9615 5.4H9.57692L9.23077 4.7C9.05769 4.35 8.922 4 8.53846 4H6.46154ZM4.03846 6.1C4.13027 6.1 4.21831 6.13687 4.28323 6.20251C4.34815 6.26815 4.38462 6.35717 4.38462 6.45C4.38462 6.54283 4.34815 6.63185 4.28323 6.69749C4.21831 6.76312 4.13027 6.8 4.03846 6.8C3.94666 6.8 3.85861 6.76312 3.79369 6.69749C3.72878 6.63185 3.69231 6.54283 3.69231 6.45C3.69231 6.35717 3.72878 6.26815 3.79369 6.20251C3.85861 6.13687 3.94666 6.1 4.03846 6.1ZM7.5 6.1C8.05083 6.1 8.57911 6.32125 8.96861 6.71508C9.35811 7.1089 9.57692 7.64305 9.57692 8.2C9.57692 8.75695 9.35811 9.2911 8.96861 9.68492C8.57911 10.0788 8.05083 10.3 7.5 10.3C6.94917 10.3 6.42089 10.0788 6.03139 9.68492C5.6419 9.2911 5.42308 8.75695 5.42308 8.2C5.42308 7.64305 5.6419 7.1089 6.03139 6.71508C6.42089 6.32125 6.94917 6.1 7.5 6.1ZM7.5 7.15C7.22458 7.15 6.96045 7.26062 6.7657 7.45754C6.57095 7.65445 6.46154 7.92152 6.46154 8.2C6.46154 8.47848 6.57095 8.74555 6.7657 8.94246C6.96045 9.13938 7.22458 9.25 7.5 9.25C7.77542 9.25 8.03955 9.13938 8.2343 8.94246C8.42905 8.74555 8.53846 8.47848 8.53846 8.2C8.53846 7.92152 8.42905 7.65445 8.2343 7.45754C8.03955 7.26062 7.77542 7.15 7.5 7.15Z" fill="#292929"/>
</svg>
