<svg width="17" height="19" viewBox="0 0 17 19" fill="none" xmlns="http://www.w3.org/2000/svg">
<g filter="url(#filter0_d_28_1352)">
<path d="M8.5 0C12.6421 0 16 3.35786 16 7.5C16 9.83341 14.9344 11.9179 13.2632 13.2934L10.8617 15.695C9.55071 17.006 7.42522 17.006 6.11425 15.695L3.57999 13.1607C1.9993 11.7857 1 9.75958 1 7.5C1 3.35786 4.35786 0 8.5 0Z" fill="white"/>
</g>
<path d="M15 7.5C15 3.91015 12.0899 1 8.5 1C4.91015 1 2 3.91015 2 7.5C2 11.0899 4.91015 14 8.5 14C12.0899 14 15 11.0899 15 7.5Z" fill="#597FA6"/>
<path d="M7.46154 4C7.078 4 6.94092 4.3535 6.76923 4.7L6.42308 5.4H5.03846C4.46315 5.4 4 5.8683 4 6.45V9.95C4 10.5317 4.46315 11 5.03846 11H11.9615C12.5368 11 13 10.5317 13 9.95V6.45C13 5.8683 12.5368 5.4 11.9615 5.4H10.5769L10.2308 4.7C10.0577 4.35 9.922 4 9.53846 4H7.46154ZM5.03846 6.1C5.13027 6.1 5.21831 6.13687 5.28323 6.20251C5.34815 6.26815 5.38462 6.35717 5.38462 6.45C5.38462 6.54283 5.34815 6.63185 5.28323 6.69749C5.21831 6.76312 5.13027 6.8 5.03846 6.8C4.94666 6.8 4.85861 6.76312 4.79369 6.69749C4.72878 6.63185 4.69231 6.54283 4.69231 6.45C4.69231 6.35717 4.72878 6.26815 4.79369 6.20251C4.85861 6.13687 4.94666 6.1 5.03846 6.1ZM8.5 6.1C9.05083 6.1 9.57911 6.32125 9.96861 6.71508C10.3581 7.1089 10.5769 7.64305 10.5769 8.2C10.5769 8.75695 10.3581 9.2911 9.96861 9.68492C9.57911 10.0788 9.05083 10.3 8.5 10.3C7.94917 10.3 7.42089 10.0788 7.03139 9.68492C6.6419 9.2911 6.42308 8.75695 6.42308 8.2C6.42308 7.64305 6.6419 7.1089 7.03139 6.71508C7.42089 6.32125 7.94917 6.1 8.5 6.1ZM8.5 7.15C8.22458 7.15 7.96045 7.26062 7.7657 7.45754C7.57095 7.65445 7.46154 7.92152 7.46154 8.2C7.46154 8.47848 7.57095 8.74555 7.7657 8.94246C7.96045 9.13938 8.22458 9.25 8.5 9.25C8.77542 9.25 9.03955 9.13938 9.2343 8.94246C9.42905 8.74555 9.53846 8.47848 9.53846 8.2C9.53846 7.92152 9.42905 7.65445 9.2343 7.45754C9.03955 7.26062 8.77542 7.15 8.5 7.15Z" fill="white"/>
<defs>
<filter id="filter0_d_28_1352" x="0" y="0" width="17" height="18.6777" filterUnits="userSpaceOnUse" color-interpolation-filters="sRGB">
<feFlood flood-opacity="0" result="BackgroundImageFix"/>
<feColorMatrix in="SourceAlpha" type="matrix" values="0 0 0 0 0 0 0 0 0 0 0 0 0 0 0 0 0 0 127 0" result="hardAlpha"/>
<feOffset dy="1"/>
<feGaussianBlur stdDeviation="0.5"/>
<feComposite in2="hardAlpha" operator="out"/>
<feColorMatrix type="matrix" values="0 0 0 0 0 0 0 0 0 0 0 0 0 0 0 0 0 0 0.25 0"/>
<feBlend mode="normal" in2="BackgroundImageFix" result="effect1_dropShadow_28_1352"/>
<feBlend mode="normal" in="SourceGraphic" in2="effect1_dropShadow_28_1352" result="shape"/>
</filter>
</defs>
</svg>
