<svg width="17" height="19" viewBox="0 0 17 19" fill="none" xmlns="http://www.w3.org/2000/svg">
<g filter="url(#filter0_d_28_1347)">
<path d="M8.5 0C12.6421 0 16 3.35786 16 7.5C16 9.83341 14.9344 11.9179 13.2632 13.2934L10.8617 15.695C9.55071 17.006 7.42522 17.006 6.11425 15.695L3.57999 13.1607C1.9993 11.7857 1 9.75958 1 7.5C1 3.35786 4.35786 0 8.5 0Z" fill="white"/>
</g>
<path d="M15 7.5C15 3.91015 12.0899 1 8.5 1C4.91015 1 2 3.91015 2 7.5C2 11.0899 4.91015 14 8.5 14C12.0899 14 15 11.0899 15 7.5Z" fill="#D97200"/>
<path d="M5.78171 12C5.26738 12 5.06087 11.0552 5.01801 10.6789C4.97187 10.3135 5.01471 9.94211 5.1427 9.59796C5.19895 9.4342 5.2957 9.28829 5.42345 9.17458C5.5512 9.06087 5.70555 8.98327 5.87133 8.94941C6.32721 8.86934 6.65061 9.14958 7.06363 9.24566C7.14121 9.27125 7.22393 9.27573 7.3037 9.25869C7.38348 9.24164 7.45759 9.20365 7.51882 9.1484C7.58004 9.09316 7.62628 9.02255 7.65304 8.94348C7.67979 8.8644 7.68614 8.77955 7.67147 8.6972C7.50003 8.00861 6.28045 7.9966 5.78171 7.9966C5.78171 7.25197 6.57658 7.15589 7.14545 7.21193C7.48294 7.24543 7.81524 7.3207 8.13514 7.43612C8.32996 7.50418 8.55596 7.67633 8.77026 7.66032C9.09366 7.63229 9.1599 7.288 9.01963 7.03578C8.68064 6.44328 7.71823 6.39524 7.14545 6.39524C7.14545 5.59456 7.81953 5.44243 8.46634 5.56253C8.8003 5.63009 9.12576 5.73618 9.43654 5.8788C9.63526 5.96688 9.87294 6.13502 10.0911 6.05896C10.6522 5.88281 10.0678 5.26628 9.81839 5.11816C9.64337 5.01893 9.45769 4.941 9.2651 4.88596C9.0547 4.8219 8.79753 4.84593 8.98846 4.59371C9.287 4.32309 9.6574 4.15023 10.0522 4.09729C10.7886 3.92114 11.8056 3.88911 11.9848 4.84192C12.0445 5.34497 11.927 5.85337 11.6536 6.27514C10.9275 7.55076 10.0289 8.71401 8.98456 9.73007C8.43133 10.3128 7.83181 10.8471 7.19221 11.3274C6.80257 11.6157 6.28824 12 5.78171 12Z" fill="white"/>
<defs>
<filter id="filter0_d_28_1347" x="0" y="0" width="17" height="18.6777" filterUnits="userSpaceOnUse" color-interpolation-filters="sRGB">
<feFlood flood-opacity="0" result="BackgroundImageFix"/>
<feColorMatrix in="SourceAlpha" type="matrix" values="0 0 0 0 0 0 0 0 0 0 0 0 0 0 0 0 0 0 127 0" result="hardAlpha"/>
<feOffset dy="1"/>
<feGaussianBlur stdDeviation="0.5"/>
<feComposite in2="hardAlpha" operator="out"/>
<feColorMatrix type="matrix" values="0 0 0 0 0 0 0 0 0 0 0 0 0 0 0 0 0 0 0.25 0"/>
<feBlend mode="normal" in2="BackgroundImageFix" result="effect1_dropShadow_28_1347"/>
<feBlend mode="normal" in="SourceGraphic" in2="effect1_dropShadow_28_1347" result="shape"/>
</filter>
</defs>
</svg>
