<svg width="15" height="17" viewBox="0 0 15 17" fill="none" xmlns="http://www.w3.org/2000/svg">
<path d="M7.5 0C11.6421 0 15 3.35786 15 7.5C15 9.83341 13.9344 11.9179 12.2632 13.2934L9.86168 15.695C8.55071 17.006 6.42522 17.006 5.11425 15.695L2.57999 13.1607C0.999297 11.7857 0 9.75958 0 7.5C0 3.35786 3.35786 0 7.5 0Z" fill="#A2A2A2"/>
<path d="M14 7.5C14 3.91015 11.0899 1 7.5 1C3.91015 1 1 3.91015 1 7.5C1 11.0899 3.91015 14 7.5 14C11.0899 14 14 11.0899 14 7.5Z" fill="#D97200"/>
<path d="M4.78171 12C4.26738 12 4.06087 11.0552 4.01801 10.6789C3.97187 10.3135 4.01471 9.94211 4.1427 9.59796C4.19895 9.4342 4.2957 9.28829 4.42345 9.17458C4.5512 9.06087 4.70555 8.98327 4.87133 8.94941C5.32721 8.86934 5.65061 9.14958 6.06363 9.24566C6.14121 9.27125 6.22393 9.27573 6.3037 9.25869C6.38348 9.24164 6.45759 9.20365 6.51882 9.1484C6.58004 9.09316 6.62628 9.02255 6.65304 8.94348C6.67979 8.8644 6.68614 8.77955 6.67147 8.6972C6.50003 8.00861 5.28045 7.9966 4.78171 7.9966C4.78171 7.25197 5.57658 7.15589 6.14545 7.21193C6.48294 7.24543 6.81524 7.3207 7.13514 7.43612C7.32996 7.50418 7.55596 7.67633 7.77026 7.66032C8.09366 7.63229 8.1599 7.288 8.01963 7.03578C7.68064 6.44328 6.71823 6.39524 6.14545 6.39524C6.14545 5.59456 6.81953 5.44243 7.46634 5.56253C7.8003 5.63009 8.12576 5.73618 8.43654 5.8788C8.63526 5.96688 8.87294 6.13502 9.09114 6.05896C9.65223 5.88281 9.06776 5.26628 8.81839 5.11816C8.64337 5.01893 8.45769 4.941 8.2651 4.88596C8.0547 4.8219 7.79753 4.84593 7.98846 4.59371C8.287 4.32309 8.6574 4.15023 9.05218 4.09729C9.7886 3.92114 10.8056 3.88911 10.9848 4.84192C11.0445 5.34497 10.927 5.85337 10.6536 6.27514C9.92754 7.55076 9.02889 8.71401 7.98456 9.73007C7.43133 10.3128 6.83181 10.8471 6.19221 11.3274C5.80257 11.6157 5.28824 12 4.78171 12Z" fill="#292929"/>
</svg>
