<svg width="17" height="19" viewBox="0 0 17 19" fill="none" xmlns="http://www.w3.org/2000/svg">
<g filter="url(#filter0_d_28_1332)">
<path d="M8.5 0C12.6421 0 16 3.35786 16 7.5C16 9.83341 14.9344 11.9179 13.2632 13.2934L10.8617 15.695C9.55071 17.006 7.42522 17.006 6.11425 15.695L3.57999 13.1607C1.9993 11.7857 1 9.75958 1 7.5C1 3.35786 4.35786 0 8.5 0Z" fill="white"/>
</g>
<path d="M15 7.5C15 3.91015 12.0899 1 8.5 1C4.91015 1 2 3.91015 2 7.5C2 11.0899 4.91015 14 8.5 14C12.0899 14 15 11.0899 15 7.5Z" fill="#D97200"/>
<path d="M8.49127 4.05859C8.09944 4.05859 4.67669 4.05859 5.05904 4.44095L8.11787 7.88212V9.79389C8.11787 10.1762 6.2061 10.1762 6.2061 10.9409H10.7943C10.7943 10.1762 8.88257 10.1762 8.88257 9.79389V7.88212L11.9414 4.44095C12.3237 4.05859 8.88303 4.05859 8.49127 4.05859ZM6.2061 4.8233H10.7943L10.0296 5.58801H6.97081L6.2061 4.8233Z" fill="white"/>
<defs>
<filter id="filter0_d_28_1332" x="0" y="0" width="17" height="18.6777" filterUnits="userSpaceOnUse" color-interpolation-filters="sRGB">
<feFlood flood-opacity="0" result="BackgroundImageFix"/>
<feColorMatrix in="SourceAlpha" type="matrix" values="0 0 0 0 0 0 0 0 0 0 0 0 0 0 0 0 0 0 127 0" result="hardAlpha"/>
<feOffset dy="1"/>
<feGaussianBlur stdDeviation="0.5"/>
<feComposite in2="hardAlpha" operator="out"/>
<feColorMatrix type="matrix" values="0 0 0 0 0 0 0 0 0 0 0 0 0 0 0 0 0 0 0.25 0"/>
<feBlend mode="normal" in2="BackgroundImageFix" result="effect1_dropShadow_28_1332"/>
<feBlend mode="normal" in="SourceGraphic" in2="effect1_dropShadow_28_1332" result="shape"/>
</filter>
</defs>
</svg>
