<svg width="15" height="17" viewBox="0 0 15 17" fill="none" xmlns="http://www.w3.org/2000/svg">
<path d="M7.5 0C11.6421 0 15 3.35786 15 7.5C15 9.83341 13.9344 11.9179 12.2632 13.2934L9.86168 15.695C8.55071 17.006 6.42522 17.006 5.11425 15.695L2.57999 13.1607C0.999297 11.7857 0 9.75958 0 7.5C0 3.35786 3.35786 0 7.5 0Z" fill="white"/>
<path d="M14 7.5C14 3.91015 11.0899 1 7.5 1C3.91015 1 1 3.91015 1 7.5C1 11.0899 3.91015 14 7.5 14C11.0899 14 14 11.0899 14 7.5Z" fill="#597FA6"/>
<path d="M7.92835 5.72054H6.83821C6.82743 5.72068 6.81678 5.71817 6.80721 5.71323C6.79763 5.70828 6.78942 5.70105 6.7833 5.69218C6.77718 5.6833 6.77334 5.67306 6.77212 5.66235C6.7709 5.65164 6.77234 5.6408 6.77631 5.63077L6.99854 5.08044C7.00307 5.06786 7.01154 5.05708 7.0227 5.04971C7.03386 5.04235 7.0471 5.0388 7.06045 5.03958L7.69869 5.04515C7.71176 5.04491 7.72462 5.04854 7.73564 5.05559C7.74665 5.06264 7.75534 5.0728 7.76059 5.08477L7.99026 5.62954C7.99449 5.63962 7.99613 5.6506 7.99504 5.66148C7.99395 5.67236 7.99016 5.6828 7.98401 5.69184C7.97786 5.70088 7.96954 5.70824 7.95982 5.71325C7.9501 5.71827 7.93929 5.72077 7.92835 5.72054ZM7.37988 4.28125L7.20654 4.71458H7.56064L7.37988 4.28125ZM6.30892 7.22173C5.98888 7.29415 4.51864 7.77887 4.42578 10.6469C4.42578 10.7379 4.4784 10.8159 4.5465 10.8159L10.2188 10.8438C10.2857 10.8438 10.3426 10.7744 10.3426 10.6853C10.3464 10.0873 10.2393 7.96644 8.55607 7.25949C8.49343 7.23361 8.42636 7.22016 8.35859 7.21987L6.41664 7.21058C6.38043 7.2103 6.34431 7.21404 6.30892 7.22173ZM8.43102 6.70668L8.17226 6.08763C8.1671 6.07554 8.15846 6.06525 8.14743 6.05809C8.13641 6.05092 8.1235 6.0472 8.11035 6.04739H6.64631C6.63305 6.04708 6.62002 6.05082 6.60895 6.05812C6.59789 6.06543 6.58932 6.07594 6.5844 6.08825L6.33369 6.7073C6.32955 6.71731 6.32799 6.7282 6.32914 6.73898C6.33029 6.74975 6.33411 6.76007 6.34027 6.76899C6.34642 6.77791 6.3547 6.78515 6.36436 6.79005C6.37403 6.79495 6.38476 6.79736 6.39559 6.79706H8.37097C8.38202 6.79799 8.39312 6.79594 8.4031 6.79111C8.41309 6.78629 8.42159 6.77887 8.42773 6.76963C8.43387 6.76039 8.43741 6.74968 8.43799 6.7386C8.43857 6.72753 8.43616 6.7165 8.43102 6.70668Z" fill="white"/>
</svg>
