<svg width="17" height="19" viewBox="0 0 17 19" fill="none" xmlns="http://www.w3.org/2000/svg">
<g filter="url(#filter0_d_28_1327)">
<path d="M8.5 0C12.6421 0 16 3.35786 16 7.5C16 9.83341 14.9344 11.9179 13.2632 13.2934L10.8617 15.695C9.55071 17.006 7.42522 17.006 6.11425 15.695L3.57999 13.1607C1.9993 11.7857 1 9.75958 1 7.5C1 3.35786 4.35786 0 8.5 0Z" fill="white"/>
</g>
<path d="M15 7.5C15 3.91015 12.0899 1 8.5 1C4.91015 1 2 3.91015 2 7.5C2 11.0899 4.91015 14 8.5 14C12.0899 14 15 11.0899 15 7.5Z" fill="#597FA6"/>
<path d="M8.92835 5.72054H7.83821C7.82743 5.72068 7.81678 5.71817 7.80721 5.71323C7.79763 5.70828 7.78942 5.70105 7.7833 5.69218C7.77718 5.6833 7.77334 5.67306 7.77212 5.66235C7.7709 5.65164 7.77234 5.6408 7.77631 5.63077L7.99854 5.08044C8.00307 5.06786 8.01154 5.05708 8.0227 5.04971C8.03386 5.04235 8.0471 5.0388 8.06045 5.03958L8.69869 5.04515C8.71176 5.04491 8.72462 5.04854 8.73564 5.05559C8.74665 5.06264 8.75534 5.0728 8.76059 5.08477L8.99026 5.62954C8.99449 5.63962 8.99613 5.6506 8.99504 5.66148C8.99395 5.67236 8.99016 5.6828 8.98401 5.69184C8.97786 5.70088 8.96954 5.70824 8.95982 5.71325C8.9501 5.71827 8.93929 5.72077 8.92835 5.72054ZM8.37988 4.28125L8.20654 4.71458H8.56064L8.37988 4.28125ZM7.30892 7.22173C6.98888 7.29415 5.51864 7.77887 5.42578 10.6469C5.42578 10.7379 5.4784 10.8159 5.5465 10.8159L11.2188 10.8438C11.2857 10.8438 11.3426 10.7744 11.3426 10.6853C11.3464 10.0873 11.2393 7.96644 9.55607 7.25949C9.49343 7.23361 9.42636 7.22016 9.35859 7.21987L7.41664 7.21058C7.38043 7.2103 7.34431 7.21404 7.30892 7.22173ZM9.43102 6.70668L9.17226 6.08763C9.1671 6.07554 9.15846 6.06525 9.14743 6.05809C9.13641 6.05092 9.1235 6.0472 9.11035 6.04739H7.64631C7.63305 6.04708 7.62002 6.05082 7.60895 6.05812C7.59789 6.06543 7.58932 6.07594 7.5844 6.08825L7.33369 6.7073C7.32955 6.71731 7.32799 6.7282 7.32914 6.73898C7.33029 6.74975 7.33411 6.76007 7.34027 6.76899C7.34642 6.77791 7.3547 6.78515 7.36436 6.79005C7.37403 6.79495 7.38476 6.79736 7.39559 6.79706H9.37097C9.38202 6.79799 9.39312 6.79594 9.4031 6.79111C9.41309 6.78629 9.42159 6.77887 9.42773 6.76963C9.43387 6.76039 9.43741 6.74968 9.43799 6.7386C9.43857 6.72753 9.43616 6.7165 9.43102 6.70668Z" fill="white"/>
<defs>
<filter id="filter0_d_28_1327" x="0" y="0" width="17" height="18.6777" filterUnits="userSpaceOnUse" color-interpolation-filters="sRGB">
<feFlood flood-opacity="0" result="BackgroundImageFix"/>
<feColorMatrix in="SourceAlpha" type="matrix" values="0 0 0 0 0 0 0 0 0 0 0 0 0 0 0 0 0 0 127 0" result="hardAlpha"/>
<feOffset dy="1"/>
<feGaussianBlur stdDeviation="0.5"/>
<feComposite in2="hardAlpha" operator="out"/>
<feColorMatrix type="matrix" values="0 0 0 0 0 0 0 0 0 0 0 0 0 0 0 0 0 0 0.25 0"/>
<feBlend mode="normal" in2="BackgroundImageFix" result="effect1_dropShadow_28_1327"/>
<feBlend mode="normal" in="SourceGraphic" in2="effect1_dropShadow_28_1327" result="shape"/>
</filter>
</defs>
</svg>
