<svg width="15" height="17" viewBox="0 0 15 17" fill="none" xmlns="http://www.w3.org/2000/svg">
<path d="M7.5 0C11.6421 0 15 3.35786 15 7.5C15 9.83341 13.9344 11.9179 12.2632 13.2934L9.86168 15.695C8.55071 17.006 6.42522 17.006 5.11425 15.695L2.57999 13.1607C0.999297 11.7857 0 9.75958 0 7.5C0 3.35786 3.35786 0 7.5 0Z" fill="white"/>
<path d="M14 7.5C14 3.91015 11.0899 1 7.5 1C3.91015 1 1 3.91015 1 7.5C1 11.0899 3.91015 14 7.5 14C11.0899 14 14 11.0899 14 7.5Z" fill="#4898FF"/>
<path d="M6.11111 4C5.55556 4 5 4.33804 5 5.27273V7.81818V10.0455C5 10.0455 5 10.3636 5.27778 10.3636L5.55556 10.3736V10.6818C5.55556 10.6818 5.55556 11 5.83333 11H6.11111C6.11111 11 6.38889 11 6.38889 10.6818V10.3736L8.61111 10.3636V10.6818C8.61111 10.6818 8.61111 11 8.88889 11H9.16667C9.44444 11 9.44444 10.6818 9.44444 10.6818V10.3736L9.72222 10.3636C9.72222 10.3636 10 10.3636 10 10.0455V7.81818V5.27273C10 4.31818 9.44444 4 8.88889 4H6.11111ZM6.52778 4.63636H8.47222C8.54917 4.63636 8.61111 4.70732 8.61111 4.79545C8.61111 4.88359 8.54917 4.95455 8.47222 4.95455H6.52778C6.45083 4.95455 6.38889 4.88359 6.38889 4.79545C6.38889 4.70732 6.45083 4.63636 6.52778 4.63636ZM6.11111 5.27273H8.88889C9.44444 5.27273 9.44444 5.90909 9.44444 5.90909V7.18182C9.44444 7.18182 9.44444 7.81818 8.88889 7.81818H6.11111C5.55556 7.81818 5.55556 7.18182 5.55556 7.18182V5.90909C5.55556 5.90909 5.55556 5.27273 6.11111 5.27273ZM5.97222 8.77273C6.20233 8.77273 6.38889 8.98642 6.38889 9.25C6.38889 9.51358 6.20233 9.72727 5.97222 9.72727C5.74211 9.72727 5.55556 9.51358 5.55556 9.25C5.55556 8.98642 5.74211 8.77273 5.97222 8.77273ZM9.02778 8.77273C9.25789 8.77273 9.44444 8.98642 9.44444 9.25C9.44444 9.51358 9.25789 9.72727 9.02778 9.72727C8.79767 9.72727 8.61111 9.51358 8.61111 9.25C8.61111 8.98642 8.79767 8.77273 9.02778 8.77273Z" fill="white"/>
</svg>
