<svg width="17" height="19" viewBox="0 0 17 19" fill="none" xmlns="http://www.w3.org/2000/svg">
<g filter="url(#filter0_d_28_1322)">
<path d="M8.5 0C12.6421 0 16 3.35786 16 7.5C16 9.83341 14.9344 11.9179 13.2632 13.2934L10.8617 15.695C9.55071 17.006 7.42522 17.006 6.11425 15.695L3.57999 13.1607C1.9993 11.7857 1 9.75958 1 7.5C1 3.35786 4.35786 0 8.5 0Z" fill="white"/>
</g>
<path d="M15 7.5C15 3.91015 12.0899 1 8.5 1C4.91015 1 2 3.91015 2 7.5C2 11.0899 4.91015 14 8.5 14C12.0899 14 15 11.0899 15 7.5Z" fill="#4898FF"/>
<path d="M7.11111 4C6.55556 4 6 4.33804 6 5.27273V7.81818V10.0455C6 10.0455 6 10.3636 6.27778 10.3636L6.55556 10.3736V10.6818C6.55556 10.6818 6.55556 11 6.83333 11H7.11111C7.11111 11 7.38889 11 7.38889 10.6818V10.3736L9.61111 10.3636V10.6818C9.61111 10.6818 9.61111 11 9.88889 11H10.1667C10.4444 11 10.4444 10.6818 10.4444 10.6818V10.3736L10.7222 10.3636C10.7222 10.3636 11 10.3636 11 10.0455V7.81818V5.27273C11 4.31818 10.4444 4 9.88889 4H7.11111ZM7.52778 4.63636H9.47222C9.54917 4.63636 9.61111 4.70732 9.61111 4.79545C9.61111 4.88359 9.54917 4.95455 9.47222 4.95455H7.52778C7.45083 4.95455 7.38889 4.88359 7.38889 4.79545C7.38889 4.70732 7.45083 4.63636 7.52778 4.63636ZM7.11111 5.27273H9.88889C10.4444 5.27273 10.4444 5.90909 10.4444 5.90909V7.18182C10.4444 7.18182 10.4444 7.81818 9.88889 7.81818H7.11111C6.55556 7.81818 6.55556 7.18182 6.55556 7.18182V5.90909C6.55556 5.90909 6.55556 5.27273 7.11111 5.27273ZM6.97222 8.77273C7.20233 8.77273 7.38889 8.98642 7.38889 9.25C7.38889 9.51358 7.20233 9.72727 6.97222 9.72727C6.74211 9.72727 6.55556 9.51358 6.55556 9.25C6.55556 8.98642 6.74211 8.77273 6.97222 8.77273ZM10.0278 8.77273C10.2579 8.77273 10.4444 8.98642 10.4444 9.25C10.4444 9.51358 10.2579 9.72727 10.0278 9.72727C9.79767 9.72727 9.61111 9.51358 9.61111 9.25C9.61111 8.98642 9.79767 8.77273 10.0278 8.77273Z" fill="white"/>
<defs>
<filter id="filter0_d_28_1322" x="0" y="0" width="17" height="18.6777" filterUnits="userSpaceOnUse" color-interpolation-filters="sRGB">
<feFlood flood-opacity="0" result="BackgroundImageFix"/>
<feColorMatrix in="SourceAlpha" type="matrix" values="0 0 0 0 0 0 0 0 0 0 0 0 0 0 0 0 0 0 127 0" result="hardAlpha"/>
<feOffset dy="1"/>
<feGaussianBlur stdDeviation="0.5"/>
<feComposite in2="hardAlpha" operator="out"/>
<feColorMatrix type="matrix" values="0 0 0 0 0 0 0 0 0 0 0 0 0 0 0 0 0 0 0.25 0"/>
<feBlend mode="normal" in2="BackgroundImageFix" result="effect1_dropShadow_28_1322"/>
<feBlend mode="normal" in="SourceGraphic" in2="effect1_dropShadow_28_1322" result="shape"/>
</filter>
</defs>
</svg>
