<svg width="15" height="17" viewBox="0 0 15 17" fill="none" xmlns="http://www.w3.org/2000/svg">
<path d="M7.5 0C11.6421 0 15 3.35786 15 7.5C15 9.83341 13.9344 11.9179 12.2632 13.2934L9.86168 15.695C8.55071 17.006 6.42522 17.006 5.11425 15.695L2.57999 13.1607C0.999297 11.7857 0 9.75958 0 7.5C0 3.35786 3.35786 0 7.5 0Z" fill="white"/>
<path d="M14 7.5C14 3.91015 11.0899 1 7.5 1C3.91015 1 1 3.91015 1 7.5C1 11.0899 3.91015 14 7.5 14C11.0899 14 14 11.0899 14 7.5Z" fill="#D97200"/>
<path d="M10.3 4H5.4C5.015 4 4.7 4.3 4.7 4.66667V7.33333C4.7 8.07 5.3265 8.66667 6.1 8.66667H8.2C8.9735 8.66667 9.6 8.07 9.6 7.33333V6.33333H10.3C10.685 6.33333 11 6.03333 11 5.66667V4.66667C11 4.3 10.685 4 10.3 4ZM10.3 5.66667H9.6V4.66667H10.3V5.66667ZM4.35 10H9.95C10.1425 10 10.3 9.85 10.3 9.66667C10.3 9.48333 10.1425 9.33333 9.95 9.33333H4.35C4.1575 9.33333 4 9.48333 4 9.66667C4 9.85 4.1575 10 4.35 10Z" fill="white"/>
</svg>
