<svg width="17" height="19" viewBox="0 0 17 19" fill="none" xmlns="http://www.w3.org/2000/svg">
<g filter="url(#filter0_d_28_1317)">
<path d="M8.5 0C12.6421 0 16 3.35786 16 7.5C16 9.83341 14.9344 11.9179 13.2632 13.2934L10.8617 15.695C9.55071 17.006 7.42522 17.006 6.11425 15.695L3.57999 13.1607C1.9993 11.7857 1 9.75958 1 7.5C1 3.35786 4.35786 0 8.5 0Z" fill="white"/>
</g>
<path d="M15 7.5C15 3.91015 12.0899 1 8.5 1C4.91015 1 2 3.91015 2 7.5C2 11.0899 4.91015 14 8.5 14C12.0899 14 15 11.0899 15 7.5Z" fill="#D97200"/>
<path d="M11.3 4H6.4C6.015 4 5.7 4.3 5.7 4.66667V7.33333C5.7 8.07 6.3265 8.66667 7.1 8.66667H9.2C9.9735 8.66667 10.6 8.07 10.6 7.33333V6.33333H11.3C11.685 6.33333 12 6.03333 12 5.66667V4.66667C12 4.3 11.685 4 11.3 4ZM11.3 5.66667H10.6V4.66667H11.3V5.66667ZM5.35 10H10.95C11.1425 10 11.3 9.85 11.3 9.66667C11.3 9.48333 11.1425 9.33333 10.95 9.33333H5.35C5.1575 9.33333 5 9.48333 5 9.66667C5 9.85 5.1575 10 5.35 10Z" fill="white"/>
<defs>
<filter id="filter0_d_28_1317" x="0" y="0" width="17" height="18.6777" filterUnits="userSpaceOnUse" color-interpolation-filters="sRGB">
<feFlood flood-opacity="0" result="BackgroundImageFix"/>
<feColorMatrix in="SourceAlpha" type="matrix" values="0 0 0 0 0 0 0 0 0 0 0 0 0 0 0 0 0 0 127 0" result="hardAlpha"/>
<feOffset dy="1"/>
<feGaussianBlur stdDeviation="0.5"/>
<feComposite in2="hardAlpha" operator="out"/>
<feColorMatrix type="matrix" values="0 0 0 0 0 0 0 0 0 0 0 0 0 0 0 0 0 0 0.25 0"/>
<feBlend mode="normal" in2="BackgroundImageFix" result="effect1_dropShadow_28_1317"/>
<feBlend mode="normal" in="SourceGraphic" in2="effect1_dropShadow_28_1317" result="shape"/>
</filter>
</defs>
</svg>
