<svg width="17" height="19" viewBox="0 0 17 19" fill="none" xmlns="http://www.w3.org/2000/svg">
<g filter="url(#filter0_d_28_1307)">
<path d="M8.5 0C12.6421 0 16 3.35786 16 7.5C16 9.83341 14.9344 11.9179 13.2632 13.2934L10.8617 15.695C9.55071 17.006 7.42522 17.006 6.11425 15.695L3.57999 13.1607C1.9993 11.7857 1 9.75958 1 7.5C1 3.35786 4.35786 0 8.5 0Z" fill="white"/>
</g>
<path d="M15 7.5C15 3.91015 12.0899 1 8.5 1C4.91015 1 2 3.91015 2 7.5C2 11.0899 4.91015 14 8.5 14C12.0899 14 15 11.0899 15 7.5Z" fill="#4898FF"/>
<path d="M11.1911 4.37875C11.1133 4.1575 10.8956 4 10.6389 4H6.36111C6.10444 4 5.89056 4.1575 5.80889 4.37875L5 6.625V9.4375C5 9.74875 5.26056 10 5.58333 10C5.90611 10 6.16667 9.74875 6.16667 9.4375V9.25H10.8333V9.4375C10.8333 9.745 11.0939 10 11.4167 10C11.7356 10 12 9.74875 12 9.4375V6.625L11.1911 4.37875ZM6.75 8.125C6.42722 8.125 6.16667 7.87375 6.16667 7.5625C6.16667 7.25125 6.42722 7 6.75 7C7.07278 7 7.33333 7.25125 7.33333 7.5625C7.33333 7.87375 7.07278 8.125 6.75 8.125ZM10.25 8.125C9.92722 8.125 9.66667 7.87375 9.66667 7.5625C9.66667 7.25125 9.92722 7 10.25 7C10.5728 7 10.8333 7.25125 10.8333 7.5625C10.8333 7.87375 10.5728 8.125 10.25 8.125ZM6.09278 5.875L6.49722 4.75H10.4989L10.9033 5.875H6.09278Z" fill="white"/>
<defs>
<filter id="filter0_d_28_1307" x="0" y="0" width="17" height="18.6777" filterUnits="userSpaceOnUse" color-interpolation-filters="sRGB">
<feFlood flood-opacity="0" result="BackgroundImageFix"/>
<feColorMatrix in="SourceAlpha" type="matrix" values="0 0 0 0 0 0 0 0 0 0 0 0 0 0 0 0 0 0 127 0" result="hardAlpha"/>
<feOffset dy="1"/>
<feGaussianBlur stdDeviation="0.5"/>
<feComposite in2="hardAlpha" operator="out"/>
<feColorMatrix type="matrix" values="0 0 0 0 0 0 0 0 0 0 0 0 0 0 0 0 0 0 0.25 0"/>
<feBlend mode="normal" in2="BackgroundImageFix" result="effect1_dropShadow_28_1307"/>
<feBlend mode="normal" in="SourceGraphic" in2="effect1_dropShadow_28_1307" result="shape"/>
</filter>
</defs>
</svg>
