<svg width="15" height="17" viewBox="0 0 15 17" fill="none" xmlns="http://www.w3.org/2000/svg">
<path d="M7.5 0C11.6421 0 15 3.35786 15 7.5C15 9.83341 13.9344 11.9179 12.2632 13.2934L9.86168 15.695C8.55071 17.006 6.42522 17.006 5.11425 15.695L2.57999 13.1607C0.999297 11.7857 0 9.75958 0 7.5C0 3.35786 3.35786 0 7.5 0Z" fill="#A2A2A2"/>
<path d="M14 7.5C14 3.91015 11.0899 1 7.5 1C3.91015 1 1 3.91015 1 7.5C1 11.0899 3.91015 14 7.5 14C11.0899 14 14 11.0899 14 7.5Z" fill="#4898FF"/>
<path d="M10.1911 4.37875C10.1133 4.1575 9.89556 4 9.63889 4H5.36111C5.10444 4 4.89056 4.1575 4.80889 4.37875L4 6.625V9.4375C4 9.74875 4.26056 10 4.58333 10C4.90611 10 5.16667 9.74875 5.16667 9.4375V9.25H9.83333V9.4375C9.83333 9.745 10.0939 10 10.4167 10C10.7356 10 11 9.74875 11 9.4375V6.625L10.1911 4.37875ZM5.75 8.125C5.42722 8.125 5.16667 7.87375 5.16667 7.5625C5.16667 7.25125 5.42722 7 5.75 7C6.07278 7 6.33333 7.25125 6.33333 7.5625C6.33333 7.87375 6.07278 8.125 5.75 8.125ZM9.25 8.125C8.92722 8.125 8.66667 7.87375 8.66667 7.5625C8.66667 7.25125 8.92722 7 9.25 7C9.57278 7 9.83333 7.25125 9.83333 7.5625C9.83333 7.87375 9.57278 8.125 9.25 8.125ZM5.09278 5.875L5.49722 4.75H9.49889L9.90333 5.875H5.09278Z" fill="#292929"/>
</svg>
