<svg width="15" height="17" viewBox="0 0 15 17" fill="none" xmlns="http://www.w3.org/2000/svg">
<path d="M7.5 0C11.6421 0 15 3.35786 15 7.5C15 9.83341 13.9344 11.9179 12.2632 13.2934L9.86168 15.695C8.55071 17.006 6.42522 17.006 5.11425 15.695L2.57999 13.1607C0.999297 11.7857 0 9.75958 0 7.5C0 3.35786 3.35786 0 7.5 0Z" fill="#A2A2A2"/>
<path d="M14 7.5C14 3.91015 11.0899 1 7.5 1C3.91015 1 1 3.91015 1 7.5C1 11.0899 3.91015 14 7.5 14C11.0899 14 14 11.0899 14 7.5Z" fill="#597FA6"/>
<path d="M9.92602 3.3329V4.57034C9.93468 4.88881 9.70312 5.15461 9.40882 5.16398C9.40866 5.16398 9.40897 5.16398 9.40882 5.16398H5.61467C5.32029 5.16866 5.07815 4.91415 5.07382 4.59551C5.07374 4.58991 5.07374 4.5843 5.07382 4.5787V3.3329C5.07382 3.17363 5.19319 3.04445 5.34038 3.04445C5.48757 3.04445 5.60694 3.17363 5.60694 3.3329V3.90982H6.31778V3.49176C6.31778 3.26091 6.49077 3.07371 6.7041 3.07371C6.91743 3.07371 7.09042 3.26091 7.09042 3.49176V3.90982H7.86307V3.49176C7.86307 3.26091 8.03606 3.07371 8.24939 3.07371C8.46271 3.07371 8.63571 3.26091 8.63571 3.49176V3.90982H9.40835V3.3329C9.38355 3.17822 9.47936 3.03107 9.6223 3.00423C9.76524 2.97739 9.90122 3.08107 9.92602 3.23575C9.9312 3.26794 9.9312 3.3008 9.92602 3.3329ZM11 10.7074C11 10.869 10.8789 11 10.7296 11H4.27027C4.12092 10.9999 3.99992 10.8688 4 10.7072C4.00015 10.5457 4.12107 10.4148 4.27027 10.4147H4.5407C4.83075 10.4241 5.07289 10.1773 5.08155 9.8634C5.08186 9.85211 5.08186 9.84074 5.08155 9.82945C5.08155 9.82945 5.6224 7.15391 5.6224 6.577C5.61807 6.26304 5.84979 6.00477 6.13999 6.00008C6.14517 6 6.15035 6 6.15552 6.00008H8.84432C9.13437 5.99072 9.37652 6.23754 9.38517 6.55141C9.38548 6.5627 9.38548 6.57407 9.38517 6.58536C9.38517 7.17063 9.92602 9.83781 9.92602 9.83781C9.91737 10.1517 10.1455 10.4137 10.4355 10.4231C10.4459 10.4234 10.4564 10.4234 10.4669 10.4231H10.7296C10.8789 10.4231 11 10.5541 11 10.7157V10.7074ZM8.24939 8.92646C8.24939 8.46467 7.90347 8.09035 7.47674 8.09035C7.05001 8.09035 6.7041 8.46467 6.7041 8.92646V10.5987H8.24939V8.92646Z" fill="#292929"/>
</svg>
