<svg width="17" height="19" viewBox="0 0 17 19" fill="none" xmlns="http://www.w3.org/2000/svg">
<g filter="url(#filter0_d_28_1302)">
<path d="M8.5 0C12.6421 0 16 3.35786 16 7.5C16 9.83341 14.9344 11.9179 13.2632 13.2934L10.8617 15.695C9.55071 17.006 7.42522 17.006 6.11425 15.695L3.57999 13.1607C1.9993 11.7857 1 9.75958 1 7.5C1 3.35786 4.35786 0 8.5 0Z" fill="white"/>
</g>
<path d="M15 7.5C15 3.91015 12.0899 1 8.5 1C4.91015 1 2 3.91015 2 7.5C2 11.0899 4.91015 14 8.5 14C12.0899 14 15 11.0899 15 7.5Z" fill="#597FA6"/>
<path d="M10.926 3.3329V4.57034C10.9347 4.88881 10.7031 5.15461 10.4088 5.16398C10.4087 5.16398 10.409 5.16398 10.4088 5.16398H6.61467C6.32029 5.16866 6.07815 4.91415 6.07382 4.59551C6.07374 4.58991 6.07374 4.5843 6.07382 4.5787V3.3329C6.07382 3.17363 6.19319 3.04445 6.34038 3.04445C6.48757 3.04445 6.60694 3.17363 6.60694 3.3329V3.90982H7.31778V3.49176C7.31778 3.26091 7.49077 3.07371 7.7041 3.07371C7.91743 3.07371 8.09042 3.26091 8.09042 3.49176V3.90982H8.86307V3.49176C8.86307 3.26091 9.03606 3.07371 9.24939 3.07371C9.46271 3.07371 9.63571 3.26091 9.63571 3.49176V3.90982H10.4084V3.3329C10.3836 3.17822 10.4794 3.03107 10.6223 3.00423C10.7652 2.97739 10.9012 3.08107 10.926 3.23575C10.9312 3.26794 10.9312 3.3008 10.926 3.3329ZM12 10.7074C12 10.869 11.8789 11 11.7296 11H5.27027C5.12092 10.9999 4.99992 10.8688 5 10.7072C5.00015 10.5457 5.12107 10.4148 5.27027 10.4147H5.5407C5.83075 10.4241 6.07289 10.1773 6.08155 9.8634C6.08186 9.85211 6.08186 9.84074 6.08155 9.82945C6.08155 9.82945 6.6224 7.15391 6.6224 6.577C6.61807 6.26304 6.84979 6.00477 7.13999 6.00008C7.14517 6 7.15035 6 7.15552 6.00008H9.84432C10.1344 5.99072 10.3765 6.23754 10.3852 6.55141C10.3855 6.5627 10.3855 6.57407 10.3852 6.58536C10.3852 7.17063 10.926 9.83781 10.926 9.83781C10.9174 10.1517 11.1455 10.4137 11.4355 10.4231C11.4459 10.4234 11.4564 10.4234 11.4669 10.4231H11.7296C11.8789 10.4231 12 10.5541 12 10.7157V10.7074ZM9.24939 8.92646C9.24939 8.46467 8.90347 8.09035 8.47674 8.09035C8.05001 8.09035 7.7041 8.46467 7.7041 8.92646V10.5987H9.24939V8.92646Z" fill="white"/>
<defs>
<filter id="filter0_d_28_1302" x="0" y="0" width="17" height="18.6777" filterUnits="userSpaceOnUse" color-interpolation-filters="sRGB">
<feFlood flood-opacity="0" result="BackgroundImageFix"/>
<feColorMatrix in="SourceAlpha" type="matrix" values="0 0 0 0 0 0 0 0 0 0 0 0 0 0 0 0 0 0 127 0" result="hardAlpha"/>
<feOffset dy="1"/>
<feGaussianBlur stdDeviation="0.5"/>
<feComposite in2="hardAlpha" operator="out"/>
<feColorMatrix type="matrix" values="0 0 0 0 0 0 0 0 0 0 0 0 0 0 0 0 0 0 0.25 0"/>
<feBlend mode="normal" in2="BackgroundImageFix" result="effect1_dropShadow_28_1302"/>
<feBlend mode="normal" in="SourceGraphic" in2="effect1_dropShadow_28_1302" result="shape"/>
</filter>
</defs>
</svg>
