<svg width="17" height="19" viewBox="0 0 17 19" fill="none" xmlns="http://www.w3.org/2000/svg">
<g filter="url(#filter0_d_28_1297)">
<path d="M8.5 0C12.6421 0 16 3.35786 16 7.5C16 9.83341 14.9344 11.9179 13.2632 13.2934L10.8617 15.695C9.55071 17.006 7.42522 17.006 6.11425 15.695L3.57999 13.1607C1.9993 11.7857 1 9.75958 1 7.5C1 3.35786 4.35786 0 8.5 0Z" fill="white"/>
</g>
<path d="M15 7.5C15 3.91015 12.0899 1 8.5 1C4.91015 1 2 3.91015 2 7.5C2 11.0899 4.91015 14 8.5 14C12.0899 14 15 11.0899 15 7.5Z" fill="#299091"/>
<path d="M7.72222 3H9.27778C10.565 3 11.2222 4.076 11.2222 5.4V9.664C10.3978 9.252 9.69389 9 8.5 9C7.30611 9 6.60222 9.252 5.77778 9.664V5.4C5.77778 4.076 6.435 3 7.72222 3ZM6.94444 5.4V6H10.0556V5.4H6.94444ZM7.33333 7V7.6H9.66667V7H7.33333ZM5 11V10.724C6.03444 10.048 8.97833 8.536 12 10.7V11H5Z" fill="white"/>
<defs>
<filter id="filter0_d_28_1297" x="0" y="0" width="17" height="18.6777" filterUnits="userSpaceOnUse" color-interpolation-filters="sRGB">
<feFlood flood-opacity="0" result="BackgroundImageFix"/>
<feColorMatrix in="SourceAlpha" type="matrix" values="0 0 0 0 0 0 0 0 0 0 0 0 0 0 0 0 0 0 127 0" result="hardAlpha"/>
<feOffset dy="1"/>
<feGaussianBlur stdDeviation="0.5"/>
<feComposite in2="hardAlpha" operator="out"/>
<feColorMatrix type="matrix" values="0 0 0 0 0 0 0 0 0 0 0 0 0 0 0 0 0 0 0.25 0"/>
<feBlend mode="normal" in2="BackgroundImageFix" result="effect1_dropShadow_28_1297"/>
<feBlend mode="normal" in="SourceGraphic" in2="effect1_dropShadow_28_1297" result="shape"/>
</filter>
</defs>
</svg>
