<svg width="17" height="19" viewBox="0 0 17 19" fill="none" xmlns="http://www.w3.org/2000/svg">
<g filter="url(#filter0_d_28_1292)">
<path d="M8.5 0C12.6421 0 16 3.35786 16 7.5C16 9.83341 14.9344 11.9179 13.2632 13.2934L10.8617 15.695C9.55071 17.006 7.42522 17.006 6.11425 15.695L3.57999 13.1607C1.9993 11.7857 1 9.75958 1 7.5C1 3.35786 4.35786 0 8.5 0Z" fill="white"/>
</g>
<path d="M15 7.5C15 3.91015 12.0899 1 8.5 1C4.91015 1 2 3.91015 2 7.5C2 11.0899 4.91015 14 8.5 14C12.0899 14 15 11.0899 15 7.5Z" fill="#597FA6"/>
<path d="M11.9409 7.49977V9.02918C11.9409 9.24032 11.7697 9.41154 11.5586 9.41154C11.3475 9.41154 11.1762 9.24032 11.1762 9.02918C11.1324 8.83632 10.9799 8.68682 10.7862 8.64683H10.4115V9.8933C10.4115 10.0495 10.2848 10.1762 10.1286 10.1762H5.34153C5.18531 10.1762 5.05859 10.0495 5.05859 9.8933V7.40036C5.05859 7.24413 5.18531 7.11742 5.34153 7.11742H10.1286C10.2848 7.11742 10.4115 7.24413 10.4115 7.40036V7.88212H10.7862C10.9799 7.84213 11.1324 7.69263 11.1762 7.49977C11.1762 7.28864 11.3475 7.11742 11.5586 7.11742C11.7697 7.11742 11.9409 7.28864 11.9409 7.49977ZM6.20565 4.8233C5.57217 4.8233 5.05859 5.33688 5.05859 5.97036C5.05859 6.60384 5.57217 7.11742 6.20565 7.11742C6.83913 7.11742 7.35271 6.60384 7.35271 5.97036C7.35271 5.33688 6.83913 4.8233 6.20565 4.8233ZM6.20565 6.35271C5.99452 6.35271 5.8233 6.18149 5.8233 5.97036C5.8233 5.75922 5.99452 5.58801 6.20565 5.58801C6.41679 5.58801 6.58801 5.75922 6.58801 5.97036C6.58801 6.18149 6.41679 6.35271 6.20565 6.35271ZM8.88212 4.05859C8.03743 4.05859 7.35271 4.74331 7.35271 5.58801C7.35271 6.4327 8.03743 7.11742 8.88212 7.11742C9.72682 7.11742 10.4115 6.4327 10.4115 5.58801C10.4115 4.74331 9.72682 4.05859 8.88212 4.05859ZM8.88212 6.35271C8.45978 6.35271 8.11742 6.01035 8.11742 5.58801C8.11742 5.16566 8.45978 4.8233 8.88212 4.8233C9.30447 4.8233 9.64683 5.16566 9.64683 5.58801C9.64683 6.01035 9.30447 6.35271 8.88212 6.35271Z" fill="white"/>
<defs>
<filter id="filter0_d_28_1292" x="0" y="0" width="17" height="18.6777" filterUnits="userSpaceOnUse" color-interpolation-filters="sRGB">
<feFlood flood-opacity="0" result="BackgroundImageFix"/>
<feColorMatrix in="SourceAlpha" type="matrix" values="0 0 0 0 0 0 0 0 0 0 0 0 0 0 0 0 0 0 127 0" result="hardAlpha"/>
<feOffset dy="1"/>
<feGaussianBlur stdDeviation="0.5"/>
<feComposite in2="hardAlpha" operator="out"/>
<feColorMatrix type="matrix" values="0 0 0 0 0 0 0 0 0 0 0 0 0 0 0 0 0 0 0.25 0"/>
<feBlend mode="normal" in2="BackgroundImageFix" result="effect1_dropShadow_28_1292"/>
<feBlend mode="normal" in="SourceGraphic" in2="effect1_dropShadow_28_1292" result="shape"/>
</filter>
</defs>
</svg>
