<svg width="15" height="17" viewBox="0 0 15 17" fill="none" xmlns="http://www.w3.org/2000/svg">
<path d="M7.5 0C11.6421 0 15 3.35786 15 7.5C15 9.83341 13.9344 11.9179 12.2632 13.2934L9.86168 15.695C8.55071 17.006 6.42522 17.006 5.11425 15.695L2.57999 13.1607C0.999297 11.7857 0 9.75958 0 7.5C0 3.35786 3.35786 0 7.5 0Z" fill="white"/>
<path d="M14 7.5C14 3.91015 11.0899 1 7.5 1C3.91015 1 1 3.91015 1 7.5C1 11.0899 3.91015 14 7.5 14C11.0899 14 14 11.0899 14 7.5Z" fill="#597FA6"/>
<path d="M10.9409 7.49977V9.02918C10.9409 9.24032 10.7697 9.41154 10.5586 9.41154C10.3475 9.41154 10.1762 9.24032 10.1762 9.02918C10.1324 8.83632 9.97994 8.68682 9.78624 8.64683H9.41154V9.8933C9.41154 10.0495 9.28482 10.1762 9.12859 10.1762H4.34153C4.18531 10.1762 4.05859 10.0495 4.05859 9.8933V7.40036C4.05859 7.24413 4.18531 7.11742 4.34153 7.11742H9.12859C9.28482 7.11742 9.41154 7.24413 9.41154 7.40036V7.88212H9.78624C9.97994 7.84213 10.1324 7.69263 10.1762 7.49977C10.1762 7.28864 10.3475 7.11742 10.5586 7.11742C10.7697 7.11742 10.9409 7.28864 10.9409 7.49977ZM5.20565 4.8233C4.57217 4.8233 4.05859 5.33688 4.05859 5.97036C4.05859 6.60384 4.57217 7.11742 5.20565 7.11742C5.83913 7.11742 6.35271 6.60384 6.35271 5.97036C6.35271 5.33688 5.83913 4.8233 5.20565 4.8233ZM5.20565 6.35271C4.99452 6.35271 4.8233 6.18149 4.8233 5.97036C4.8233 5.75922 4.99452 5.58801 5.20565 5.58801C5.41679 5.58801 5.58801 5.75922 5.58801 5.97036C5.58801 6.18149 5.41679 6.35271 5.20565 6.35271ZM7.88212 4.05859C7.03743 4.05859 6.35271 4.74331 6.35271 5.58801C6.35271 6.4327 7.03743 7.11742 7.88212 7.11742C8.72682 7.11742 9.41154 6.4327 9.41154 5.58801C9.41154 4.74331 8.72682 4.05859 7.88212 4.05859ZM7.88212 6.35271C7.45978 6.35271 7.11742 6.01035 7.11742 5.58801C7.11742 5.16566 7.45978 4.8233 7.88212 4.8233C8.30447 4.8233 8.64683 5.16566 8.64683 5.58801C8.64683 6.01035 8.30447 6.35271 7.88212 6.35271Z" fill="white"/>
</svg>
