<svg width="17" height="19" viewBox="0 0 17 19" fill="none" xmlns="http://www.w3.org/2000/svg">
<g filter="url(#filter0_d_28_1287)">
<path d="M8.5 0C12.6421 0 16 3.35786 16 7.5C16 9.83341 14.9344 11.9179 13.2632 13.2934L10.8617 15.695C9.55071 17.006 7.42522 17.006 6.11425 15.695L3.57999 13.1607C1.9993 11.7857 1 9.75958 1 7.5C1 3.35786 4.35786 0 8.5 0Z" fill="white"/>
</g>
<path d="M15 7.5C15 3.91015 12.0899 1 8.5 1C4.91015 1 2 3.91015 2 7.5C2 11.0899 4.91015 14 8.5 14C12.0899 14 15 11.0899 15 7.5Z" fill="#597FA6"/>
<path d="M11.6348 6.35271H10.7859L10.5642 5.02977C10.4749 4.61706 10.1618 4.28915 9.75358 4.18095C9.5543 4.10975 9.34554 4.06853 9.13417 4.05859H7.86476C7.65669 4.06433 7.4506 4.10042 7.253 4.16565C6.83768 4.27386 6.52018 4.60911 6.43476 5.02977L6.213 6.35271H5.31829C5.16206 6.35692 5.03887 6.48692 5.04307 6.64315C5.04384 6.67182 5.04896 6.70027 5.05829 6.72742L5.98359 10.3215C6.08713 10.6813 6.41228 10.9322 6.78653 10.9409H10.2124C10.5895 10.9354 10.9186 10.6839 11.023 10.3215L11.9406 6.72742C11.9928 6.58013 11.9157 6.4184 11.7684 6.36625C11.7256 6.35103 11.6797 6.34644 11.6348 6.35271ZM6.79417 6.35271L7.00064 5.12154C7.04729 4.91598 7.21339 4.75899 7.42123 4.72389C7.5624 4.67869 7.70899 4.65292 7.85711 4.64742H9.13417C9.2823 4.65292 9.42889 4.67869 9.57006 4.72389C9.7779 4.75899 9.944 4.91598 9.99064 5.12154L10.2048 6.35271H6.79417Z" fill="white"/>
<defs>
<filter id="filter0_d_28_1287" x="0" y="0" width="17" height="18.6777" filterUnits="userSpaceOnUse" color-interpolation-filters="sRGB">
<feFlood flood-opacity="0" result="BackgroundImageFix"/>
<feColorMatrix in="SourceAlpha" type="matrix" values="0 0 0 0 0 0 0 0 0 0 0 0 0 0 0 0 0 0 127 0" result="hardAlpha"/>
<feOffset dy="1"/>
<feGaussianBlur stdDeviation="0.5"/>
<feComposite in2="hardAlpha" operator="out"/>
<feColorMatrix type="matrix" values="0 0 0 0 0 0 0 0 0 0 0 0 0 0 0 0 0 0 0.25 0"/>
<feBlend mode="normal" in2="BackgroundImageFix" result="effect1_dropShadow_28_1287"/>
<feBlend mode="normal" in="SourceGraphic" in2="effect1_dropShadow_28_1287" result="shape"/>
</filter>
</defs>
</svg>
