<svg width="15" height="17" viewBox="0 0 15 17" fill="none" xmlns="http://www.w3.org/2000/svg">
<path d="M7.5 0C11.6421 0 15 3.35786 15 7.5C15 9.83341 13.9344 11.9179 12.2632 13.2934L9.86168 15.695C8.55071 17.006 6.42522 17.006 5.11425 15.695L2.57999 13.1607C0.999297 11.7857 0 9.75958 0 7.5C0 3.35786 3.35786 0 7.5 0Z" fill="white"/>
<path d="M14 7.5C14 3.91015 11.0899 1 7.5 1C3.91015 1 1 3.91015 1 7.5C1 11.0899 3.91015 14 7.5 14C11.0899 14 14 11.0899 14 7.5Z" fill="#875C1B"/>
<path d="M4.25158 7.53933V8.82777C4.25158 9.16249 4.42377 9.47428 4.69927 9.63476L6.85161 10.8865C7.10989 11.0378 7.41983 11.0378 7.67811 10.8865L9.83044 9.63476C10.1059 9.47428 10.2781 9.16249 10.2781 8.82777V7.53933L7.67811 9.05244C7.41983 9.20375 7.10989 9.20375 6.85161 9.05244L4.25158 7.53933ZM6.85161 3.11004L3.22277 5.21923C2.92574 5.39347 2.92574 5.85198 3.22277 6.02622L6.85161 8.13541C7.10989 8.28672 7.41983 8.28672 7.67811 8.13541L11.1391 6.12251V8.83235C11.1391 9.08454 11.3328 9.29087 11.5695 9.29087C11.8063 9.29087 12 9.08454 12 8.83235V5.89325C12 5.7236 11.9139 5.57229 11.7762 5.48976L7.67811 3.11004C7.41983 2.96332 7.10989 2.96332 6.85161 3.11004Z" fill="white"/>
</svg>
