<svg width="15" height="17" viewBox="0 0 15 17" fill="none" xmlns="http://www.w3.org/2000/svg">
<path d="M7.5 0C11.6421 0 15 3.35786 15 7.5C15 9.83341 13.9344 11.9179 12.2632 13.2934L9.86168 15.695C8.55071 17.006 6.42522 17.006 5.11425 15.695L2.57999 13.1607C0.999297 11.7857 0 9.75958 0 7.5C0 3.35786 3.35786 0 7.5 0Z" fill="white"/>
<path d="M14 7.5C14 3.91015 11.0899 1 7.5 1C3.91015 1 1 3.91015 1 7.5C1 11.0899 3.91015 14 7.5 14C11.0899 14 14 11.0899 14 7.5Z" fill="#BA272A"/>
<path d="M7.48854 8.06356C7.09982 8.11369 6.75778 8.33931 6.5651 8.67267C6.27809 9.40969 6.47775 10.5 6.05347 10.5C5.62919 10.5 5.75398 9.58025 5.62919 8.67267C5.49591 8.27961 5.33756 7.89514 5.15499 7.52146C5.02396 6.66261 4.69327 5.18857 5.73526 5.01802C6.77724 4.84747 6.78348 5.94386 7.50102 5.94386C8.21855 5.94386 8.23103 4.84747 9.26678 5.01802C10.3025 5.18857 9.97807 6.66261 9.84705 7.52146C9.66448 7.89514 9.50612 8.27961 9.37285 8.67267C9.24806 9.58025 9.37285 10.5 8.94857 10.5C8.52429 10.5 8.72395 9.40969 8.43693 8.67267C8.24426 8.33931 7.90221 8.11369 7.5135 8.06356H7.48854Z" fill="white"/>
</svg>
