<svg width="17" height="19" viewBox="0 0 17 19" fill="none" xmlns="http://www.w3.org/2000/svg">
<g filter="url(#filter0_d_28_1277)">
<path d="M8.5 0C12.6421 0 16 3.35786 16 7.5C16 9.83341 14.9344 11.9179 13.2632 13.2934L10.8617 15.695C9.55071 17.006 7.42522 17.006 6.11425 15.695L3.57999 13.1607C1.9993 11.7857 1 9.75958 1 7.5C1 3.35786 4.35786 0 8.5 0Z" fill="white"/>
</g>
<path d="M15 7.5C15 3.91015 12.0899 1 8.5 1C4.91015 1 2 3.91015 2 7.5C2 11.0899 4.91015 14 8.5 14C12.0899 14 15 11.0899 15 7.5Z" fill="#BA272A"/>
<path d="M8.48854 8.06356C8.09982 8.11369 7.75778 8.33931 7.5651 8.67267C7.27809 9.40969 7.47775 10.5 7.05347 10.5C6.62919 10.5 6.75398 9.58025 6.62919 8.67267C6.49591 8.27961 6.33756 7.89514 6.15499 7.52146C6.02396 6.66261 5.69327 5.18857 6.73526 5.01802C7.77724 4.84747 7.78348 5.94386 8.50102 5.94386C9.21855 5.94386 9.23103 4.84747 10.2668 5.01802C11.3025 5.18857 10.9781 6.66261 10.847 7.52146C10.6645 7.89514 10.5061 8.27961 10.3728 8.67267C10.2481 9.58025 10.3728 10.5 9.94857 10.5C9.52429 10.5 9.72395 9.40969 9.43693 8.67267C9.24426 8.33931 8.90221 8.11369 8.5135 8.06356H8.48854Z" fill="white"/>
<defs>
<filter id="filter0_d_28_1277" x="0" y="0" width="17" height="18.6777" filterUnits="userSpaceOnUse" color-interpolation-filters="sRGB">
<feFlood flood-opacity="0" result="BackgroundImageFix"/>
<feColorMatrix in="SourceAlpha" type="matrix" values="0 0 0 0 0 0 0 0 0 0 0 0 0 0 0 0 0 0 127 0" result="hardAlpha"/>
<feOffset dy="1"/>
<feGaussianBlur stdDeviation="0.5"/>
<feComposite in2="hardAlpha" operator="out"/>
<feColorMatrix type="matrix" values="0 0 0 0 0 0 0 0 0 0 0 0 0 0 0 0 0 0 0.25 0"/>
<feBlend mode="normal" in2="BackgroundImageFix" result="effect1_dropShadow_28_1277"/>
<feBlend mode="normal" in="SourceGraphic" in2="effect1_dropShadow_28_1277" result="shape"/>
</filter>
</defs>
</svg>
