<svg width="15" height="17" viewBox="0 0 15 17" fill="none" xmlns="http://www.w3.org/2000/svg">
<path d="M7.5 0C11.6421 0 15 3.35786 15 7.5C15 9.83341 13.9344 11.9179 12.2632 13.2934L9.86168 15.695C8.55071 17.006 6.42522 17.006 5.11425 15.695L2.57999 13.1607C0.999297 11.7857 0 9.75958 0 7.5C0 3.35786 3.35786 0 7.5 0Z" fill="white"/>
<path d="M14 7.5C14 3.91015 11.0899 1 7.5 1C3.91015 1 1 3.91015 1 7.5C1 11.0899 3.91015 14 7.5 14C11.0899 14 14 11.0899 14 7.5Z" fill="#299091"/>
<path d="M7.49931 4.82376C6.81215 4.88234 6.1639 5.16742 5.65637 5.63435C5.61171 5.68497 5.58716 5.75035 5.58755 5.81788V8.3567C5.57906 8.50001 5.68833 8.62312 5.83172 8.63169C5.90222 8.63582 5.9715 8.61112 6.02343 8.56317C6.447 8.23718 6.96486 8.05739 7.49931 8.05082C8.34813 8.05082 8.53166 8.64729 9.41108 8.64729C9.93635 8.59598 10.4291 8.36978 10.8105 8.00494C10.8947 7.95271 10.9444 7.85926 10.9405 7.76023V5.1067C10.9641 4.96079 10.865 4.82338 10.719 4.79975C10.6642 4.7908 10.608 4.79921 10.5581 4.82376C10.2282 5.09362 9.8322 5.2705 9.41108 5.33611C8.53166 5.33611 8.37872 4.82376 7.49931 4.82376ZM4.44049 4.44141C4.86283 4.44141 5.20519 4.78377 5.20519 5.20611C5.20519 5.62846 4.86283 5.97082 4.44049 5.97082C4.01814 5.97082 3.67578 5.62846 3.67578 5.20611C3.67578 4.78377 4.01814 4.44141 4.44049 4.44141ZM4.82284 6.73552V11.3238C4.82284 11.5349 4.65162 11.7061 4.44049 11.7061C4.22935 11.7061 4.05813 11.5349 4.05813 11.3238V6.73552C4.05813 6.52439 4.22935 6.35317 4.44049 6.35317C4.65162 6.35317 4.82284 6.52439 4.82284 6.73552Z" fill="white"/>
</svg>
