<svg width="17" height="19" viewBox="0 0 17 19" fill="none" xmlns="http://www.w3.org/2000/svg">
<g filter="url(#filter0_d_28_1267)">
<path d="M8.5 0C12.6421 0 16 3.35786 16 7.5C16 9.83341 14.9344 11.9179 13.2632 13.2934L10.8617 15.695C9.55071 17.006 7.42522 17.006 6.11425 15.695L3.57999 13.1607C1.9993 11.7857 1 9.75958 1 7.5C1 3.35786 4.35786 0 8.5 0Z" fill="white"/>
</g>
<path d="M15 7.5C15 3.91015 12.0899 1 8.5 1C4.91015 1 2 3.91015 2 7.5C2 11.0899 4.91015 14 8.5 14C12.0899 14 15 11.0899 15 7.5Z" fill="#299091"/>
<path d="M8.49931 4.82376C7.81215 4.88234 7.1639 5.16742 6.65637 5.63435C6.61171 5.68497 6.58716 5.75035 6.58755 5.81788V8.3567C6.57906 8.50001 6.68833 8.62312 6.83172 8.63169C6.90222 8.63582 6.9715 8.61112 7.02343 8.56317C7.447 8.23718 7.96486 8.05739 8.49931 8.05082C9.34813 8.05082 9.53166 8.64729 10.4111 8.64729C10.9364 8.59598 11.4291 8.36978 11.8105 8.00494C11.8947 7.95271 11.9444 7.85926 11.9405 7.76023V5.1067C11.9641 4.96079 11.865 4.82338 11.719 4.79975C11.6642 4.7908 11.608 4.79921 11.5581 4.82376C11.2282 5.09362 10.8322 5.2705 10.4111 5.33611C9.53166 5.33611 9.37872 4.82376 8.49931 4.82376ZM5.44049 4.44141C5.86283 4.44141 6.20519 4.78377 6.20519 5.20611C6.20519 5.62846 5.86283 5.97082 5.44049 5.97082C5.01814 5.97082 4.67578 5.62846 4.67578 5.20611C4.67578 4.78377 5.01814 4.44141 5.44049 4.44141ZM5.82284 6.73552V11.3238C5.82284 11.5349 5.65162 11.7061 5.44049 11.7061C5.22935 11.7061 5.05813 11.5349 5.05813 11.3238V6.73552C5.05813 6.52439 5.22935 6.35317 5.44049 6.35317C5.65162 6.35317 5.82284 6.52439 5.82284 6.73552Z" fill="white"/>
<defs>
<filter id="filter0_d_28_1267" x="0" y="0" width="17" height="18.6777" filterUnits="userSpaceOnUse" color-interpolation-filters="sRGB">
<feFlood flood-opacity="0" result="BackgroundImageFix"/>
<feColorMatrix in="SourceAlpha" type="matrix" values="0 0 0 0 0 0 0 0 0 0 0 0 0 0 0 0 0 0 127 0" result="hardAlpha"/>
<feOffset dy="1"/>
<feGaussianBlur stdDeviation="0.5"/>
<feComposite in2="hardAlpha" operator="out"/>
<feColorMatrix type="matrix" values="0 0 0 0 0 0 0 0 0 0 0 0 0 0 0 0 0 0 0.25 0"/>
<feBlend mode="normal" in2="BackgroundImageFix" result="effect1_dropShadow_28_1267"/>
<feBlend mode="normal" in="SourceGraphic" in2="effect1_dropShadow_28_1267" result="shape"/>
</filter>
</defs>
</svg>
