<svg width="15" height="17" viewBox="0 0 15 17" fill="none" xmlns="http://www.w3.org/2000/svg">
<path d="M7.5 0C11.6421 0 15 3.35786 15 7.5C15 9.83341 13.9344 11.9179 12.2632 13.2934L9.86168 15.695C8.55071 17.006 6.42522 17.006 5.11425 15.695L2.57999 13.1607C0.999297 11.7857 0 9.75958 0 7.5C0 3.35786 3.35786 0 7.5 0Z" fill="white"/>
<path d="M14 7.5C14 3.91015 11.0899 1 7.5 1C3.91015 1 1 3.91015 1 7.5C1 11.0899 3.91015 14 7.5 14C11.0899 14 14 11.0899 14 7.5Z" fill="#D97200"/>
<path d="M5.01532 3.29395L4.63297 5.97042C4.5789 6.34895 5.58182 7.04108 5.58885 7.49983V11.7057H6.35356V7.49983C6.35356 7.041 7.3635 6.34895 7.30944 5.97042L6.92709 3.29395H6.54473L6.73591 5.39689L6.16238 5.77924V3.29395H5.78003V5.77924L5.2065 5.39689L5.39767 3.29395H5.01532ZM10.1771 3.29395C9.03003 3.29395 8.65257 4.61245 8.64768 5.58806V7.88218H9.41238V11.7057H10.1771V3.29395Z" fill="white"/>
</svg>
