<svg width="17" height="19" viewBox="0 0 17 19" fill="none" xmlns="http://www.w3.org/2000/svg">
<g filter="url(#filter0_d_28_1262)">
<path d="M8.5 0C12.6421 0 16 3.35786 16 7.5C16 9.83341 14.9344 11.9179 13.2632 13.2934L10.8617 15.695C9.55071 17.006 7.42522 17.006 6.11425 15.695L3.57999 13.1607C1.9993 11.7857 1 9.75958 1 7.5C1 3.35786 4.35786 0 8.5 0Z" fill="white"/>
</g>
<path d="M15 7.5C15 3.91015 12.0899 1 8.5 1C4.91015 1 2 3.91015 2 7.5C2 11.0899 4.91015 14 8.5 14C12.0899 14 15 11.0899 15 7.5Z" fill="#D97200"/>
<path d="M6.01532 3.29395L5.63297 5.97042C5.5789 6.34895 6.58182 7.04108 6.58885 7.49983V11.7057H7.35356V7.49983C7.35356 7.041 8.3635 6.34895 8.30944 5.97042L7.92709 3.29395H7.54473L7.73591 5.39689L7.16238 5.77924V3.29395H6.78003V5.77924L6.2065 5.39689L6.39767 3.29395H6.01532ZM11.1771 3.29395C10.03 3.29395 9.65257 4.61245 9.64768 5.58806V7.88218H10.4124V11.7057H11.1771V3.29395Z" fill="white"/>
<defs>
<filter id="filter0_d_28_1262" x="0" y="0" width="17" height="18.6777" filterUnits="userSpaceOnUse" color-interpolation-filters="sRGB">
<feFlood flood-opacity="0" result="BackgroundImageFix"/>
<feColorMatrix in="SourceAlpha" type="matrix" values="0 0 0 0 0 0 0 0 0 0 0 0 0 0 0 0 0 0 127 0" result="hardAlpha"/>
<feOffset dy="1"/>
<feGaussianBlur stdDeviation="0.5"/>
<feComposite in2="hardAlpha" operator="out"/>
<feColorMatrix type="matrix" values="0 0 0 0 0 0 0 0 0 0 0 0 0 0 0 0 0 0 0.25 0"/>
<feBlend mode="normal" in2="BackgroundImageFix" result="effect1_dropShadow_28_1262"/>
<feBlend mode="normal" in="SourceGraphic" in2="effect1_dropShadow_28_1262" result="shape"/>
</filter>
</defs>
</svg>
