<svg width="17" height="19" viewBox="0 0 17 19" fill="none" xmlns="http://www.w3.org/2000/svg">
<g filter="url(#filter0_d_28_1257)">
<path d="M8.5 0C12.6421 0 16 3.35786 16 7.5C16 9.83341 14.9344 11.9179 13.2632 13.2934L10.8617 15.695C9.55071 17.006 7.42522 17.006 6.11425 15.695L3.57999 13.1607C1.9993 11.7857 1 9.75958 1 7.5C1 3.35786 4.35786 0 8.5 0Z" fill="white"/>
</g>
<path d="M15 7.5C15 3.91015 12.0899 1 8.5 1C4.91015 1 2 3.91015 2 7.5C2 11.0899 4.91015 14 8.5 14C12.0899 14 15 11.0899 15 7.5Z" fill="#4898FF"/>
<path d="M11.9663 5.33294H11.5329V4.03294C11.5329 3.79366 11.3389 3.59961 11.0996 3.59961C10.8603 3.59961 10.6663 3.79366 10.6663 4.03294V5.33294C10.6663 5.8116 11.0543 6.19961 11.5329 6.19961V9.88294C11.5329 10.0026 11.436 10.0996 11.3163 10.0996C11.1966 10.0996 11.0996 10.0026 11.0996 9.88294V8.36628C11.0996 7.64833 10.5176 7.06628 9.79961 7.06628V4.46628C9.79961 3.98762 9.4116 3.59961 8.93294 3.59961H5.46628C4.98762 3.59961 4.59961 3.98762 4.59961 4.46628V10.5329C4.59961 11.0116 4.98762 11.3996 5.46628 11.3996H8.93294C9.4116 11.3996 9.79961 11.0116 9.79961 10.5329V7.93294C10.0389 7.93294 10.2329 8.12699 10.2329 8.36628V9.88294C10.2329 10.4813 10.7179 10.9663 11.3163 10.9663C11.9146 10.9663 12.3996 10.4813 12.3996 9.88294V5.76628C12.3996 5.52699 12.2056 5.33294 11.9663 5.33294ZM8.93294 6.63294C8.9378 6.86746 8.75164 7.06142 8.51712 7.06628C8.51703 7.06628 8.5172 7.06628 8.51712 7.06628H5.91694C5.67289 7.07113 5.47113 6.87717 5.46628 6.63312C5.46628 6.63303 5.46628 6.6332 5.46628 6.63312V5.33294C5.46628 5.09366 5.66032 4.89961 5.89961 4.89961H8.49961C8.7389 4.89961 8.93294 5.09366 8.93294 5.33294V6.63294Z" fill="white"/>
<defs>
<filter id="filter0_d_28_1257" x="0" y="0" width="17" height="18.6777" filterUnits="userSpaceOnUse" color-interpolation-filters="sRGB">
<feFlood flood-opacity="0" result="BackgroundImageFix"/>
<feColorMatrix in="SourceAlpha" type="matrix" values="0 0 0 0 0 0 0 0 0 0 0 0 0 0 0 0 0 0 127 0" result="hardAlpha"/>
<feOffset dy="1"/>
<feGaussianBlur stdDeviation="0.5"/>
<feComposite in2="hardAlpha" operator="out"/>
<feColorMatrix type="matrix" values="0 0 0 0 0 0 0 0 0 0 0 0 0 0 0 0 0 0 0.25 0"/>
<feBlend mode="normal" in2="BackgroundImageFix" result="effect1_dropShadow_28_1257"/>
<feBlend mode="normal" in="SourceGraphic" in2="effect1_dropShadow_28_1257" result="shape"/>
</filter>
</defs>
</svg>
