<svg width="15" height="17" viewBox="0 0 15 17" fill="none" xmlns="http://www.w3.org/2000/svg">
<path d="M7.5 0C11.6421 0 15 3.35786 15 7.5C15 9.83341 13.9344 11.9179 12.2632 13.2934L9.86168 15.695C8.55071 17.006 6.42522 17.006 5.11425 15.695L2.57999 13.1607C0.999297 11.7857 0 9.75958 0 7.5C0 3.35786 3.35786 0 7.5 0Z" fill="white"/>
<path d="M14 7.5C14 3.91015 11.0899 1 7.5 1C3.91015 1 1 3.91015 1 7.5C1 11.0899 3.91015 14 7.5 14C11.0899 14 14 11.0899 14 7.5Z" fill="#4898FF"/>
<path d="M10.9663 5.33294H10.5329V4.03294C10.5329 3.79366 10.3389 3.59961 10.0996 3.59961C9.86032 3.59961 9.66628 3.79366 9.66628 4.03294V5.33294C9.66628 5.8116 10.0543 6.19961 10.5329 6.19961V9.88294C10.5329 10.0026 10.436 10.0996 10.3163 10.0996C10.1966 10.0996 10.0996 10.0026 10.0996 9.88294V8.36628C10.0996 7.64833 9.51756 7.06628 8.79961 7.06628V4.46628C8.79961 3.98762 8.4116 3.59961 7.93294 3.59961H4.46628C3.98762 3.59961 3.59961 3.98762 3.59961 4.46628V10.5329C3.59961 11.0116 3.98762 11.3996 4.46628 11.3996H7.93294C8.4116 11.3996 8.79961 11.0116 8.79961 10.5329V7.93294C9.0389 7.93294 9.23294 8.12699 9.23294 8.36628V9.88294C9.23294 10.4813 9.71793 10.9663 10.3163 10.9663C10.9146 10.9663 11.3996 10.4813 11.3996 9.88294V5.76628C11.3996 5.52699 11.2056 5.33294 10.9663 5.33294ZM7.93294 6.63294C7.9378 6.86746 7.75164 7.06142 7.51712 7.06628C7.51703 7.06628 7.5172 7.06628 7.51712 7.06628H4.91694C4.67289 7.07113 4.47113 6.87717 4.46628 6.63312C4.46628 6.63303 4.46628 6.6332 4.46628 6.63312V5.33294C4.46628 5.09366 4.66032 4.89961 4.89961 4.89961H7.49961C7.7389 4.89961 7.93294 5.09366 7.93294 5.33294V6.63294Z" fill="white"/>
</svg>
