<svg width="17" height="19" viewBox="0 0 17 19" fill="none" xmlns="http://www.w3.org/2000/svg">
<g filter="url(#filter0_d_28_1141)">
<path d="M8.5 0C12.6421 0 16 3.35786 16 7.5C16 9.83341 14.9344 11.9179 13.2632 13.2934L10.8617 15.695C9.55071 17.006 7.42522 17.006 6.11425 15.695L3.57999 13.1607C1.9993 11.7857 1 9.75958 1 7.5C1 3.35786 4.35786 0 8.5 0Z" fill="white"/>
</g>
<path d="M15 7.5C15 3.91015 12.0899 1 8.5 1C4.91015 1 2 3.91015 2 7.5C2 11.0899 4.91015 14 8.5 14C12.0899 14 15 11.0899 15 7.5Z" fill="#BA272A"/>
<path d="M11.3636 6.54545H9.45455V4.63636C9.43011 4.29553 9.15902 4.02444 8.81818 4H8.18182C7.84098 4.02444 7.56989 4.29553 7.54545 4.63636V6.54545H5.63636C5.29553 6.56989 5.02444 6.84098 5 7.18182V7.81818C5.02444 8.15902 5.29553 8.43011 5.63636 8.45455H7.54545V10.3636C7.56989 10.7045 7.84098 10.9756 8.18182 11H8.81818C9.15902 10.9756 9.43011 10.7045 9.45455 10.3636V8.45455H11.3636C11.7045 8.43011 11.9756 8.15902 12 7.81818V7.18182C12 6.83035 11.7151 6.54545 11.3636 6.54545Z" fill="white"/>
<defs>
<filter id="filter0_d_28_1141" x="0" y="0" width="17" height="18.6777" filterUnits="userSpaceOnUse" color-interpolation-filters="sRGB">
<feFlood flood-opacity="0" result="BackgroundImageFix"/>
<feColorMatrix in="SourceAlpha" type="matrix" values="0 0 0 0 0 0 0 0 0 0 0 0 0 0 0 0 0 0 127 0" result="hardAlpha"/>
<feOffset dy="1"/>
<feGaussianBlur stdDeviation="0.5"/>
<feComposite in2="hardAlpha" operator="out"/>
<feColorMatrix type="matrix" values="0 0 0 0 0 0 0 0 0 0 0 0 0 0 0 0 0 0 0.25 0"/>
<feBlend mode="normal" in2="BackgroundImageFix" result="effect1_dropShadow_28_1141"/>
<feBlend mode="normal" in="SourceGraphic" in2="effect1_dropShadow_28_1141" result="shape"/>
</filter>
</defs>
</svg>
