<svg width="15" height="17" viewBox="0 0 15 17" fill="none" xmlns="http://www.w3.org/2000/svg">
<path d="M7.5 0C11.6421 0 15 3.35786 15 7.5C15 9.83341 13.9344 11.9179 12.2632 13.2934L9.86168 15.695C8.55071 17.006 6.42522 17.006 5.11425 15.695L2.57999 13.1607C0.999297 11.7857 0 9.75958 0 7.5C0 3.35786 3.35786 0 7.5 0Z" fill="#A2A2A2"/>
<path d="M14 7.5C14 3.91015 11.0899 1 7.5 1C3.91015 1 1 3.91015 1 7.5C1 11.0899 3.91015 14 7.5 14C11.0899 14 14 11.0899 14 7.5Z" fill="#BA272A"/>
<path d="M10.3636 6.54545H8.45455V4.63636C8.43011 4.29553 8.15902 4.02444 7.81818 4H7.18182C6.84098 4.02444 6.56989 4.29553 6.54545 4.63636V6.54545H4.63636C4.29553 6.56989 4.02444 6.84098 4 7.18182V7.81818C4.02444 8.15902 4.29553 8.43011 4.63636 8.45455H6.54545V10.3636C6.56989 10.7045 6.84098 10.9756 7.18182 11H7.81818C8.15902 10.9756 8.43011 10.7045 8.45455 10.3636V8.45455H10.3636C10.7045 8.43011 10.9756 8.15902 11 7.81818V7.18182C11 6.83035 10.7151 6.54545 10.3636 6.54545Z" fill="#292929"/>
</svg>
