<svg width="17" height="19" viewBox="0 0 17 19" fill="none" xmlns="http://www.w3.org/2000/svg">
<g filter="url(#filter0_d_28_1132)">
<path d="M8.5 0C12.6421 0 16 3.35786 16 7.5C16 9.83341 14.9344 11.9179 13.2632 13.2934L10.8617 15.695C9.55071 17.006 7.42522 17.006 6.11425 15.695L3.57999 13.1607C1.9993 11.7857 1 9.75958 1 7.5C1 3.35786 4.35786 0 8.5 0Z" fill="white"/>
</g>
<path d="M15 7.5C15 3.91015 12.0899 1 8.5 1C4.91015 1 2 3.91015 2 7.5C2 11.0899 4.91015 14 8.5 14C12.0899 14 15 11.0899 15 7.5Z" fill="#597FA6"/>
<path d="M6.57804 7.21833C6.58485 7.25485 6.59042 7.28643 6.59723 7.31738C6.6642 7.65278 6.80527 7.96898 7.01014 8.24285C7.03552 8.27628 7.05966 8.30104 7.10485 8.28495C7.1144 8.28276 7.12415 8.28152 7.13394 8.28124C7.29613 8.26045 7.46048 8.26358 7.62175 8.29052C7.72552 8.30543 7.82345 8.3477 7.90548 8.41297C7.98751 8.47825 8.05068 8.56418 8.08852 8.66195C8.12704 8.75349 8.15025 8.85074 8.15723 8.94981C8.16885 9.07934 8.14694 9.20968 8.09359 9.32829C8.04025 9.4469 7.95728 9.54979 7.85266 9.62704C7.69705 9.74073 7.51299 9.80908 7.3209 9.82452C6.9571 9.86966 6.58783 9.81776 6.25056 9.67409C6.0504 9.59671 5.87868 9.45998 5.75842 9.28223C5.69652 9.18443 5.63461 9.08414 5.57766 8.98014C5.44138 8.70526 5.33491 8.41659 5.26009 8.11904C5.22975 8.01009 5.18456 7.90547 5.14494 7.79962C5.14061 7.78785 5.12699 7.78043 5.11833 7.77114C5.10966 7.78414 5.09666 7.79404 5.09666 7.80952C5.08719 7.85714 5.08078 7.90532 5.07747 7.95376C5.07209 8.15884 5.08347 8.36401 5.11152 8.56723C5.15701 8.95215 5.2744 9.32509 5.45756 9.66666C5.68224 10.1009 6.03934 10.4524 6.47714 10.6701C6.62657 10.7467 6.78763 10.7979 6.9538 10.8218C7.15913 10.8493 7.36711 10.851 7.57285 10.8268C7.73 10.8112 7.88177 10.7611 8.01733 10.68C8.19148 10.5707 8.34611 10.4331 8.4748 10.2727C8.5939 10.1296 8.68239 9.96357 8.7348 9.7849C8.7725 9.64993 8.79554 9.51129 8.80352 9.37138C8.82288 9.13687 8.79682 8.90082 8.72675 8.67619C8.68156 8.53938 8.61718 8.40876 8.56085 8.27566L8.54661 8.24285H8.58561C8.77752 8.24285 8.9688 8.24285 9.16009 8.23604C9.27496 8.23417 9.38513 8.1901 9.46961 8.11224C9.56873 8.02446 9.65649 7.92464 9.73085 7.81509C9.82804 7.67209 9.91656 7.52476 10.0107 7.38176C10.0974 7.23397 10.2045 7.09914 10.3288 6.98124C10.4187 6.88994 10.5401 6.83636 10.6681 6.83143C10.7573 6.83447 10.8462 6.84336 10.9343 6.85804C10.9805 6.86363 11.0246 6.8802 11.0631 6.90637C11.1015 6.93255 11.1331 6.96756 11.1553 7.00847C11.1967 7.07987 11.2315 7.15487 11.2593 7.23257C11.325 7.43845 11.3541 7.65425 11.3453 7.87019C11.346 8.03195 11.3194 8.19267 11.2667 8.34562C11.1666 8.61811 10.9798 8.85017 10.7349 9.00614C10.5238 9.15459 10.2674 9.22466 10.01 9.20424C9.8585 9.19452 9.71404 9.13661 9.59775 9.03895C9.51248 8.96452 9.43937 8.87721 9.38109 8.78019C9.31649 8.68596 9.2796 8.57551 9.27461 8.46138C9.27326 8.44692 9.27057 8.43262 9.26656 8.41866L9.25542 8.42485C9.24988 8.43296 9.24492 8.44144 9.24056 8.45023C9.19211 8.54654 9.16468 8.65205 9.16009 8.75976C9.15123 8.93006 9.16518 9.10078 9.20156 9.26738C9.23672 9.46615 9.3119 9.6557 9.42256 9.82452C9.52456 9.98112 9.66731 10.107 9.83547 10.1885C9.965 10.2451 10.104 10.2768 10.2453 10.282C10.5438 10.3076 10.8413 10.2223 11.081 10.0424C11.2817 9.88527 11.4394 9.68001 11.5397 9.44566C11.6656 9.15861 11.7424 8.85247 11.7669 8.54C11.7939 8.27849 11.7888 8.01466 11.7514 7.75443C11.7111 7.45616 11.6158 7.16796 11.4704 6.90447C11.3275 6.64382 11.1154 6.42767 10.8575 6.27985C10.779 6.23458 10.6923 6.20533 10.6025 6.19381C10.4428 6.17586 10.2817 6.17586 10.1221 6.19381C9.8903 6.2142 9.6732 6.31595 9.50923 6.48104C9.40168 6.58963 9.30847 6.71154 9.2319 6.84381C9.13842 7.00414 9.05175 7.16819 8.96199 7.33038C8.8885 7.47544 8.79354 7.60859 8.68033 7.72533C8.61949 7.78968 8.54234 7.83633 8.4571 7.86032C8.37185 7.8843 8.28169 7.88472 8.19623 7.86152C8.04987 7.81637 7.9081 7.75751 7.7728 7.68571V7.68138C7.81799 7.6529 7.86318 7.62257 7.90961 7.59471C7.99019 7.54645 8.06096 7.48344 8.11823 7.409C8.24391 7.24768 8.3447 7.06844 8.41723 6.87723C8.47162 6.74695 8.50021 6.60736 8.50142 6.46619C8.49952 6.15143 8.37649 5.84949 8.15785 5.62304C8.03426 5.48635 7.87071 5.39212 7.69047 5.35376C7.51588 5.3202 7.33722 5.31331 7.16056 5.33333C6.93047 5.35726 6.70423 5.40966 6.48704 5.48933C6.20359 5.59483 5.94209 5.75181 5.71571 5.95238L6.19052 6.75095L6.22271 6.73485C6.34652 6.67295 6.47033 6.61104 6.59414 6.54914C6.80999 6.44103 7.03885 6.36113 7.27509 6.31143C7.39315 6.28499 7.51582 6.28711 7.6329 6.31762C7.71373 6.34492 7.78786 6.38905 7.85039 6.4471C7.91292 6.50515 7.96243 6.57579 7.99566 6.65438C8.00847 6.67927 8.01516 6.70686 8.01516 6.73485C8.01516 6.76285 8.00847 6.79044 7.99566 6.81533C7.95508 6.90385 7.89646 6.98291 7.82356 7.04747C7.70275 7.14805 7.55596 7.21243 7.40014 7.23319C7.21125 7.26012 7.0195 7.26012 6.83061 7.23319L6.57804 7.21833ZM8.00185 4.44128C7.99318 4.45366 7.97771 4.46728 7.97523 4.48214C7.96753 4.51834 7.96442 4.55536 7.96594 4.59233C7.98036 4.8216 8.04368 5.04514 8.15166 5.2479C8.26436 5.44775 8.41466 5.62391 8.59428 5.76666C8.82451 5.95685 9.11112 6.06567 9.40956 6.07619C9.57973 6.084 9.75021 6.0709 9.91718 6.03719C10.0502 6.01444 10.1813 5.98217 10.3097 5.94062C10.5549 5.85005 10.7846 5.72204 10.9906 5.56114C11.0402 5.52086 11.0869 5.47722 11.1305 5.43052C11.1435 5.41909 11.152 5.40346 11.1546 5.38637C11.1572 5.36928 11.1537 5.35182 11.1448 5.33704C11.1318 5.3129 11.1231 5.2869 11.1107 5.26276C11.0547 5.16386 10.9876 5.07165 10.9108 4.9879C10.8352 4.89876 10.7614 4.80838 10.6891 4.71676C10.6737 4.69695 10.6607 4.69323 10.6415 4.70562C10.5895 4.73966 10.5356 4.77123 10.4867 4.80962C10.3463 4.9238 10.1975 5.02726 10.0416 5.11914C9.77189 5.28269 9.45561 5.35235 9.14214 5.31723C8.99656 5.30174 8.85555 5.25733 8.72737 5.18662C8.50963 5.06218 8.31894 4.89549 8.16652 4.69633C8.11204 4.61833 8.06128 4.53166 8.00185 4.44128ZM9.25728 3.92871C9.25456 3.93409 9.25146 3.93926 9.24799 3.94419C9.05402 4.16044 8.85944 4.37587 8.66423 4.59047C8.65905 4.5953 8.65577 4.60183 8.65498 4.60886C8.65418 4.6159 8.65593 4.62299 8.6599 4.62885C8.70572 4.7198 8.76879 4.80096 8.84561 4.86781C8.97835 4.98327 9.11878 5.08958 9.26594 5.186C9.27214 5.19095 9.28761 5.186 9.29566 5.186C9.39013 5.12594 9.47611 5.05348 9.55133 4.97057C9.67201 4.82833 9.80012 4.69257 9.93514 4.56385V4.55643L9.25728 3.92871Z" fill="white"/>
<path d="M6.57528 7.21808L6.82723 7.24099C7.01611 7.26792 7.20787 7.26792 7.39675 7.24099C7.55258 7.22023 7.69937 7.15586 7.82018 7.05527C7.89357 6.98946 7.95221 6.90887 7.99228 6.8188C8.00509 6.79391 8.01178 6.76632 8.01178 6.73832C8.01178 6.71033 8.00509 6.68274 7.99228 6.65785C7.95946 6.57928 7.91039 6.50855 7.8483 6.4503C7.7862 6.39204 7.71249 6.34759 7.63199 6.31985C7.51491 6.28934 7.39224 6.28722 7.27418 6.31366C7.03794 6.36336 6.80908 6.44326 6.59323 6.55137C6.46942 6.60956 6.34561 6.67518 6.2218 6.73708L6.18961 6.75318L5.71294 5.95213C5.93922 5.75113 6.20073 5.59372 6.48428 5.48785C6.70152 5.4086 6.92775 5.35662 7.1578 5.33308C7.33492 5.31334 7.51402 5.32065 7.68894 5.35475C7.86918 5.39312 8.03273 5.48735 8.15632 5.62404C8.37421 5.85036 8.49678 6.15178 8.49866 6.46594C8.49666 6.60728 8.46722 6.74688 8.41199 6.87699C8.33946 7.06819 8.23867 7.24744 8.11299 7.40875C8.05572 7.4832 7.98495 7.5462 7.90437 7.59446C7.85794 7.62232 7.81275 7.65266 7.76756 7.68113V7.68547C7.90253 7.75655 8.04388 7.81479 8.18975 7.85942C8.27522 7.88261 8.36537 7.8822 8.45062 7.85821C8.53587 7.83423 8.61301 7.78758 8.67385 7.72323C8.78706 7.60649 8.88202 7.47334 8.95551 7.32827C9.04528 7.16608 9.13194 7.00204 9.22542 6.8417C9.30199 6.70944 9.3952 6.58752 9.50275 6.47894C9.66672 6.31385 9.88382 6.2121 10.1156 6.1917C10.2752 6.17375 10.4364 6.17375 10.596 6.1917C10.6859 6.20323 10.7726 6.23247 10.851 6.27775C11.1089 6.42557 11.321 6.64172 11.4639 6.90237C11.6094 7.16585 11.7047 7.45405 11.7449 7.75232C11.7823 8.01256 11.7875 8.27639 11.7604 8.53789C11.7359 8.85037 11.6591 9.15651 11.5332 9.44356C11.433 9.67791 11.2752 9.88316 11.0745 10.0403C10.8349 10.2202 10.5373 10.3055 10.2388 10.2799C10.0975 10.2747 9.95852 10.243 9.82899 10.1864C9.66083 10.1049 9.51808 9.97902 9.41609 9.82242C9.30543 9.6536 9.23024 9.46405 9.19509 9.26527C9.1587 9.09867 9.14475 8.92795 9.15361 8.75766C9.1582 8.64994 9.18563 8.54444 9.23409 8.44813C9.23844 8.43933 9.2434 8.43085 9.24894 8.42275L9.26009 8.41656C9.26409 8.43052 9.26679 8.44482 9.26813 8.45927C9.27312 8.57341 9.31001 8.68386 9.37461 8.77808C9.4329 8.87511 9.506 8.96242 9.59128 9.03685C9.70756 9.1345 9.85202 9.19242 10.0036 9.20213C10.2609 9.22255 10.5173 9.15249 10.7285 9.00404C10.9733 8.84807 11.1601 8.616 11.2602 8.34351C11.3129 8.19057 11.3395 8.02985 11.3388 7.86808C11.3476 7.65215 11.3185 7.43635 11.2528 7.23047C11.225 7.15277 11.1902 7.07776 11.1488 7.00637C11.1267 6.96546 11.0951 6.93044 11.0566 6.90427C11.0181 6.8781 10.974 6.86152 10.9278 6.85594C10.8409 6.84204 10.7533 6.83377 10.6653 6.83118C10.5384 6.8351 10.4177 6.88684 10.3273 6.97604C10.203 7.09394 10.0959 7.22877 10.0091 7.37656C9.91628 7.52266 9.82651 7.66999 9.72932 7.81299C9.65496 7.92253 9.5672 8.02235 9.46809 8.11013C9.38361 8.18799 9.27344 8.23206 9.15856 8.23394C8.96728 8.23827 8.77599 8.23889 8.58409 8.24075H8.54385L8.55809 8.2748C8.61442 8.40789 8.68189 8.53851 8.72399 8.67532C8.79251 8.90005 8.8171 9.13587 8.79642 9.36989C8.78844 9.5098 8.7654 9.64845 8.7277 9.78342C8.67529 9.96208 8.58681 10.1281 8.4677 10.2712C8.33901 10.4316 8.18438 10.5693 8.01023 10.6786C7.87467 10.7596 7.7229 10.8097 7.56575 10.8253C7.36001 10.8495 7.15203 10.8479 6.9467 10.8203C6.78117 10.7962 6.62075 10.745 6.47189 10.6687C6.03521 10.4508 5.67904 10.0998 5.4548 9.66642C5.27033 9.32449 5.15189 8.95089 5.10566 8.56513C5.07761 8.36191 5.06623 8.15673 5.07161 7.95166C5.07602 7.90377 5.08346 7.85622 5.09389 7.80927C5.09389 7.79689 5.10999 7.78699 5.11866 7.77585C5.12732 7.78513 5.14094 7.79256 5.14528 7.80432C5.18489 7.91018 5.23009 8.0148 5.26042 8.12375C5.33558 8.4196 5.44204 8.7066 5.57799 8.97989C5.63247 9.08389 5.69437 9.18418 5.75875 9.28199C5.87982 9.46023 6.05269 9.59701 6.25399 9.67385C6.59125 9.81752 6.96052 9.86941 7.32432 9.82427C7.51642 9.80883 7.70048 9.74048 7.85609 9.6268C7.9607 9.54954 8.04368 9.44666 8.09702 9.32805C8.15036 9.20944 8.17228 9.07909 8.16066 8.94956C8.15368 8.85049 8.13046 8.75324 8.09194 8.6617C8.05411 8.56394 7.99093 8.478 7.9089 8.41273C7.82687 8.34745 7.72895 8.30519 7.62518 8.29027C7.46391 8.26334 7.29955 8.26021 7.13737 8.28099C7.12757 8.28127 7.11783 8.28252 7.10828 8.2847C7.06309 8.3008 7.03894 8.27604 7.01356 8.24261C6.80895 7.96928 6.66789 7.65374 6.60066 7.31899C6.58766 7.28618 6.57961 7.25213 6.57528 7.21808Z" fill="white"/>
<path d="M8.00018 4.44141C8.06208 4.53179 8.10975 4.61845 8.1698 4.69769C8.32222 4.89685 8.51291 5.06354 8.73065 5.18798C8.85883 5.2587 8.99984 5.3031 9.14541 5.3186C9.4595 5.35413 9.7765 5.28446 10.0467 5.1205C10.2027 5.02862 10.3514 4.92516 10.4918 4.81098C10.5407 4.7726 10.5946 4.74103 10.6466 4.70698C10.6658 4.6946 10.6788 4.69831 10.6943 4.71812C10.7669 4.80974 10.8408 4.90012 10.9159 4.98926C10.9927 5.07301 11.0598 5.16522 11.1158 5.26412C11.1282 5.28826 11.1369 5.31426 11.1499 5.33841C11.1589 5.35318 11.1624 5.37064 11.1597 5.38773C11.1571 5.40482 11.1486 5.42045 11.1357 5.43188C11.0921 5.47858 11.0453 5.52222 10.9957 5.5625C10.7897 5.7234 10.56 5.85141 10.3148 5.94198C10.1865 5.98353 10.0553 6.0158 9.92232 6.03855C9.75534 6.07226 9.58486 6.08536 9.4147 6.07755C9.11626 6.06703 8.82965 5.95822 8.59941 5.76803C8.41979 5.62527 8.26949 5.44912 8.1568 5.24926C8.04882 5.0465 7.98549 4.82297 7.97108 4.59369C7.96955 4.55672 7.97267 4.5197 7.98037 4.4835C7.97603 4.46679 7.99151 4.45379 8.00018 4.44141Z" fill="white"/>
<path d="M9.25729 3.92871L9.93391 4.55519V4.56262C9.7989 4.69133 9.67079 4.82709 9.5501 4.96933C9.47489 5.05224 9.3889 5.1247 9.29444 5.18476C9.28639 5.18909 9.27091 5.19219 9.26472 5.18476C9.11756 5.08834 8.97713 4.98204 8.84439 4.86657C8.76757 4.79972 8.70449 4.71856 8.65867 4.62762C8.65511 4.6218 8.65366 4.61493 8.65456 4.60817C8.65546 4.6014 8.65866 4.59515 8.66363 4.59047C8.85842 4.37504 9.05321 4.1592 9.24801 3.94295C9.25143 3.93842 9.25453 3.93366 9.25729 3.92871Z" fill="white"/>
<defs>
<filter id="filter0_d_28_1132" x="0" y="0" width="17" height="18.6777" filterUnits="userSpaceOnUse" color-interpolation-filters="sRGB">
<feFlood flood-opacity="0" result="BackgroundImageFix"/>
<feColorMatrix in="SourceAlpha" type="matrix" values="0 0 0 0 0 0 0 0 0 0 0 0 0 0 0 0 0 0 127 0" result="hardAlpha"/>
<feOffset dy="1"/>
<feGaussianBlur stdDeviation="0.5"/>
<feComposite in2="hardAlpha" operator="out"/>
<feColorMatrix type="matrix" values="0 0 0 0 0 0 0 0 0 0 0 0 0 0 0 0 0 0 0.25 0"/>
<feBlend mode="normal" in2="BackgroundImageFix" result="effect1_dropShadow_28_1132"/>
<feBlend mode="normal" in="SourceGraphic" in2="effect1_dropShadow_28_1132" result="shape"/>
</filter>
</defs>
</svg>
