<svg width="15" height="17" viewBox="0 0 15 17" fill="none" xmlns="http://www.w3.org/2000/svg">
<path d="M7.5 0C11.6421 0 15 3.35786 15 7.5C15 9.83341 13.9344 11.9179 12.2632 13.2934L9.86168 15.695C8.55071 17.006 6.42522 17.006 5.11425 15.695L2.57999 13.1607C0.999297 11.7857 0 9.75958 0 7.5C0 3.35786 3.35786 0 7.5 0Z" fill="white"/>
<path d="M14 7.5C14 3.91015 11.0899 1 7.5 1C3.91015 1 1 3.91015 1 7.5C1 11.0899 3.91015 14 7.5 14C11.0899 14 14 11.0899 14 7.5Z" fill="#597FA6"/>
<path d="M5.57804 7.21833C5.58485 7.25485 5.59042 7.28643 5.59723 7.31738C5.6642 7.65278 5.80527 7.96898 6.01014 8.24285C6.03552 8.27628 6.05966 8.30104 6.10485 8.28495C6.1144 8.28276 6.12415 8.28152 6.13394 8.28124C6.29613 8.26045 6.46048 8.26358 6.62175 8.29052C6.72552 8.30543 6.82345 8.3477 6.90548 8.41297C6.98751 8.47825 7.05068 8.56418 7.08852 8.66195C7.12704 8.75349 7.15025 8.85074 7.15723 8.94981C7.16885 9.07934 7.14694 9.20968 7.09359 9.32829C7.04025 9.4469 6.95728 9.54979 6.85266 9.62704C6.69705 9.74073 6.51299 9.80908 6.3209 9.82452C5.9571 9.86966 5.58783 9.81776 5.25056 9.67409C5.0504 9.59671 4.87868 9.45998 4.75842 9.28223C4.69652 9.18443 4.63461 9.08414 4.57766 8.98014C4.44138 8.70526 4.33491 8.41659 4.26009 8.11904C4.22975 8.01009 4.18456 7.90547 4.14494 7.79962C4.14061 7.78785 4.12699 7.78043 4.11833 7.77114C4.10966 7.78414 4.09666 7.79404 4.09666 7.80952C4.08719 7.85714 4.08078 7.90532 4.07747 7.95376C4.07209 8.15884 4.08347 8.36401 4.11152 8.56723C4.15701 8.95215 4.2744 9.32509 4.45756 9.66666C4.68224 10.1009 5.03934 10.4524 5.47714 10.6701C5.62657 10.7467 5.78763 10.7979 5.9538 10.8218C6.15913 10.8493 6.36711 10.851 6.57285 10.8268C6.73 10.8112 6.88177 10.7611 7.01733 10.68C7.19148 10.5707 7.34611 10.4331 7.4748 10.2727C7.5939 10.1296 7.68239 9.96357 7.7348 9.7849C7.7725 9.64993 7.79554 9.51129 7.80352 9.37138C7.82288 9.13687 7.79682 8.90082 7.72675 8.67619C7.68156 8.53938 7.61718 8.40876 7.56085 8.27566L7.54661 8.24285H7.58561C7.77752 8.24285 7.9688 8.24285 8.16009 8.23604C8.27496 8.23417 8.38513 8.1901 8.46961 8.11224C8.56873 8.02446 8.65649 7.92464 8.73085 7.81509C8.82804 7.67209 8.91656 7.52476 9.01066 7.38176C9.09739 7.23397 9.2045 7.09914 9.32885 6.98124C9.41874 6.88994 9.54006 6.83636 9.66809 6.83143C9.7573 6.83447 9.84623 6.84336 9.93428 6.85804C9.98046 6.86363 10.0246 6.8802 10.0631 6.90637C10.1015 6.93255 10.1331 6.96756 10.1553 7.00847C10.1967 7.07987 10.2315 7.15487 10.2593 7.23257C10.325 7.43845 10.3541 7.65425 10.3453 7.87019C10.346 8.03195 10.3194 8.19267 10.2667 8.34562C10.1666 8.61811 9.97978 8.85017 9.73494 9.00614C9.52376 9.15459 9.26737 9.22466 9.01004 9.20424C8.8585 9.19452 8.71404 9.13661 8.59775 9.03895C8.51248 8.96452 8.43937 8.87721 8.38109 8.78019C8.31649 8.68596 8.2796 8.57551 8.27461 8.46138C8.27326 8.44692 8.27057 8.43262 8.26656 8.41866L8.25542 8.42485C8.24988 8.43296 8.24492 8.44144 8.24056 8.45023C8.19211 8.54654 8.16468 8.65205 8.16009 8.75976C8.15123 8.93006 8.16518 9.10078 8.20156 9.26738C8.23672 9.46615 8.3119 9.6557 8.42256 9.82452C8.52456 9.98112 8.66731 10.107 8.83547 10.1885C8.965 10.2451 9.10402 10.2768 9.24528 10.282C9.54383 10.3076 9.84134 10.2223 10.081 10.0424C10.2817 9.88527 10.4394 9.68001 10.5397 9.44566C10.6656 9.15861 10.7424 8.85247 10.7669 8.54C10.7939 8.27849 10.7888 8.01466 10.7514 7.75443C10.7111 7.45616 10.6158 7.16796 10.4704 6.90447C10.3275 6.64382 10.1154 6.42767 9.85752 6.27985C9.77903 6.23458 9.69234 6.20533 9.60247 6.19381C9.44284 6.17586 9.28171 6.17586 9.12209 6.19381C8.8903 6.2142 8.6732 6.31595 8.50923 6.48104C8.40168 6.58963 8.30847 6.71154 8.2319 6.84381C8.13842 7.00414 8.05175 7.16819 7.96199 7.33038C7.8885 7.47544 7.79354 7.60859 7.68033 7.72533C7.61949 7.78968 7.54234 7.83633 7.4571 7.86032C7.37185 7.8843 7.28169 7.88472 7.19623 7.86152C7.04987 7.81637 6.9081 7.75751 6.7728 7.68571V7.68138C6.81799 7.6529 6.86318 7.62257 6.90961 7.59471C6.99019 7.54645 7.06096 7.48344 7.11823 7.409C7.24391 7.24768 7.3447 7.06844 7.41723 6.87723C7.47162 6.74695 7.50021 6.60736 7.50142 6.46619C7.49952 6.15143 7.37649 5.84949 7.15785 5.62304C7.03426 5.48635 6.87071 5.39212 6.69047 5.35376C6.51588 5.3202 6.33722 5.31331 6.16056 5.33333C5.93047 5.35726 5.70423 5.40966 5.48704 5.48933C5.20359 5.59483 4.94209 5.75181 4.71571 5.95238L5.19052 6.75095L5.22271 6.73485C5.34652 6.67295 5.47033 6.61104 5.59414 6.54914C5.80999 6.44103 6.03885 6.36113 6.27509 6.31143C6.39315 6.28499 6.51582 6.28711 6.6329 6.31762C6.71373 6.34492 6.78786 6.38905 6.85039 6.4471C6.91292 6.50515 6.96243 6.57579 6.99566 6.65438C7.00847 6.67927 7.01516 6.70686 7.01516 6.73485C7.01516 6.76285 7.00847 6.79044 6.99566 6.81533C6.95508 6.90385 6.89646 6.98291 6.82356 7.04747C6.70275 7.14805 6.55596 7.21243 6.40014 7.23319C6.21125 7.26012 6.0195 7.26012 5.83061 7.23319L5.57804 7.21833ZM7.00185 4.44128C6.99318 4.45366 6.97771 4.46728 6.97523 4.48214C6.96753 4.51834 6.96442 4.55536 6.96594 4.59233C6.98036 4.8216 7.04368 5.04514 7.15166 5.2479C7.26436 5.44775 7.41466 5.62391 7.59428 5.76666C7.82451 5.95685 8.11112 6.06567 8.40956 6.07619C8.57973 6.084 8.75021 6.0709 8.91718 6.03719C9.05015 6.01444 9.18132 5.98217 9.30966 5.94062C9.55488 5.85005 9.78459 5.72204 9.99061 5.56114C10.0402 5.52086 10.0869 5.47722 10.1305 5.43052C10.1435 5.41909 10.152 5.40346 10.1546 5.38637C10.1572 5.36928 10.1537 5.35182 10.1448 5.33704C10.1318 5.3129 10.1231 5.2869 10.1107 5.26276C10.0547 5.16386 9.9876 5.07165 9.91075 4.9879C9.83523 4.89876 9.76136 4.80838 9.68914 4.71676C9.67366 4.69695 9.66066 4.69323 9.64147 4.70562C9.58947 4.73966 9.53561 4.77123 9.48671 4.80962C9.34631 4.9238 9.19752 5.02726 9.04161 5.11914C8.77189 5.28269 8.45561 5.35235 8.14214 5.31723C7.99656 5.30174 7.85555 5.25733 7.72737 5.18662C7.50963 5.06218 7.31894 4.89549 7.16652 4.69633C7.11204 4.61833 7.06128 4.53166 7.00185 4.44128ZM8.25728 3.92871C8.25456 3.93409 8.25146 3.93926 8.24799 3.94419C8.05402 4.16044 7.85944 4.37587 7.66423 4.59047C7.65905 4.5953 7.65577 4.60183 7.65498 4.60886C7.65418 4.6159 7.65593 4.62299 7.6599 4.62885C7.70572 4.7198 7.76879 4.80096 7.84561 4.86781C7.97835 4.98327 8.11878 5.08958 8.26594 5.186C8.27214 5.19095 8.28761 5.186 8.29566 5.186C8.39013 5.12594 8.47611 5.05348 8.55133 4.97057C8.67201 4.82833 8.80012 4.69257 8.93514 4.56385V4.55643L8.25728 3.92871Z" fill="white"/>
<path d="M5.57528 7.21808L5.82723 7.24099C6.01611 7.26792 6.20787 7.26792 6.39675 7.24099C6.55258 7.22023 6.69937 7.15586 6.82018 7.05527C6.89357 6.98946 6.95221 6.90887 6.99228 6.8188C7.00509 6.79391 7.01178 6.76632 7.01178 6.73832C7.01178 6.71033 7.00509 6.68274 6.99228 6.65785C6.95946 6.57928 6.91039 6.50855 6.8483 6.4503C6.7862 6.39204 6.71249 6.34759 6.63199 6.31985C6.51491 6.28934 6.39224 6.28722 6.27418 6.31366C6.03794 6.36336 5.80908 6.44326 5.59323 6.55137C5.46942 6.60956 5.34561 6.67518 5.2218 6.73708L5.18961 6.75318L4.71294 5.95213C4.93922 5.75113 5.20073 5.59372 5.48428 5.48785C5.70152 5.4086 5.92775 5.35662 6.1578 5.33308C6.33492 5.31334 6.51402 5.32065 6.68894 5.35475C6.86918 5.39312 7.03273 5.48735 7.15632 5.62404C7.37421 5.85036 7.49678 6.15178 7.49866 6.46594C7.49666 6.60728 7.46722 6.74688 7.41199 6.87699C7.33946 7.06819 7.23867 7.24744 7.11299 7.40875C7.05572 7.4832 6.98495 7.5462 6.90437 7.59446C6.85794 7.62232 6.81275 7.65266 6.76756 7.68113V7.68547C6.90253 7.75655 7.04388 7.81479 7.18975 7.85942C7.27522 7.88261 7.36537 7.8822 7.45062 7.85821C7.53587 7.83423 7.61301 7.78758 7.67385 7.72323C7.78706 7.60649 7.88202 7.47334 7.95551 7.32827C8.04528 7.16608 8.13194 7.00204 8.22542 6.8417C8.30199 6.70944 8.3952 6.58752 8.50275 6.47894C8.66672 6.31385 8.88382 6.2121 9.11561 6.1917C9.27523 6.17375 9.43637 6.17375 9.59599 6.1917C9.68586 6.20323 9.77255 6.23247 9.85104 6.27775C10.1089 6.42557 10.321 6.64172 10.4639 6.90237C10.6094 7.16585 10.7047 7.45405 10.7449 7.75232C10.7823 8.01256 10.7875 8.27639 10.7604 8.53789C10.7359 8.85037 10.6591 9.15651 10.5332 9.44356C10.433 9.67791 10.2752 9.88316 10.0745 10.0403C9.83486 10.2202 9.53735 10.3055 9.2388 10.2799C9.09754 10.2747 8.95852 10.243 8.82899 10.1864C8.66083 10.1049 8.51808 9.97902 8.41609 9.82242C8.30543 9.6536 8.23024 9.46405 8.19509 9.26527C8.1587 9.09867 8.14475 8.92795 8.15361 8.75766C8.1582 8.64994 8.18563 8.54444 8.23409 8.44813C8.23844 8.43933 8.2434 8.43085 8.24894 8.42275L8.26009 8.41656C8.26409 8.43052 8.26679 8.44482 8.26813 8.45927C8.27312 8.57341 8.31001 8.68386 8.37461 8.77808C8.4329 8.87511 8.506 8.96242 8.59128 9.03685C8.70756 9.1345 8.85202 9.19242 9.00356 9.20213C9.26089 9.22255 9.51728 9.15249 9.72847 9.00404C9.9733 8.84807 10.1601 8.616 10.2602 8.34351C10.3129 8.19057 10.3395 8.02985 10.3388 7.86808C10.3476 7.65215 10.3185 7.43635 10.2528 7.23047C10.225 7.15277 10.1902 7.07776 10.1488 7.00637C10.1267 6.96546 10.0951 6.93044 10.0566 6.90427C10.0181 6.8781 9.97398 6.86152 9.9278 6.85594C9.84093 6.84204 9.75326 6.83377 9.66532 6.83118C9.53842 6.8351 9.41769 6.88684 9.32732 6.97604C9.20298 7.09394 9.09586 7.22877 9.00913 7.37656C8.91628 7.52266 8.82651 7.66999 8.72932 7.81299C8.65496 7.92253 8.5672 8.02235 8.46809 8.11013C8.38361 8.18799 8.27344 8.23206 8.15856 8.23394C7.96728 8.23827 7.77599 8.23889 7.58409 8.24075H7.54385L7.55809 8.2748C7.61442 8.40789 7.68189 8.53851 7.72399 8.67532C7.79251 8.90005 7.8171 9.13587 7.79642 9.36989C7.78844 9.5098 7.7654 9.64845 7.7277 9.78342C7.67529 9.96208 7.58681 10.1281 7.4677 10.2712C7.33901 10.4316 7.18438 10.5693 7.01023 10.6786C6.87467 10.7596 6.7229 10.8097 6.56575 10.8253C6.36001 10.8495 6.15203 10.8479 5.9467 10.8203C5.78117 10.7962 5.62075 10.745 5.47189 10.6687C5.03521 10.4508 4.67904 10.0998 4.4548 9.66642C4.27033 9.32449 4.15189 8.95089 4.10566 8.56513C4.07761 8.36191 4.06623 8.15673 4.07161 7.95166C4.07602 7.90377 4.08346 7.85622 4.09389 7.80927C4.09389 7.79689 4.10999 7.78699 4.11866 7.77585C4.12732 7.78513 4.14094 7.79256 4.14528 7.80432C4.18489 7.91018 4.23009 8.0148 4.26042 8.12375C4.33558 8.4196 4.44204 8.7066 4.57799 8.97989C4.63247 9.08389 4.69437 9.18418 4.75875 9.28199C4.87982 9.46023 5.05269 9.59701 5.25399 9.67385C5.59125 9.81752 5.96052 9.86941 6.32432 9.82427C6.51642 9.80883 6.70048 9.74048 6.85609 9.6268C6.9607 9.54954 7.04368 9.44666 7.09702 9.32805C7.15036 9.20944 7.17228 9.07909 7.16066 8.94956C7.15368 8.85049 7.13046 8.75324 7.09194 8.6617C7.05411 8.56394 6.99093 8.478 6.9089 8.41273C6.82687 8.34745 6.72895 8.30519 6.62518 8.29027C6.46391 8.26334 6.29955 8.26021 6.13737 8.28099C6.12757 8.28127 6.11783 8.28252 6.10828 8.2847C6.06309 8.3008 6.03894 8.27604 6.01356 8.24261C5.80895 7.96928 5.66789 7.65374 5.60066 7.31899C5.58766 7.28618 5.57961 7.25213 5.57528 7.21808Z" fill="white"/>
<path d="M7.00018 4.44141C7.06208 4.53179 7.10975 4.61845 7.1698 4.69769C7.32222 4.89685 7.51291 5.06354 7.73065 5.18798C7.85883 5.2587 7.99984 5.3031 8.14541 5.3186C8.4595 5.35413 8.7765 5.28446 9.04675 5.1205C9.20266 5.02862 9.35144 4.92516 9.49184 4.81098C9.54075 4.7726 9.5946 4.74103 9.6466 4.70698C9.6658 4.6946 9.67879 4.69831 9.69427 4.71812C9.76691 4.80974 9.84078 4.90012 9.91589 4.98926C9.99274 5.07301 10.0598 5.16522 10.1158 5.26412C10.1282 5.28826 10.1369 5.31426 10.1499 5.33841C10.1589 5.35318 10.1624 5.37064 10.1597 5.38773C10.1571 5.40482 10.1486 5.42045 10.1357 5.43188C10.0921 5.47858 10.0453 5.52222 9.99575 5.5625C9.78973 5.7234 9.56002 5.85141 9.3148 5.94198C9.18645 5.98353 9.05529 6.0158 8.92232 6.03855C8.75534 6.07226 8.58486 6.08536 8.4147 6.07755C8.11626 6.06703 7.82965 5.95822 7.59941 5.76803C7.41979 5.62527 7.26949 5.44912 7.1568 5.24926C7.04882 5.0465 6.98549 4.82297 6.97108 4.59369C6.96955 4.55672 6.97267 4.5197 6.98037 4.4835C6.97603 4.46679 6.99151 4.45379 7.00018 4.44141Z" fill="white"/>
<path d="M8.25729 3.92871L8.93391 4.55519V4.56262C8.7989 4.69133 8.67079 4.82709 8.5501 4.96933C8.47489 5.05224 8.3889 5.1247 8.29444 5.18476C8.28639 5.18909 8.27091 5.19219 8.26472 5.18476C8.11756 5.08834 7.97713 4.98204 7.84439 4.86657C7.76757 4.79972 7.70449 4.71856 7.65867 4.62762C7.65511 4.6218 7.65366 4.61493 7.65456 4.60817C7.65546 4.6014 7.65866 4.59515 7.66363 4.59047C7.85842 4.37504 8.05321 4.1592 8.24801 3.94295C8.25143 3.93842 8.25453 3.93366 8.25729 3.92871Z" fill="white"/>
</svg>
