<svg width="17" height="19" viewBox="0 0 17 19" fill="none" xmlns="http://www.w3.org/2000/svg">
<g filter="url(#filter0_d_28_1127)">
<path d="M8.5 0C12.6421 0 16 3.35786 16 7.5C16 9.83341 14.9344 11.9179 13.2632 13.2934L10.8617 15.695C9.55071 17.006 7.42522 17.006 6.11425 15.695L3.57999 13.1607C1.9993 11.7857 1 9.75958 1 7.5C1 3.35786 4.35786 0 8.5 0Z" fill="white"/>
</g>
<path d="M15 7.5C15 3.91015 12.0899 1 8.5 1C4.91015 1 2 3.91015 2 7.5C2 11.0899 4.91015 14 8.5 14C12.0899 14 15 11.0899 15 7.5Z" fill="#BA272A"/>
<path d="M11.942 6.35277H9.64786V4.05865C9.6185 3.64907 9.29273 3.32331 8.88316 3.29395H8.11845C7.70887 3.32331 7.38311 3.64907 7.35375 4.05865V6.35277H5.05963C4.65005 6.38213 4.32429 6.7079 4.29492 7.11747V7.88218C4.32429 8.29176 4.65005 8.61752 5.05963 8.64689H7.35375V10.941C7.38311 11.3506 7.70887 11.6763 8.11845 11.7057H8.88316C9.29273 11.6763 9.6185 11.3506 9.64786 10.941V8.64689H11.942C12.3516 8.61752 12.6773 8.29176 12.7067 7.88218V7.11747C12.7067 6.69513 12.3643 6.35277 11.942 6.35277Z" fill="white"/>
<defs>
<filter id="filter0_d_28_1127" x="0" y="0" width="17" height="18.6777" filterUnits="userSpaceOnUse" color-interpolation-filters="sRGB">
<feFlood flood-opacity="0" result="BackgroundImageFix"/>
<feColorMatrix in="SourceAlpha" type="matrix" values="0 0 0 0 0 0 0 0 0 0 0 0 0 0 0 0 0 0 127 0" result="hardAlpha"/>
<feOffset dy="1"/>
<feGaussianBlur stdDeviation="0.5"/>
<feComposite in2="hardAlpha" operator="out"/>
<feColorMatrix type="matrix" values="0 0 0 0 0 0 0 0 0 0 0 0 0 0 0 0 0 0 0.25 0"/>
<feBlend mode="normal" in2="BackgroundImageFix" result="effect1_dropShadow_28_1127"/>
<feBlend mode="normal" in="SourceGraphic" in2="effect1_dropShadow_28_1127" result="shape"/>
</filter>
</defs>
</svg>
