<svg width="15" height="17" viewBox="0 0 15 17" fill="none" xmlns="http://www.w3.org/2000/svg">
<path d="M7.5 0C11.6421 0 15 3.35786 15 7.5C15 9.83341 13.9344 11.9179 12.2632 13.2934L9.86168 15.695C8.55071 17.006 6.42522 17.006 5.11425 15.695L2.57999 13.1607C0.999297 11.7857 0 9.75958 0 7.5C0 3.35786 3.35786 0 7.5 0Z" fill="white"/>
<path d="M14 7.5C14 3.91015 11.0899 1 7.5 1C3.91015 1 1 3.91015 1 7.5C1 11.0899 3.91015 14 7.5 14C11.0899 14 14 11.0899 14 7.5Z" fill="#BA272A"/>
<path d="M10.942 6.35277H8.64786V4.05865C8.6185 3.64907 8.29273 3.32331 7.88316 3.29395H7.11845C6.70887 3.32331 6.38311 3.64907 6.35375 4.05865V6.35277H4.05963C3.65005 6.38213 3.32429 6.7079 3.29492 7.11747V7.88218C3.32429 8.29176 3.65005 8.61752 4.05963 8.64689H6.35375V10.941C6.38311 11.3506 6.70887 11.6763 7.11845 11.7057H7.88316C8.29273 11.6763 8.6185 11.3506 8.64786 10.941V8.64689H10.942C11.3516 8.61752 11.6773 8.29176 11.7067 7.88218V7.11747C11.7067 6.69513 11.3643 6.35277 10.942 6.35277Z" fill="white"/>
</svg>
