<svg width="17" height="19" viewBox="0 0 17 19" fill="none" xmlns="http://www.w3.org/2000/svg">
<g filter="url(#filter0_d_28_1228)">
<path d="M8.5 0C12.6421 0 16 3.35786 16 7.5C16 9.83341 14.9344 11.9179 13.2632 13.2934L10.8617 15.695C9.55071 17.006 7.42522 17.006 6.11425 15.695L3.57999 13.1607C1.9993 11.7857 1 9.75958 1 7.5C1 3.35786 4.35786 0 8.5 0Z" fill="white"/>
</g>
<path d="M15 7.5C15 3.91015 12.0899 1 8.5 1C4.91015 1 2 3.91015 2 7.5C2 11.0899 4.91015 14 8.5 14C12.0899 14 15 11.0899 15 7.5Z" fill="#597FA6"/>
<path d="M10.508 4.06203L6.49334 4.05859C6.12198 4.05859 5.82422 4.36486 5.82422 4.74683V10.2527C5.82422 10.6347 6.12198 10.9409 6.49334 10.9409H10.508C10.8794 10.9409 11.1772 10.6347 11.1772 10.2527V4.74683C11.1772 4.36486 10.8794 4.06203 10.508 4.06203ZM10.508 10.2527H6.49334L6.48999 4.74683H10.508V10.2527Z" fill="white"/>
<path d="M7.16245 5.77918C7.34723 5.77918 7.49701 5.62512 7.49701 5.43506C7.49701 5.24501 7.34723 5.09095 7.16245 5.09095C6.97768 5.09095 6.8279 5.24501 6.8279 5.43506C6.8279 5.62512 6.97768 5.77918 7.16245 5.77918Z" fill="white"/>
<path d="M8.16613 5.77918C8.3509 5.77918 8.50069 5.62512 8.50069 5.43506C8.50069 5.24501 8.3509 5.09095 8.16613 5.09095C7.98136 5.09095 7.83157 5.24501 7.83157 5.43506C7.83157 5.62512 7.98136 5.77918 8.16613 5.77918Z" fill="white"/>
<path d="M8.50069 9.90859C9.42407 9.90859 10.1735 9.13777 10.1735 8.18801C10.1735 7.23824 9.42407 6.46742 8.50069 6.46742C7.57731 6.46742 6.8279 7.23824 6.8279 8.18801C6.8279 9.13777 7.57731 9.90859 8.50069 9.90859ZM9.29025 7.37589C9.72517 7.82324 9.72517 8.55277 9.29025 9.00012C8.85532 9.44748 8.14606 9.44748 7.71113 9.00012L9.29025 7.37589Z" fill="white"/>
<defs>
<filter id="filter0_d_28_1228" x="0" y="0" width="17" height="18.6777" filterUnits="userSpaceOnUse" color-interpolation-filters="sRGB">
<feFlood flood-opacity="0" result="BackgroundImageFix"/>
<feColorMatrix in="SourceAlpha" type="matrix" values="0 0 0 0 0 0 0 0 0 0 0 0 0 0 0 0 0 0 127 0" result="hardAlpha"/>
<feOffset dy="1"/>
<feGaussianBlur stdDeviation="0.5"/>
<feComposite in2="hardAlpha" operator="out"/>
<feColorMatrix type="matrix" values="0 0 0 0 0 0 0 0 0 0 0 0 0 0 0 0 0 0 0.25 0"/>
<feBlend mode="normal" in2="BackgroundImageFix" result="effect1_dropShadow_28_1228"/>
<feBlend mode="normal" in="SourceGraphic" in2="effect1_dropShadow_28_1228" result="shape"/>
</filter>
</defs>
</svg>
