<svg width="15" height="17" viewBox="0 0 15 17" fill="none" xmlns="http://www.w3.org/2000/svg">
<path d="M7.5 0C11.6421 0 15 3.35786 15 7.5C15 9.83341 13.9344 11.9179 12.2632 13.2934L9.86168 15.695C8.55071 17.006 6.42522 17.006 5.11425 15.695L2.57999 13.1607C0.999297 11.7857 0 9.75958 0 7.5C0 3.35786 3.35786 0 7.5 0Z" fill="white"/>
<path d="M14 7.5C14 3.91015 11.0899 1 7.5 1C3.91015 1 1 3.91015 1 7.5C1 11.0899 3.91015 14 7.5 14C11.0899 14 14 11.0899 14 7.5Z" fill="#597FA6"/>
<path d="M9.50804 4.06203L5.49334 4.05859C5.12198 4.05859 4.82422 4.36486 4.82422 4.74683V10.2527C4.82422 10.6347 5.12198 10.9409 5.49334 10.9409H9.50804C9.8794 10.9409 10.1772 10.6347 10.1772 10.2527V4.74683C10.1772 4.36486 9.8794 4.06203 9.50804 4.06203ZM9.50804 10.2527H5.49334L5.48999 4.74683H9.50804V10.2527Z" fill="white"/>
<path d="M6.16245 5.77918C6.34723 5.77918 6.49701 5.62512 6.49701 5.43506C6.49701 5.24501 6.34723 5.09095 6.16245 5.09095C5.97768 5.09095 5.8279 5.24501 5.8279 5.43506C5.8279 5.62512 5.97768 5.77918 6.16245 5.77918Z" fill="white"/>
<path d="M7.16613 5.77918C7.3509 5.77918 7.50069 5.62512 7.50069 5.43506C7.50069 5.24501 7.3509 5.09095 7.16613 5.09095C6.98136 5.09095 6.83157 5.24501 6.83157 5.43506C6.83157 5.62512 6.98136 5.77918 7.16613 5.77918Z" fill="white"/>
<path d="M7.50069 9.90859C8.42407 9.90859 9.17348 9.13777 9.17348 8.18801C9.17348 7.23824 8.42407 6.46742 7.50069 6.46742C6.57731 6.46742 5.8279 7.23824 5.8279 8.18801C5.8279 9.13777 6.57731 9.90859 7.50069 9.90859ZM8.29025 7.37589C8.72517 7.82324 8.72517 8.55277 8.29025 9.00012C7.85532 9.44748 7.14606 9.44748 6.71113 9.00012L8.29025 7.37589Z" fill="white"/>
</svg>
