<svg width="17" height="19" viewBox="0 0 17 19" fill="none" xmlns="http://www.w3.org/2000/svg">
<g filter="url(#filter0_d_28_1223)">
<path d="M8.5 0C12.6421 0 16 3.35786 16 7.5C16 9.83341 14.9344 11.9179 13.2632 13.2934L10.8617 15.695C9.55071 17.006 7.42522 17.006 6.11425 15.695L3.57999 13.1607C1.9993 11.7857 1 9.75958 1 7.5C1 3.35786 4.35786 0 8.5 0Z" fill="white"/>
</g>
<path d="M15 7.5C15 3.91015 12.0899 1 8.5 1C4.91015 1 2 3.91015 2 7.5C2 11.0899 4.91015 14 8.5 14C12.0899 14 15 11.0899 15 7.5Z" fill="#597FA6"/>
<path d="M8.5 6.34107C9.35944 6.34107 10.0556 5.5935 10.0556 4.67053C10.0556 3.74756 9.35944 3 8.5 3C7.64056 3 6.94444 3.74756 6.94444 4.67053C6.94444 5.5935 7.64056 6.34107 8.5 6.34107ZM8.5 3.83527C8.92778 3.83527 9.27778 4.21114 9.27778 4.67053C9.27778 5.12993 8.92778 5.5058 8.5 5.5058C8.07222 5.5058 7.72222 5.12993 7.72222 4.67053C7.72222 4.21114 8.07222 3.83527 8.5 3.83527ZM8.5 7.40603C7.58222 6.48724 6.35333 5.92343 5 5.92343V10.5174C6.35333 10.5174 7.58222 11.0812 8.5 12C9.41778 11.0854 10.6467 10.5174 12 10.5174V5.92343C10.6467 5.92343 9.41778 6.48724 8.5 7.40603ZM11.2222 9.73643C10.2383 9.87842 9.305 10.2794 8.5 10.9142C7.69889 10.2794 6.76167 9.87425 5.77778 9.73225V6.8297C6.59444 6.9884 7.35278 7.3935 7.97111 8.0116L8.5 8.54617L9.02889 8.01578C9.64722 7.39768 10.4056 6.99258 11.2222 6.83387V9.73643Z" fill="white"/>
<defs>
<filter id="filter0_d_28_1223" x="0" y="0" width="17" height="18.6777" filterUnits="userSpaceOnUse" color-interpolation-filters="sRGB">
<feFlood flood-opacity="0" result="BackgroundImageFix"/>
<feColorMatrix in="SourceAlpha" type="matrix" values="0 0 0 0 0 0 0 0 0 0 0 0 0 0 0 0 0 0 127 0" result="hardAlpha"/>
<feOffset dy="1"/>
<feGaussianBlur stdDeviation="0.5"/>
<feComposite in2="hardAlpha" operator="out"/>
<feColorMatrix type="matrix" values="0 0 0 0 0 0 0 0 0 0 0 0 0 0 0 0 0 0 0.25 0"/>
<feBlend mode="normal" in2="BackgroundImageFix" result="effect1_dropShadow_28_1223"/>
<feBlend mode="normal" in="SourceGraphic" in2="effect1_dropShadow_28_1223" result="shape"/>
</filter>
</defs>
</svg>
