<svg width="17" height="19" viewBox="0 0 17 19" fill="none" xmlns="http://www.w3.org/2000/svg">
<g filter="url(#filter0_d_28_1203)">
<path d="M8.5 0C12.6421 0 16 3.35786 16 7.5C16 9.83341 14.9344 11.9179 13.2632 13.2934L10.8617 15.695C9.55071 17.006 7.42522 17.006 6.11425 15.695L3.57999 13.1607C1.9993 11.7857 1 9.75958 1 7.5C1 3.35786 4.35786 0 8.5 0Z" fill="white"/>
</g>
<path d="M15 7.5C15 3.91015 12.0899 1 8.5 1C4.91015 1 2 3.91015 2 7.5C2 11.0899 4.91015 14 8.5 14C12.0899 14 15 11.0899 15 7.5Z" fill="#597FA6"/>
<path d="M11.825 7.10718C11.923 7.10718 12 7.02932 12 6.93023V6.49141C12 6.43478 11.972 6.37816 11.9265 6.34631L8.6995 4.0637C8.5805 3.97877 8.4195 3.97877 8.297 4.0637L5.0735 6.34631C5.028 6.37816 5 6.43478 5 6.49141V6.93023C5 7.02932 5.077 7.10718 5.175 7.10718H5.7V10.2922H5.35C5.1575 10.2922 5 10.4515 5 10.6461C5 10.8407 5.1575 11 5.35 11H11.65C11.8425 11 12 10.8407 12 10.6461C12 10.4515 11.8425 10.2922 11.65 10.2922H11.3V7.10718H11.825ZM9.9 9.23054C9.9 9.42518 9.7425 9.58443 9.55 9.58443C9.3575 9.58443 9.2 9.42518 9.2 9.23054V8.16886L8.7905 8.78817C8.6505 8.99697 8.346 8.99697 8.2095 8.78817L7.8 8.16886V9.23054C7.8 9.42518 7.6425 9.58443 7.45 9.58443C7.2575 9.58443 7.1 9.42518 7.1 9.23054V7.56724C7.1 7.31244 7.303 7.10718 7.555 7.10718C7.7055 7.10718 7.849 7.18503 7.933 7.31244L8.5 8.16886L9.0635 7.31244C9.151 7.18503 9.291 7.10718 9.445 7.10718C9.697 7.10718 9.9 7.31244 9.9 7.56724V9.23054Z" fill="white"/>
<defs>
<filter id="filter0_d_28_1203" x="0" y="0" width="17" height="18.6777" filterUnits="userSpaceOnUse" color-interpolation-filters="sRGB">
<feFlood flood-opacity="0" result="BackgroundImageFix"/>
<feColorMatrix in="SourceAlpha" type="matrix" values="0 0 0 0 0 0 0 0 0 0 0 0 0 0 0 0 0 0 127 0" result="hardAlpha"/>
<feOffset dy="1"/>
<feGaussianBlur stdDeviation="0.5"/>
<feComposite in2="hardAlpha" operator="out"/>
<feColorMatrix type="matrix" values="0 0 0 0 0 0 0 0 0 0 0 0 0 0 0 0 0 0 0.25 0"/>
<feBlend mode="normal" in2="BackgroundImageFix" result="effect1_dropShadow_28_1203"/>
<feBlend mode="normal" in="SourceGraphic" in2="effect1_dropShadow_28_1203" result="shape"/>
</filter>
</defs>
</svg>
