<svg width="15" height="17" viewBox="0 0 15 17" fill="none" xmlns="http://www.w3.org/2000/svg">
<path d="M7.5 0C11.6421 0 15 3.35786 15 7.5C15 9.83341 13.9344 11.9179 12.2632 13.2934L9.86168 15.695C8.55071 17.006 6.42522 17.006 5.11425 15.695L2.57999 13.1607C0.999297 11.7857 0 9.75958 0 7.5C0 3.35786 3.35786 0 7.5 0Z" fill="#A2A2A2"/>
<path d="M14 7.5C14 3.91015 11.0899 1 7.5 1C3.91015 1 1 3.91015 1 7.5C1 11.0899 3.91015 14 7.5 14C11.0899 14 14 11.0899 14 7.5Z" fill="#299091"/>
<path d="M10.3476 6.94299C10.2893 6.97327 10.2266 6.99417 10.1619 7.00489H4.89996C4.65234 7.00489 4.65234 7.00489 4.65234 6.75727V6.57156C4.65234 6.44775 4.71425 6.38584 4.83806 6.32394L7.43806 5.39537V4.4668H8.79996L8.42853 5.02394H7.62377V5.45727L10.2238 6.38584C10.2857 6.38584 10.4095 6.44775 10.4095 6.50965C10.4195 6.65684 10.3984 6.80448 10.3476 6.94299Z" fill="#292929"/>
<path d="M6.94307 8.5521V7.68543C6.93945 7.6602 6.94175 7.63447 6.9498 7.61028C6.95785 7.5861 6.97143 7.56412 6.98945 7.5461C7.00748 7.52807 7.02946 7.51449 7.05364 7.50644C7.07783 7.49839 7.10356 7.49609 7.12879 7.49971H7.87165C7.89688 7.49609 7.92261 7.49839 7.94679 7.50644C7.97098 7.51449 7.99296 7.52807 8.01098 7.5461C8.029 7.56412 8.04258 7.5861 8.05063 7.61028C8.05868 7.63447 8.06099 7.6602 8.05736 7.68543V9.48067C8.05736 9.60448 7.99546 9.60448 7.93355 9.60448H7.12879C7.10356 9.6081 7.07783 9.6058 7.05364 9.59775C7.02946 9.5897 7.00748 9.57612 6.98945 9.5581C6.97143 9.54007 6.95785 9.5181 6.9498 9.49391C6.94175 9.46972 6.93945 9.44399 6.94307 9.41876V8.5521Z" fill="#292929"/>
<path d="M6.20053 8.5521V9.41876C6.20416 9.44399 6.20186 9.46972 6.1938 9.49391C6.18575 9.5181 6.17218 9.54007 6.15415 9.5581C6.13613 9.57612 6.11415 9.5897 6.08997 9.59775C6.06578 9.6058 6.04005 9.6081 6.01482 9.60448H5.33387C5.30864 9.6081 5.28291 9.6058 5.25872 9.59775C5.23453 9.5897 5.21256 9.57612 5.19453 9.5581C5.17651 9.54007 5.16293 9.5181 5.15488 9.49391C5.14683 9.46972 5.14453 9.44399 5.14815 9.41876V7.68543C5.14453 7.6602 5.14683 7.63447 5.15488 7.61028C5.16293 7.5861 5.17651 7.56412 5.19453 7.5461C5.21256 7.52807 5.23453 7.51449 5.25872 7.50644C5.28291 7.49839 5.30864 7.49609 5.33387 7.49971H6.01482C6.04005 7.49609 6.06578 7.49839 6.08997 7.50644C6.11415 7.51449 6.13613 7.52807 6.15415 7.5461C6.17218 7.56412 6.18575 7.5861 6.1938 7.61028C6.20186 7.63447 6.20416 7.6602 6.20053 7.68543V8.5521Z" fill="#292929"/>
<path d="M8.7999 8.5521V7.68543C8.79628 7.6602 8.79858 7.63447 8.80663 7.61028C8.81468 7.5861 8.82826 7.56412 8.84628 7.5461C8.86431 7.52807 8.88628 7.51449 8.91047 7.50644C8.93465 7.49839 8.96038 7.49609 8.98561 7.49971H9.66657C9.6918 7.49609 9.71753 7.49839 9.74171 7.50644C9.7659 7.51449 9.78788 7.52807 9.8059 7.5461C9.82393 7.56412 9.8375 7.5861 9.84555 7.61028C9.8536 7.63447 9.85591 7.6602 9.85228 7.68543V9.41876C9.85591 9.44399 9.8536 9.46972 9.84555 9.49391C9.8375 9.5181 9.82393 9.54007 9.8059 9.5581C9.78788 9.57612 9.7659 9.5897 9.74171 9.59775C9.71753 9.6058 9.6918 9.6081 9.66657 9.60448H8.92371C8.89848 9.6081 8.87275 9.6058 8.84856 9.59775C8.82438 9.5897 8.8024 9.57612 8.78438 9.5581C8.76635 9.54007 8.75278 9.5181 8.74473 9.49391C8.73667 9.46972 8.73437 9.44399 8.738 9.41876C8.78938 9.1329 8.81013 8.84236 8.7999 8.5521Z" fill="#292929"/>
<path d="M4.21951 10.0996H10.7195C10.7516 10.1018 10.7819 10.1155 10.8046 10.1383C10.8274 10.1611 10.8411 10.1913 10.8433 10.2234V10.3472C10.8411 10.3793 10.8274 10.4096 10.8046 10.4324C10.7819 10.4551 10.7516 10.4689 10.7195 10.471H4.21951C4.18739 10.4689 4.15715 10.4551 4.13438 10.4324C4.11162 10.4096 4.09788 10.3793 4.0957 10.3472V10.2234C4.09788 10.1913 4.11162 10.1611 4.13438 10.1383C4.15715 10.1155 4.18739 10.1018 4.21951 10.0996Z" fill="#292929"/>
</svg>
