<svg width="17" height="19" viewBox="0 0 17 19" fill="none" xmlns="http://www.w3.org/2000/svg">
<g filter="url(#filter0_d_28_1193)">
<path d="M8.5 0C12.6421 0 16 3.35786 16 7.5C16 9.83341 14.9344 11.9179 13.2632 13.2934L10.8617 15.695C9.55071 17.006 7.42522 17.006 6.11425 15.695L3.57999 13.1607C1.9993 11.7857 1 9.75958 1 7.5C1 3.35786 4.35786 0 8.5 0Z" fill="white"/>
</g>
<path d="M15 7.5C15 3.91015 12.0899 1 8.5 1C4.91015 1 2 3.91015 2 7.5C2 11.0899 4.91015 14 8.5 14C12.0899 14 15 11.0899 15 7.5Z" fill="#299091"/>
<path d="M11.3476 6.94299C11.2893 6.97327 11.2266 6.99417 11.1619 7.00489H5.89996C5.65234 7.00489 5.65234 7.00489 5.65234 6.75727V6.57156C5.65234 6.44775 5.71425 6.38584 5.83806 6.32394L8.43806 5.39537V4.4668H9.79996L9.42853 5.02394H8.62377V5.45727L11.2238 6.38584C11.2857 6.38584 11.4095 6.44775 11.4095 6.50965C11.4195 6.65684 11.3984 6.80448 11.3476 6.94299Z" fill="white"/>
<path d="M7.94307 8.5521V7.68543C7.93945 7.6602 7.94175 7.63447 7.9498 7.61028C7.95785 7.5861 7.97143 7.56412 7.98945 7.5461C8.00748 7.52807 8.02946 7.51449 8.05364 7.50644C8.07783 7.49839 8.10356 7.49609 8.12879 7.49971H8.87165C8.89688 7.49609 8.92261 7.49839 8.94679 7.50644C8.97098 7.51449 8.99296 7.52807 9.01098 7.5461C9.029 7.56412 9.04258 7.5861 9.05063 7.61028C9.05868 7.63447 9.06099 7.6602 9.05736 7.68543V9.48067C9.05736 9.60448 8.99546 9.60448 8.93355 9.60448H8.12879C8.10356 9.6081 8.07783 9.6058 8.05364 9.59775C8.02946 9.5897 8.00748 9.57612 7.98945 9.5581C7.97143 9.54007 7.95785 9.5181 7.9498 9.49391C7.94175 9.46972 7.93945 9.44399 7.94307 9.41876V8.5521Z" fill="white"/>
<path d="M7.20053 8.5521V9.41876C7.20416 9.44399 7.20186 9.46972 7.1938 9.49391C7.18575 9.5181 7.17218 9.54007 7.15415 9.5581C7.13613 9.57612 7.11415 9.5897 7.08997 9.59775C7.06578 9.6058 7.04005 9.6081 7.01482 9.60448H6.33387C6.30864 9.6081 6.28291 9.6058 6.25872 9.59775C6.23453 9.5897 6.21256 9.57612 6.19453 9.5581C6.17651 9.54007 6.16293 9.5181 6.15488 9.49391C6.14683 9.46972 6.14453 9.44399 6.14815 9.41876V7.68543C6.14453 7.6602 6.14683 7.63447 6.15488 7.61028C6.16293 7.5861 6.17651 7.56412 6.19453 7.5461C6.21256 7.52807 6.23453 7.51449 6.25872 7.50644C6.28291 7.49839 6.30864 7.49609 6.33387 7.49971H7.01482C7.04005 7.49609 7.06578 7.49839 7.08997 7.50644C7.11415 7.51449 7.13613 7.52807 7.15415 7.5461C7.17218 7.56412 7.18575 7.5861 7.1938 7.61028C7.20186 7.63447 7.20416 7.6602 7.20053 7.68543V8.5521Z" fill="white"/>
<path d="M9.7999 8.5521V7.68543C9.79628 7.6602 9.79858 7.63447 9.80663 7.61028C9.81468 7.5861 9.82826 7.56412 9.84628 7.5461C9.86431 7.52807 9.88628 7.51449 9.91047 7.50644C9.93465 7.49839 9.96038 7.49609 9.98561 7.49971H10.6666C10.6918 7.49609 10.7175 7.49839 10.7417 7.50644C10.7659 7.51449 10.7879 7.52807 10.8059 7.5461C10.8239 7.56412 10.8375 7.5861 10.8456 7.61028C10.8536 7.63447 10.8559 7.6602 10.8523 7.68543V9.41876C10.8559 9.44399 10.8536 9.46972 10.8456 9.49391C10.8375 9.5181 10.8239 9.54007 10.8059 9.5581C10.7879 9.57612 10.7659 9.5897 10.7417 9.59775C10.7175 9.6058 10.6918 9.6081 10.6666 9.60448H9.92371C9.89848 9.6081 9.87275 9.6058 9.84856 9.59775C9.82438 9.5897 9.8024 9.57612 9.78438 9.5581C9.76635 9.54007 9.75278 9.5181 9.74473 9.49391C9.73667 9.46972 9.73437 9.44399 9.738 9.41876C9.78938 9.1329 9.81013 8.84236 9.7999 8.5521Z" fill="white"/>
<path d="M5.21951 10.0996H11.7195C11.7516 10.1018 11.7819 10.1155 11.8046 10.1383C11.8274 10.1611 11.8411 10.1913 11.8433 10.2234V10.3472C11.8411 10.3793 11.8274 10.4096 11.8046 10.4324C11.7819 10.4551 11.7516 10.4689 11.7195 10.471H5.21951C5.18739 10.4689 5.15715 10.4551 5.13438 10.4324C5.11162 10.4096 5.09788 10.3793 5.0957 10.3472V10.2234C5.09788 10.1913 5.11162 10.1611 5.13438 10.1383C5.15715 10.1155 5.18739 10.1018 5.21951 10.0996Z" fill="white"/>
<defs>
<filter id="filter0_d_28_1193" x="0" y="0" width="17" height="18.6777" filterUnits="userSpaceOnUse" color-interpolation-filters="sRGB">
<feFlood flood-opacity="0" result="BackgroundImageFix"/>
<feColorMatrix in="SourceAlpha" type="matrix" values="0 0 0 0 0 0 0 0 0 0 0 0 0 0 0 0 0 0 127 0" result="hardAlpha"/>
<feOffset dy="1"/>
<feGaussianBlur stdDeviation="0.5"/>
<feComposite in2="hardAlpha" operator="out"/>
<feColorMatrix type="matrix" values="0 0 0 0 0 0 0 0 0 0 0 0 0 0 0 0 0 0 0.25 0"/>
<feBlend mode="normal" in2="BackgroundImageFix" result="effect1_dropShadow_28_1193"/>
<feBlend mode="normal" in="SourceGraphic" in2="effect1_dropShadow_28_1193" result="shape"/>
</filter>
</defs>
</svg>
