<svg width="15" height="17" viewBox="0 0 15 17" fill="none" xmlns="http://www.w3.org/2000/svg">
<path d="M7.5 0C11.6421 0 15 3.35786 15 7.5C15 9.83341 13.9344 11.9179 12.2632 13.2934L9.86168 15.695C8.55071 17.006 6.42522 17.006 5.11425 15.695L2.57999 13.1607C0.999297 11.7857 0 9.75958 0 7.5C0 3.35786 3.35786 0 7.5 0Z" fill="white"/>
<g clip-path="url(#clip0_28_1181)">
<path d="M14 7.5C14 3.91015 11.0899 1 7.5 1C3.91015 1 1 3.91015 1 7.5C1 11.0899 3.91015 14 7.5 14C11.0899 14 14 11.0899 14 7.5Z" fill="#4898FF"/>
<path d="M8.23077 4H5V12H6.84615V9.33333H8.23077C9.75846 9.33333 11 8.13778 11 6.66667C11 5.19556 9.75846 4 8.23077 4ZM8.32308 7.55556H6.84615V5.77778H8.32308C8.83077 5.77778 9.24615 6.17778 9.24615 6.66667C9.24615 7.15556 8.83077 7.55556 8.32308 7.55556Z" fill="white"/>
</g>
<defs>
<clipPath id="clip0_28_1181">
<rect width="13" height="13" fill="white" transform="translate(1 1)"/>
</clipPath>
</defs>
</svg>
