<svg width="15" height="17" viewBox="0 0 15 17" fill="none" xmlns="http://www.w3.org/2000/svg">
<path d="M7.5 0C11.6421 0 15 3.35786 15 7.5C15 9.83341 13.9344 11.9179 12.2632 13.2934L9.86168 15.695C8.55071 17.006 6.42522 17.006 5.11425 15.695L2.57999 13.1607C0.999297 11.7857 0 9.75958 0 7.5C0 3.35786 3.35786 0 7.5 0Z" fill="white"/>
<path d="M14 7.5C14 3.91015 11.0899 1 7.5 1C3.91015 1 1 3.91015 1 7.5C1 11.0899 3.91015 14 7.5 14C11.0899 14 14 11.0899 14 7.5Z" fill="#598017"/>
<path d="M9.64187 7.84362H9.67643C10.0264 7.84362 10.2295 7.46539 10.0307 7.19106L7.83573 4.17769C7.6629 3.94077 7.29994 3.94077 7.12711 4.17769L4.94938 7.19106C4.75061 7.46539 4.95802 7.84362 5.30801 7.84362H5.32529L4.07223 9.69736C3.88211 9.97168 4.08952 10.3374 4.43519 10.3374H6.6302V11.177C6.6302 11.6301 7.01476 12 7.48574 12C7.95672 12 8.34128 11.6301 8.34128 11.177V10.3374H10.5665C10.9122 10.3374 11.1196 9.96753 10.9252 9.69321L9.64187 7.84362Z" fill="white"/>
</svg>
