<svg width="17" height="19" viewBox="0 0 17 19" fill="none" xmlns="http://www.w3.org/2000/svg">
<g filter="url(#filter0_d_28_1188)">
<path d="M8.5 0C12.6421 0 16 3.35786 16 7.5C16 9.83341 14.9344 11.9179 13.2632 13.2934L10.8617 15.695C9.55071 17.006 7.42522 17.006 6.11425 15.695L3.57999 13.1607C1.9993 11.7857 1 9.75958 1 7.5C1 3.35786 4.35786 0 8.5 0Z" fill="white"/>
</g>
<path d="M15 7.5C15 3.91015 12.0899 1 8.5 1C4.91015 1 2 3.91015 2 7.5C2 11.0899 4.91015 14 8.5 14C12.0899 14 15 11.0899 15 7.5Z" fill="#598017"/>
<path d="M10.6419 7.84362H10.6764C11.0264 7.84362 11.2295 7.46539 11.0307 7.19106L8.83573 4.17769C8.6629 3.94077 8.29994 3.94077 8.12711 4.17769L5.94938 7.19106C5.75061 7.46539 5.95802 7.84362 6.30801 7.84362H6.32529L5.07223 9.69736C4.88211 9.97168 5.08952 10.3374 5.43519 10.3374H7.6302V11.177C7.6302 11.6301 8.01476 12 8.48574 12C8.95672 12 9.34128 11.6301 9.34128 11.177V10.3374H11.5665C11.9122 10.3374 12.1196 9.96753 11.9252 9.69321L10.6419 7.84362Z" fill="white"/>
<defs>
<filter id="filter0_d_28_1188" x="0" y="0" width="17" height="18.6777" filterUnits="userSpaceOnUse" color-interpolation-filters="sRGB">
<feFlood flood-opacity="0" result="BackgroundImageFix"/>
<feColorMatrix in="SourceAlpha" type="matrix" values="0 0 0 0 0 0 0 0 0 0 0 0 0 0 0 0 0 0 127 0" result="hardAlpha"/>
<feOffset dy="1"/>
<feGaussianBlur stdDeviation="0.5"/>
<feComposite in2="hardAlpha" operator="out"/>
<feColorMatrix type="matrix" values="0 0 0 0 0 0 0 0 0 0 0 0 0 0 0 0 0 0 0.25 0"/>
<feBlend mode="normal" in2="BackgroundImageFix" result="effect1_dropShadow_28_1188"/>
<feBlend mode="normal" in="SourceGraphic" in2="effect1_dropShadow_28_1188" result="shape"/>
</filter>
</defs>
</svg>
