<svg width="17" height="19" viewBox="0 0 17 19" fill="none" xmlns="http://www.w3.org/2000/svg">
<g filter="url(#filter0_d_28_1166)">
<path d="M8.5 0C12.6421 0 16 3.35786 16 7.5C16 9.83341 14.9344 11.9179 13.2632 13.2934L10.8617 15.695C9.55071 17.006 7.42522 17.006 6.11425 15.695L3.57999 13.1607C1.9993 11.7857 1 9.75958 1 7.5C1 3.35786 4.35786 0 8.5 0Z" fill="white"/>
</g>
<path d="M15 7.5C15 3.91015 12.0899 1 8.5 1C4.91015 1 2 3.91015 2 7.5C2 11.0899 4.91015 14 8.5 14C12.0899 14 15 11.0899 15 7.5Z" fill="#597FA6"/>
<path d="M8.5161 3.29395L7.35375 4.82336V5.58806H9.64786V4.82336L8.5161 3.29395ZM7.35375 6.35277L5.82433 7.11747V10.941H11.1773V7.11747L9.64786 6.35277H7.35375ZM12.7067 7.49983V10.941H11.942V7.49983C11.942 7.28869 12.1132 7.11747 12.3243 7.11747C12.5355 7.11747 12.7067 7.28869 12.7067 7.49983ZM5.05963 7.49983V10.941H4.29492V7.49983C4.29492 7.28869 4.46614 7.11747 4.67727 7.11747C4.88841 7.11747 5.05963 7.28869 5.05963 7.49983Z" fill="white"/>
<defs>
<filter id="filter0_d_28_1166" x="0" y="0" width="17" height="18.6777" filterUnits="userSpaceOnUse" color-interpolation-filters="sRGB">
<feFlood flood-opacity="0" result="BackgroundImageFix"/>
<feColorMatrix in="SourceAlpha" type="matrix" values="0 0 0 0 0 0 0 0 0 0 0 0 0 0 0 0 0 0 127 0" result="hardAlpha"/>
<feOffset dy="1"/>
<feGaussianBlur stdDeviation="0.5"/>
<feComposite in2="hardAlpha" operator="out"/>
<feColorMatrix type="matrix" values="0 0 0 0 0 0 0 0 0 0 0 0 0 0 0 0 0 0 0.25 0"/>
<feBlend mode="normal" in2="BackgroundImageFix" result="effect1_dropShadow_28_1166"/>
<feBlend mode="normal" in="SourceGraphic" in2="effect1_dropShadow_28_1166" result="shape"/>
</filter>
</defs>
</svg>
