<svg width="17" height="19" viewBox="0 0 17 19" fill="none" xmlns="http://www.w3.org/2000/svg">
<g filter="url(#filter0_d_28_1161)">
<path d="M8.5 0C12.6421 0 16 3.35786 16 7.5C16 9.83341 14.9344 11.9179 13.2632 13.2934L10.8617 15.695C9.55071 17.006 7.42522 17.006 6.11425 15.695L3.57999 13.1607C1.9993 11.7857 1 9.75958 1 7.5C1 3.35786 4.35786 0 8.5 0Z" fill="white"/>
</g>
<path d="M15 7.5C15 3.91015 12.0899 1 8.5 1C4.91015 1 2 3.91015 2 7.5C2 11.0899 4.91015 14 8.5 14C12.0899 14 15 11.0899 15 7.5Z" fill="#598017"/>
<path d="M8.5 4C6.568 4 5 5.568 5 7.5C5 9.432 6.568 11 8.5 11C10.432 11 12 9.432 12 7.5C12 5.568 10.432 4 8.5 4ZM6.2635 9.173C5.91 8.7075 5.7 8.13 5.7 7.5C5.7 6.87 5.91 6.2925 6.2635 5.827C6.771 6.2085 7.1 6.8175 7.1 7.5C7.1 8.1825 6.771 8.7915 6.2635 9.173ZM8.5 10.3C7.8385 10.3 7.2295 10.069 6.75 9.684C7.3905 9.1695 7.8 8.3855 7.8 7.5C7.8 6.6145 7.3905 5.8305 6.75 5.316C7.2295 4.931 7.8385 4.7 8.5 4.7C9.1615 4.7 9.7705 4.931 10.25 5.316C9.6095 5.8305 9.2 6.6145 9.2 7.5C9.2 8.3855 9.6095 9.1695 10.25 9.684C9.7705 10.069 9.1615 10.3 8.5 10.3ZM10.7365 9.173C10.229 8.7915 9.9 8.1825 9.9 7.5C9.9 6.8175 10.229 6.2085 10.7365 5.827C11.09 6.2925 11.3 6.87 11.3 7.5C11.3 8.13 11.09 8.7075 10.7365 9.173Z" fill="white"/>
<defs>
<filter id="filter0_d_28_1161" x="0" y="0" width="17" height="18.6777" filterUnits="userSpaceOnUse" color-interpolation-filters="sRGB">
<feFlood flood-opacity="0" result="BackgroundImageFix"/>
<feColorMatrix in="SourceAlpha" type="matrix" values="0 0 0 0 0 0 0 0 0 0 0 0 0 0 0 0 0 0 127 0" result="hardAlpha"/>
<feOffset dy="1"/>
<feGaussianBlur stdDeviation="0.5"/>
<feComposite in2="hardAlpha" operator="out"/>
<feColorMatrix type="matrix" values="0 0 0 0 0 0 0 0 0 0 0 0 0 0 0 0 0 0 0.25 0"/>
<feBlend mode="normal" in2="BackgroundImageFix" result="effect1_dropShadow_28_1161"/>
<feBlend mode="normal" in="SourceGraphic" in2="effect1_dropShadow_28_1161" result="shape"/>
</filter>
</defs>
</svg>
