<svg width="15" height="17" viewBox="0 0 15 17" fill="none" xmlns="http://www.w3.org/2000/svg">
<path d="M7.5 0C11.6421 0 15 3.35786 15 7.5C15 9.83341 13.9344 11.9179 12.2632 13.2934L9.86168 15.695C8.55071 17.006 6.42522 17.006 5.11425 15.695L2.57999 13.1607C0.999297 11.7857 0 9.75958 0 7.5C0 3.35786 3.35786 0 7.5 0Z" fill="#A2A2A2"/>
<path d="M14 7.5C14 3.91015 11.0899 1 7.5 1C3.91015 1 1 3.91015 1 7.5C1 11.0899 3.91015 14 7.5 14C11.0899 14 14 11.0899 14 7.5Z" fill="#598017"/>
<path d="M7.5 4C5.568 4 4 5.568 4 7.5C4 9.432 5.568 11 7.5 11C9.432 11 11 9.432 11 7.5C11 5.568 9.432 4 7.5 4ZM5.2635 9.173C4.91 8.7075 4.7 8.13 4.7 7.5C4.7 6.87 4.91 6.2925 5.2635 5.827C5.771 6.2085 6.1 6.8175 6.1 7.5C6.1 8.1825 5.771 8.7915 5.2635 9.173ZM7.5 10.3C6.8385 10.3 6.2295 10.069 5.75 9.684C6.3905 9.1695 6.8 8.3855 6.8 7.5C6.8 6.6145 6.3905 5.8305 5.75 5.316C6.2295 4.931 6.8385 4.7 7.5 4.7C8.1615 4.7 8.7705 4.931 9.25 5.316C8.6095 5.8305 8.2 6.6145 8.2 7.5C8.2 8.3855 8.6095 9.1695 9.25 9.684C8.7705 10.069 8.1615 10.3 7.5 10.3ZM9.7365 9.173C9.229 8.7915 8.9 8.1825 8.9 7.5C8.9 6.8175 9.229 6.2085 9.7365 5.827C10.09 6.2925 10.3 6.87 10.3 7.5C10.3 8.13 10.09 8.7075 9.7365 9.173Z" fill="#292929"/>
</svg>
