<svg width="17" height="19" viewBox="0 0 17 19" fill="none" xmlns="http://www.w3.org/2000/svg">
<g filter="url(#filter0_d_28_1156)">
<path d="M8.5 0C12.6421 0 16 3.35786 16 7.5C16 9.83341 14.9344 11.9179 13.2632 13.2934L10.8617 15.695C9.55071 17.006 7.42522 17.006 6.11425 15.695L3.57999 13.1607C1.9993 11.7857 1 9.75958 1 7.5C1 3.35786 4.35786 0 8.5 0Z" fill="white"/>
</g>
<path d="M15 7.5C15 3.91015 12.0899 1 8.5 1C4.91015 1 2 3.91015 2 7.5C2 11.0899 4.91015 14 8.5 14C12.0899 14 15 11.0899 15 7.5Z" fill="#299091"/>
<path d="M8.5 4L5 5.45455V7.63636C5 9.65455 6.49333 11.5418 8.5 12C10.5067 11.5418 12 9.65455 12 7.63636V5.45455L8.5 4ZM9.47222 8.21455L9.82222 9.62545L8.5 8.88L7.17778 9.62545L7.52778 8.21818L6.36111 7.27636L7.90111 7.15273L8.5 5.82545L9.09889 7.14909L10.6389 7.27273L9.47222 8.21455Z" fill="white"/>
<defs>
<filter id="filter0_d_28_1156" x="0" y="0" width="17" height="18.6777" filterUnits="userSpaceOnUse" color-interpolation-filters="sRGB">
<feFlood flood-opacity="0" result="BackgroundImageFix"/>
<feColorMatrix in="SourceAlpha" type="matrix" values="0 0 0 0 0 0 0 0 0 0 0 0 0 0 0 0 0 0 127 0" result="hardAlpha"/>
<feOffset dy="1"/>
<feGaussianBlur stdDeviation="0.5"/>
<feComposite in2="hardAlpha" operator="out"/>
<feColorMatrix type="matrix" values="0 0 0 0 0 0 0 0 0 0 0 0 0 0 0 0 0 0 0.25 0"/>
<feBlend mode="normal" in2="BackgroundImageFix" result="effect1_dropShadow_28_1156"/>
<feBlend mode="normal" in="SourceGraphic" in2="effect1_dropShadow_28_1156" result="shape"/>
</filter>
</defs>
</svg>
