<svg width="15" height="17" viewBox="0 0 15 17" fill="none" xmlns="http://www.w3.org/2000/svg">
<path d="M7.5 0C11.6421 0 15 3.35786 15 7.5C15 9.83341 13.9344 11.9179 12.2632 13.2934L9.86168 15.695C8.55071 17.006 6.42522 17.006 5.11425 15.695L2.57999 13.1607C0.999297 11.7857 0 9.75958 0 7.5C0 3.35786 3.35786 0 7.5 0Z" fill="white"/>
<path d="M14 7.5C14 3.91015 11.0899 1 7.5 1C3.91015 1 1 3.91015 1 7.5C1 11.0899 3.91015 14 7.5 14C11.0899 14 14 11.0899 14 7.5Z" fill="#299091"/>
<path d="M7.5 4L4 5.45455V7.63636C4 9.65455 5.49333 11.5418 7.5 12C9.50667 11.5418 11 9.65455 11 7.63636V5.45455L7.5 4ZM8.47222 8.21455L8.82222 9.62545L7.5 8.88L6.17778 9.62545L6.52778 8.21818L5.36111 7.27636L6.90111 7.15273L7.5 5.82545L8.09889 7.14909L9.63889 7.27273L8.47222 8.21455Z" fill="white"/>
</svg>
