<svg width="17" height="19" viewBox="0 0 17 19" fill="none" xmlns="http://www.w3.org/2000/svg">
<g filter="url(#filter0_d_28_1151)">
<path d="M8.5 0C12.6421 0 16 3.35786 16 7.5C16 9.83341 14.9344 11.9179 13.2632 13.2934L10.8617 15.695C9.55071 17.006 7.42522 17.006 6.11425 15.695L3.57999 13.1607C1.9993 11.7857 1 9.75958 1 7.5C1 3.35786 4.35786 0 8.5 0Z" fill="white"/>
</g>
<path d="M15 7.5C15 3.91015 12.0899 1 8.5 1C4.91015 1 2 3.91015 2 7.5C2 11.0899 4.91015 14 8.5 14C12.0899 14 15 11.0899 15 7.5Z" fill="#299091"/>
<path d="M11.9409 7.49971V10.1762C11.9409 10.5985 11.5986 10.9409 11.1762 10.9409H5.8233C5.40095 10.9409 5.05859 10.5985 5.05859 10.1762V7.49971C5.05859 7.28858 5.22981 7.11736 5.44095 7.11736C5.49386 7.10574 5.54862 7.10574 5.60153 7.11736L8.49977 8.64677L11.4057 7.11736C11.4561 7.10681 11.5081 7.10681 11.5586 7.11736C11.7697 7.11736 11.9409 7.28858 11.9409 7.49971ZM5.24977 5.52677L5.31095 5.58795L8.49977 7.11736L11.7039 5.58795H11.7498C11.8871 5.51293 11.9633 5.36045 11.9409 5.2056C11.9409 4.99446 11.7697 4.82324 11.5586 4.82324H5.44095C5.22981 4.82324 5.05859 4.99446 5.05859 5.2056C5.06058 5.33904 5.13338 5.46139 5.24977 5.52677Z" fill="white"/>
<defs>
<filter id="filter0_d_28_1151" x="0" y="0" width="17" height="18.6777" filterUnits="userSpaceOnUse" color-interpolation-filters="sRGB">
<feFlood flood-opacity="0" result="BackgroundImageFix"/>
<feColorMatrix in="SourceAlpha" type="matrix" values="0 0 0 0 0 0 0 0 0 0 0 0 0 0 0 0 0 0 127 0" result="hardAlpha"/>
<feOffset dy="1"/>
<feGaussianBlur stdDeviation="0.5"/>
<feComposite in2="hardAlpha" operator="out"/>
<feColorMatrix type="matrix" values="0 0 0 0 0 0 0 0 0 0 0 0 0 0 0 0 0 0 0.25 0"/>
<feBlend mode="normal" in2="BackgroundImageFix" result="effect1_dropShadow_28_1151"/>
<feBlend mode="normal" in="SourceGraphic" in2="effect1_dropShadow_28_1151" result="shape"/>
</filter>
</defs>
</svg>
