<svg width="15" height="17" viewBox="0 0 15 17" fill="none" xmlns="http://www.w3.org/2000/svg">
<path d="M7.5 0C11.6421 0 15 3.35786 15 7.5C15 9.83341 13.9344 11.9179 12.2632 13.2934L9.86168 15.695C8.55071 17.006 6.42522 17.006 5.11425 15.695L2.57999 13.1607C0.999297 11.7857 0 9.75958 0 7.5C0 3.35786 3.35786 0 7.5 0Z" fill="white"/>
<path d="M14 7.5C14 3.91015 11.0899 1 7.5 1C3.91015 1 1 3.91015 1 7.5C1 11.0899 3.91015 14 7.5 14C11.0899 14 14 11.0899 14 7.5Z" fill="#299091"/>
<path d="M10.9409 7.49971V10.1762C10.9409 10.5985 10.5986 10.9409 10.1762 10.9409H4.8233C4.40095 10.9409 4.05859 10.5985 4.05859 10.1762V7.49971C4.05859 7.28858 4.22981 7.11736 4.44095 7.11736C4.49386 7.10574 4.54862 7.10574 4.60153 7.11736L7.49977 8.64677L10.4057 7.11736C10.4561 7.10681 10.5081 7.10681 10.5586 7.11736C10.7697 7.11736 10.9409 7.28858 10.9409 7.49971ZM4.24977 5.52677L4.31095 5.58795L7.49977 7.11736L10.7039 5.58795H10.7498C10.8871 5.51293 10.9633 5.36045 10.9409 5.2056C10.9409 4.99446 10.7697 4.82324 10.5586 4.82324H4.44095C4.22981 4.82324 4.05859 4.99446 4.05859 5.2056C4.06058 5.33904 4.13338 5.46139 4.24977 5.52677Z" fill="white"/>
</svg>
