<svg width="15" height="19" viewBox="0 0 15 19" fill="none" xmlns="http://www.w3.org/2000/svg">
<path d="M7.5 2C11.6421 2 15 5.35786 15 9.5C15 11.8334 13.9344 13.9179 12.2632 15.2934L9.86168 17.695C8.55071 19.006 6.42522 19.006 5.11425 17.695L2.57999 15.1607C0.999297 13.7857 0 11.7596 0 9.5C0 5.35786 3.35786 2 7.5 2Z" fill="#A2A2A2"/>
<path d="M14 9.5C14 5.91015 11.0899 3 7.5 3C3.91015 3 1 5.91015 1 9.5C1 13.0899 3.91015 16 7.5 16C11.0899 16 14 13.0899 14 9.5Z" fill="#299091"/>
<path d="M4.82422 6.05859V12.9409H10.1772V6.05859H4.82422ZM5.58892 6.8233H6.35363V9.11742H5.58892V6.8233ZM7.11834 6.8233H7.88304V9.11742H7.11834V6.8233ZM8.64775 6.8233H9.41245V8.35271H8.64775V6.8233ZM9.0301 9.11742C9.24124 9.11742 9.41245 9.28864 9.41245 9.49977C9.41245 9.71091 9.24124 9.88212 9.0301 9.88212C8.81897 9.88212 8.64775 9.71091 8.64775 9.49977C8.64775 9.28864 8.81897 9.11742 9.0301 9.11742ZM5.58892 9.88212H6.35363V12.1762H5.58892V9.88212ZM7.11834 9.88212H7.88304V12.1762H7.11834V9.88212ZM8.64775 10.6468H9.41245V12.1762H8.64775V10.6468Z" fill="#292929"/>
</svg>
