<svg width="17" height="19" viewBox="0 0 17 19" fill="none" xmlns="http://www.w3.org/2000/svg">
<g filter="url(#filter0_d_28_1146)">
<path d="M8.5 0C12.6421 0 16 3.35786 16 7.5C16 9.83341 14.9344 11.9179 13.2632 13.2934L10.8617 15.695C9.55071 17.006 7.42522 17.006 6.11425 15.695L3.57999 13.1607C1.9993 11.7857 1 9.75958 1 7.5C1 3.35786 4.35786 0 8.5 0Z" fill="white"/>
</g>
<path d="M15 7.5C15 3.91015 12.0899 1 8.5 1C4.91015 1 2 3.91015 2 7.5C2 11.0899 4.91015 14 8.5 14C12.0899 14 15 11.0899 15 7.5Z" fill="#299091"/>
<path d="M5.82422 4.05859V10.9409H11.1772V4.05859H5.82422ZM6.58892 4.8233H7.35363V7.11742H6.58892V4.8233ZM8.11834 4.8233H8.88304V7.11742H8.11834V4.8233ZM9.64775 4.8233H10.4125V6.35271H9.64775V4.8233ZM10.0301 7.11742C10.2412 7.11742 10.4125 7.28864 10.4125 7.49977C10.4125 7.71091 10.2412 7.88212 10.0301 7.88212C9.81897 7.88212 9.64775 7.71091 9.64775 7.49977C9.64775 7.28864 9.81897 7.11742 10.0301 7.11742ZM6.58892 7.88212H7.35363V10.1762H6.58892V7.88212ZM8.11834 7.88212H8.88304V10.1762H8.11834V7.88212ZM9.64775 8.64683H10.4125V10.1762H9.64775V8.64683Z" fill="white"/>
<defs>
<filter id="filter0_d_28_1146" x="0" y="0" width="17" height="18.6777" filterUnits="userSpaceOnUse" color-interpolation-filters="sRGB">
<feFlood flood-opacity="0" result="BackgroundImageFix"/>
<feColorMatrix in="SourceAlpha" type="matrix" values="0 0 0 0 0 0 0 0 0 0 0 0 0 0 0 0 0 0 127 0" result="hardAlpha"/>
<feOffset dy="1"/>
<feGaussianBlur stdDeviation="0.5"/>
<feComposite in2="hardAlpha" operator="out"/>
<feColorMatrix type="matrix" values="0 0 0 0 0 0 0 0 0 0 0 0 0 0 0 0 0 0 0.25 0"/>
<feBlend mode="normal" in2="BackgroundImageFix" result="effect1_dropShadow_28_1146"/>
<feBlend mode="normal" in="SourceGraphic" in2="effect1_dropShadow_28_1146" result="shape"/>
</filter>
</defs>
</svg>
