<svg width="15" height="17" viewBox="0 0 15 17" fill="none" xmlns="http://www.w3.org/2000/svg">
<path d="M7.5 0C11.6421 0 15 3.35786 15 7.5C15 9.83341 13.9344 11.9179 12.2632 13.2934L9.86168 15.695C8.55071 17.006 6.42522 17.006 5.11425 15.695L2.57999 13.1607C0.999297 11.7857 0 9.75958 0 7.5C0 3.35786 3.35786 0 7.5 0Z" fill="white"/>
<path d="M14 7.5C14 3.91015 11.0899 1 7.5 1C3.91015 1 1 3.91015 1 7.5C1 11.0899 3.91015 14 7.5 14C11.0899 14 14 11.0899 14 7.5Z" fill="#299091"/>
<path d="M4.82422 4.05859V10.9409H10.1772V4.05859H4.82422ZM5.58892 4.8233H6.35363V7.11742H5.58892V4.8233ZM7.11834 4.8233H7.88304V7.11742H7.11834V4.8233ZM8.64775 4.8233H9.41245V6.35271H8.64775V4.8233ZM9.0301 7.11742C9.24124 7.11742 9.41245 7.28864 9.41245 7.49977C9.41245 7.71091 9.24124 7.88212 9.0301 7.88212C8.81897 7.88212 8.64775 7.71091 8.64775 7.49977C8.64775 7.28864 8.81897 7.11742 9.0301 7.11742ZM5.58892 7.88212H6.35363V10.1762H5.58892V7.88212ZM7.11834 7.88212H7.88304V10.1762H7.11834V7.88212ZM8.64775 8.64683H9.41245V10.1762H8.64775V8.64683Z" fill="white"/>
</svg>
