<svg width="17" height="19" viewBox="0 0 17 19" fill="none" xmlns="http://www.w3.org/2000/svg">
<g filter="url(#filter0_d_28_1248)">
<path d="M8.5 0C12.6421 0 16 3.35786 16 7.5C16 9.83341 14.9344 11.9179 13.2632 13.2934L10.8617 15.695C9.55071 17.006 7.42522 17.006 6.11425 15.695L3.57999 13.1607C1.9993 11.7857 1 9.75958 1 7.5C1 3.35786 4.35786 0 8.5 0Z" fill="white"/>
</g>
<path d="M15 7.5C15 3.91015 12.0899 1 8.5 1C4.91015 1 2 3.91015 2 7.5C2 11.0899 4.91015 14 8.5 14C12.0899 14 15 11.0899 15 7.5Z" fill="#875C1B"/>
<path d="M5.25158 7.53933V8.82777C5.25158 9.16249 5.42377 9.47428 5.69927 9.63476L7.85161 10.8865C8.10989 11.0378 8.41983 11.0378 8.67811 10.8865L10.8304 9.63476C11.1059 9.47428 11.2781 9.16249 11.2781 8.82777V7.53933L8.67811 9.05244C8.41983 9.20375 8.10989 9.20375 7.85161 9.05244L5.25158 7.53933ZM7.85161 3.11004L4.22277 5.21923C3.92574 5.39347 3.92574 5.85198 4.22277 6.02622L7.85161 8.13541C8.10989 8.28672 8.41983 8.28672 8.67811 8.13541L12.1391 6.12251V8.83235C12.1391 9.08454 12.3328 9.29087 12.5695 9.29087C12.8063 9.29087 13 9.08454 13 8.83235V5.89325C13 5.7236 12.9139 5.57229 12.7762 5.48976L8.67811 3.11004C8.41983 2.96332 8.10989 2.96332 7.85161 3.11004Z" fill="white"/>
<defs>
<filter id="filter0_d_28_1248" x="0" y="0" width="17" height="18.6777" filterUnits="userSpaceOnUse" color-interpolation-filters="sRGB">
<feFlood flood-opacity="0" result="BackgroundImageFix"/>
<feColorMatrix in="SourceAlpha" type="matrix" values="0 0 0 0 0 0 0 0 0 0 0 0 0 0 0 0 0 0 127 0" result="hardAlpha"/>
<feOffset dy="1"/>
<feGaussianBlur stdDeviation="0.5"/>
<feComposite in2="hardAlpha" operator="out"/>
<feColorMatrix type="matrix" values="0 0 0 0 0 0 0 0 0 0 0 0 0 0 0 0 0 0 0.25 0"/>
<feBlend mode="normal" in2="BackgroundImageFix" result="effect1_dropShadow_28_1248"/>
<feBlend mode="normal" in="SourceGraphic" in2="effect1_dropShadow_28_1248" result="shape"/>
</filter>
</defs>
</svg>
