<svg width="15" height="17" viewBox="0 0 15 17" fill="none" xmlns="http://www.w3.org/2000/svg">
<path d="M7.5 0C11.6421 0 15 3.35786 15 7.5C15 9.83341 13.9344 11.9179 12.2632 13.2934L9.86168 15.695C8.55071 17.006 6.42522 17.006 5.11425 15.695L2.57999 13.1607C0.999297 11.7857 0 9.75958 0 7.5C0 3.35786 3.35786 0 7.5 0Z" fill="white"/>
<path d="M14 7.5C14 3.91015 11.0899 1 7.5 1C3.91015 1 1 3.91015 1 7.5C1 11.0899 3.91015 14 7.5 14C11.0899 14 14 11.0899 14 7.5Z" fill="#B263AA"/>
<path d="M4.44095 4.82324C4.22981 4.82324 4.05859 4.99446 4.05859 5.2056V9.79383C4.05859 10.005 4.22981 10.1762 4.44095 10.1762C4.65208 10.1762 4.8233 10.005 4.8233 9.79383V9.41148H10.1762V9.79383C10.1762 10.005 10.3475 10.1762 10.5586 10.1762C10.7697 10.1762 10.9409 10.005 10.9409 9.79383V9.02912C10.9409 8.81799 10.7697 8.64677 10.5586 8.64677H4.8233V5.2056C4.8233 4.99446 4.65208 4.82324 4.44095 4.82324ZM5.97036 4.82324C5.54801 4.82324 5.20565 5.1656 5.20565 5.58795C5.20565 6.0103 5.54801 6.35265 5.97036 6.35265C6.39271 6.35265 6.73506 6.0103 6.73506 5.58795C6.73506 5.1656 6.39271 4.82324 5.97036 4.82324ZM7.88212 5.58795C7.45978 5.58795 7.11742 5.93031 7.11742 6.35265V7.11736H5.58801C5.37687 7.11736 5.20565 7.28858 5.20565 7.49971C5.20565 7.71085 5.37687 7.88207 5.58801 7.88207H10.9409V7.11736C10.9409 6.27267 10.2562 5.58795 9.41154 5.58795H7.88212Z" fill="white"/>
</svg>
