<svg width="17" height="19" viewBox="0 0 17 19" fill="none" xmlns="http://www.w3.org/2000/svg">
<g filter="url(#filter0_d_28_1238)">
<path d="M8.5 0C12.6421 0 16 3.35786 16 7.5C16 9.83341 14.9344 11.9179 13.2632 13.2934L10.8617 15.695C9.55071 17.006 7.42522 17.006 6.11425 15.695L3.57999 13.1607C1.9993 11.7857 1 9.75958 1 7.5C1 3.35786 4.35786 0 8.5 0Z" fill="white"/>
</g>
<path d="M15 7.5C15 3.91015 12.0899 1 8.5 1C4.91015 1 2 3.91015 2 7.5C2 11.0899 4.91015 14 8.5 14C12.0899 14 15 11.0899 15 7.5Z" fill="#B263AA"/>
<path d="M5.44095 4.82324C5.22981 4.82324 5.05859 4.99446 5.05859 5.2056V9.79383C5.05859 10.005 5.22981 10.1762 5.44095 10.1762C5.65208 10.1762 5.8233 10.005 5.8233 9.79383V9.41148H11.1762V9.79383C11.1762 10.005 11.3475 10.1762 11.5586 10.1762C11.7697 10.1762 11.9409 10.005 11.9409 9.79383V9.02912C11.9409 8.81799 11.7697 8.64677 11.5586 8.64677H5.8233V5.2056C5.8233 4.99446 5.65208 4.82324 5.44095 4.82324ZM6.97036 4.82324C6.54801 4.82324 6.20565 5.1656 6.20565 5.58795C6.20565 6.0103 6.54801 6.35265 6.97036 6.35265C7.39271 6.35265 7.73506 6.0103 7.73506 5.58795C7.73506 5.1656 7.39271 4.82324 6.97036 4.82324ZM8.88212 5.58795C8.45978 5.58795 8.11742 5.93031 8.11742 6.35265V7.11736H6.58801C6.37687 7.11736 6.20565 7.28858 6.20565 7.49971C6.20565 7.71085 6.37687 7.88207 6.58801 7.88207H11.9409V7.11736C11.9409 6.27267 11.2562 5.58795 10.4115 5.58795H8.88212Z" fill="white"/>
<defs>
<filter id="filter0_d_28_1238" x="0" y="0" width="17" height="18.6777" filterUnits="userSpaceOnUse" color-interpolation-filters="sRGB">
<feFlood flood-opacity="0" result="BackgroundImageFix"/>
<feColorMatrix in="SourceAlpha" type="matrix" values="0 0 0 0 0 0 0 0 0 0 0 0 0 0 0 0 0 0 127 0" result="hardAlpha"/>
<feOffset dy="1"/>
<feGaussianBlur stdDeviation="0.5"/>
<feComposite in2="hardAlpha" operator="out"/>
<feColorMatrix type="matrix" values="0 0 0 0 0 0 0 0 0 0 0 0 0 0 0 0 0 0 0.25 0"/>
<feBlend mode="normal" in2="BackgroundImageFix" result="effect1_dropShadow_28_1238"/>
<feBlend mode="normal" in="SourceGraphic" in2="effect1_dropShadow_28_1238" result="shape"/>
</filter>
</defs>
</svg>
