<svg width="15" height="17" viewBox="0 0 15 17" fill="none" xmlns="http://www.w3.org/2000/svg">
<path d="M7.5 0C11.6421 0 15 3.35786 15 7.5C15 9.83341 13.9344 11.9179 12.2632 13.2934L9.86168 15.695C8.55071 17.006 6.42522 17.006 5.11425 15.695L2.57999 13.1607C0.999297 11.7857 0 9.75958 0 7.5C0 3.35786 3.35786 0 7.5 0Z" fill="#A2A2A2"/>
<path d="M14 7.5C14 3.91015 11.0899 1 7.5 1C3.91015 1 1 3.91015 1 7.5C1 11.0899 3.91015 14 7.5 14C11.0899 14 14 11.0899 14 7.5Z" fill="#597FA6"/>
<path d="M10.6348 6.35271H9.78594L9.56417 5.02977C9.47486 4.61706 9.16179 4.28915 8.75358 4.18095C8.5543 4.10975 8.34554 4.06853 8.13417 4.05859H6.86476C6.65669 4.06433 6.4506 4.10042 6.253 4.16565C5.83768 4.27386 5.52018 4.60911 5.43476 5.02977L5.213 6.35271H4.31829C4.16206 6.35692 4.03887 6.48692 4.04307 6.64315C4.04384 6.67182 4.04896 6.70027 4.05829 6.72742L4.98359 10.3215C5.08713 10.6813 5.41228 10.9322 5.78653 10.9409H9.21241C9.58949 10.9354 9.91861 10.6839 10.023 10.3215L10.9406 6.72742C10.9928 6.58013 10.9157 6.4184 10.7684 6.36625C10.7256 6.35103 10.6797 6.34644 10.6348 6.35271ZM5.79417 6.35271L6.00064 5.12154C6.04729 4.91598 6.21339 4.75899 6.42123 4.72389C6.5624 4.67869 6.70899 4.65292 6.85711 4.64742H8.13417C8.2823 4.65292 8.42889 4.67869 8.57006 4.72389C8.7779 4.75899 8.944 4.91598 8.99064 5.12154L9.20476 6.35271H5.79417Z" fill="#292929"/>
</svg>
