<svg width="15" height="17" viewBox="0 0 15 17" fill="none" xmlns="http://www.w3.org/2000/svg">
<path d="M7.5 0C11.6421 0 15 3.35786 15 7.5C15 9.83341 13.9344 11.9179 12.2632 13.2934L9.86168 15.695C8.55071 17.006 6.42522 17.006 5.11425 15.695L2.57999 13.1607C0.999297 11.7857 0 9.75958 0 7.5C0 3.35786 3.35786 0 7.5 0Z" fill="white"/>
<path d="M14 7.5C14 3.91015 11.0899 1 7.5 1C3.91015 1 1 3.91015 1 7.5C1 11.0899 3.91015 14 7.5 14C11.0899 14 14 11.0899 14 7.5Z" fill="#598017"/>
<path d="M5.4385 5.12185L4.602 5.54759C4.4865 5.60484 4.35 5.51897 4.35 5.3866V4.53511C4.35 4.40273 4.4865 4.31687 4.602 4.37411L5.435 4.79985C5.5645 4.86783 5.5645 5.05387 5.4385 5.12185ZM9.6 4.53511V5.3866C9.6 5.51897 9.7365 5.60484 9.852 5.54759L10.685 5.12185C10.8145 5.05745 10.8145 4.86783 10.685 4.80343L9.852 4.37769C9.7365 4.31687 9.6 4.40273 9.6 4.53511ZM7.15 4.17734V5.02883C7.15 5.1612 7.2865 5.24707 7.402 5.18982L8.235 4.76408C8.3645 4.69968 8.3645 4.51006 8.235 4.44566L7.402 4.01992C7.2865 3.9591 7.15 4.04496 7.15 4.17734ZM5.05 6.76401C5.533 6.93932 6.3695 7.10747 7.5 7.10747C8.6305 7.10747 9.467 6.93932 9.95 6.76401C9.95 6.69961 8.977 6.39193 7.5 6.39193C6.023 6.39193 5.05 6.69961 5.05 6.76401ZM8.2 9.25409H6.8C6.6075 9.25409 6.45 9.41508 6.45 9.61185V11C5.029 10.8605 4 10.449 4 9.96962V6.7497C4 6.1558 5.568 5.67639 7.5 5.67639C9.432 5.67639 11 6.1558 11 6.7497V9.96962C11 10.449 9.971 10.8569 8.55 10.9964V9.61185C8.55 9.41508 8.3925 9.25409 8.2 9.25409Z" fill="white"/>
</svg>
