<svg width="17" height="19" viewBox="0 0 17 19" fill="none" xmlns="http://www.w3.org/2000/svg">
<g filter="url(#filter0_d_28_1107)">
<path d="M8.5 0C12.6421 0 16 3.35786 16 7.5C16 9.83341 14.9344 11.9179 13.2632 13.2934L10.8617 15.695C9.55071 17.006 7.42522 17.006 6.11425 15.695L3.57999 13.1607C1.9993 11.7857 1 9.75958 1 7.5C1 3.35786 4.35786 0 8.5 0Z" fill="white"/>
</g>
<path d="M15 7.5C15 3.91015 12.0899 1 8.5 1C4.91015 1 2 3.91015 2 7.5C2 11.0899 4.91015 14 8.5 14C12.0899 14 15 11.0899 15 7.5Z" fill="#598017"/>
<path d="M6.4385 5.12185L5.602 5.54759C5.4865 5.60484 5.35 5.51897 5.35 5.3866V4.53511C5.35 4.40273 5.4865 4.31687 5.602 4.37411L6.435 4.79985C6.5645 4.86783 6.5645 5.05387 6.4385 5.12185ZM10.6 4.53511V5.3866C10.6 5.51897 10.7365 5.60484 10.852 5.54759L11.685 5.12185C11.8145 5.05745 11.8145 4.86783 11.685 4.80343L10.852 4.37769C10.7365 4.31687 10.6 4.40273 10.6 4.53511ZM8.15 4.17734V5.02883C8.15 5.1612 8.2865 5.24707 8.402 5.18982L9.235 4.76408C9.3645 4.69968 9.3645 4.51006 9.235 4.44566L8.402 4.01992C8.2865 3.9591 8.15 4.04496 8.15 4.17734ZM6.05 6.76401C6.533 6.93932 7.3695 7.10747 8.5 7.10747C9.6305 7.10747 10.467 6.93932 10.95 6.76401C10.95 6.69961 9.977 6.39193 8.5 6.39193C7.023 6.39193 6.05 6.69961 6.05 6.76401ZM9.2 9.25409H7.8C7.6075 9.25409 7.45 9.41508 7.45 9.61185V11C6.029 10.8605 5 10.449 5 9.96962V6.7497C5 6.1558 6.568 5.67639 8.5 5.67639C10.432 5.67639 12 6.1558 12 6.7497V9.96962C12 10.449 10.971 10.8569 9.55 10.9964V9.61185C9.55 9.41508 9.3925 9.25409 9.2 9.25409Z" fill="white"/>
<defs>
<filter id="filter0_d_28_1107" x="0" y="0" width="17" height="18.6777" filterUnits="userSpaceOnUse" color-interpolation-filters="sRGB">
<feFlood flood-opacity="0" result="BackgroundImageFix"/>
<feColorMatrix in="SourceAlpha" type="matrix" values="0 0 0 0 0 0 0 0 0 0 0 0 0 0 0 0 0 0 127 0" result="hardAlpha"/>
<feOffset dy="1"/>
<feGaussianBlur stdDeviation="0.5"/>
<feComposite in2="hardAlpha" operator="out"/>
<feColorMatrix type="matrix" values="0 0 0 0 0 0 0 0 0 0 0 0 0 0 0 0 0 0 0.25 0"/>
<feBlend mode="normal" in2="BackgroundImageFix" result="effect1_dropShadow_28_1107"/>
<feBlend mode="normal" in="SourceGraphic" in2="effect1_dropShadow_28_1107" result="shape"/>
</filter>
</defs>
</svg>
