<svg width="17" height="19" viewBox="0 0 17 19" fill="none" xmlns="http://www.w3.org/2000/svg">
<g filter="url(#filter0_d_28_1102)">
<path d="M8.5 0C12.6421 0 16 3.35786 16 7.5C16 9.83341 14.9344 11.9179 13.2632 13.2934L10.8617 15.695C9.55071 17.006 7.42522 17.006 6.11425 15.695L3.57999 13.1607C1.9993 11.7857 1 9.75958 1 7.5C1 3.35786 4.35786 0 8.5 0Z" fill="white"/>
</g>
<path d="M15 7.5C15 3.91015 12.0899 1 8.5 1C4.91015 1 2 3.91015 2 7.5C2 11.0899 4.91015 14 8.5 14C12.0899 14 15 11.0899 15 7.5Z" fill="#598017"/>
<path d="M9.79954 8.30492C9.92335 8.24302 10.0472 8.24302 10.171 8.18111C10.3151 8.15498 10.4635 8.16384 10.6035 8.20692C10.7435 8.25001 10.8712 8.32608 10.9757 8.42873L11.1614 8.61445C11.2559 8.6899 11.36 8.75236 11.471 8.80016C11.5031 8.80233 11.5333 8.81608 11.5561 8.83884C11.5789 8.8616 11.5926 8.89185 11.5948 8.92397V9.17159C11.5926 9.20371 11.5789 9.23395 11.5561 9.25672C11.5333 9.27948 11.5031 9.29323 11.471 9.2954C11.2658 9.26626 11.0729 9.18051 10.9138 9.04778L10.6662 8.80016C10.5753 8.71094 10.4531 8.66094 10.3257 8.66094C10.1984 8.66094 10.0761 8.71094 9.98525 8.80016C9.92334 8.80016 9.86144 8.92397 9.79954 8.98587C9.65844 9.13249 9.47385 9.22973 9.27313 9.26319C9.07242 9.29664 8.86627 9.26452 8.68525 9.17159C8.56777 9.10872 8.46285 9.02478 8.37573 8.92397C8.31382 8.86207 8.31382 8.80016 8.25192 8.80016C8.16105 8.71094 8.03879 8.66094 7.91144 8.66094C7.78409 8.66094 7.66183 8.71094 7.57096 8.80016C7.4778 8.84647 7.39389 8.90941 7.32334 8.98587C7.23951 9.0739 7.13867 9.14398 7.02693 9.19187C6.9152 9.23975 6.79491 9.26445 6.67334 9.26445C6.55178 9.26445 6.43149 9.23975 6.31976 9.19187C6.20802 9.14398 6.10718 9.0739 6.02334 8.98587C5.93019 8.93956 5.84627 8.87663 5.77573 8.80016C5.71382 8.73826 5.59001 8.67635 5.52811 8.61445C5.49599 8.61227 5.46574 8.59853 5.44298 8.57577C5.42021 8.553 5.40647 8.52276 5.4043 8.49064V8.24302C5.40647 8.2109 5.42021 8.18065 5.44298 8.15789C5.46574 8.13512 5.49599 8.12138 5.52811 8.11921C5.70162 8.20822 5.8673 8.31177 6.02334 8.42873L6.27096 8.67635C6.36183 8.76558 6.48409 8.81557 6.61144 8.81557C6.73879 8.81557 6.86105 8.76558 6.95192 8.67635C7.07573 8.61445 7.13763 8.49064 7.26144 8.42873V5.51921C7.26878 5.44549 7.24699 5.37183 7.20071 5.31398C7.15443 5.25614 7.08735 5.2187 7.01382 5.20968C6.93991 5.18698 6.86009 5.1936 6.79093 5.22818C6.72177 5.26276 6.66858 5.32264 6.64239 5.3954C6.64239 5.4573 6.58049 5.51921 6.45668 5.51921H6.27096C6.14715 5.51921 6.14715 5.4573 6.14715 5.3954C6.17848 5.24298 6.25382 5.10309 6.36386 4.99305C6.47389 4.88302 6.61378 4.80768 6.7662 4.77635C6.86413 4.75629 6.96514 4.75664 7.06292 4.77739C7.1607 4.79814 7.25315 4.83883 7.33449 4.89693C7.41583 4.95503 7.48431 5.02929 7.53565 5.11506C7.58699 5.20082 7.62009 5.29626 7.63287 5.3954V5.89064H9.3043V5.33349C9.29528 5.25996 9.25784 5.19288 9.2 5.14661C9.14215 5.10033 9.06849 5.07853 8.99477 5.08587C8.93287 5.08587 8.80906 5.14778 8.74715 5.33349C8.74715 5.4573 8.62334 5.51921 8.56144 5.4573H8.37573C8.31382 5.4573 8.31382 5.3954 8.25192 5.33349V5.27159C8.26292 5.16948 8.29423 5.0706 8.34401 4.98078C8.3938 4.89095 8.46104 4.81199 8.5418 4.74854C8.62255 4.68509 8.71518 4.63843 8.81424 4.61132C8.91329 4.5842 9.01677 4.57717 9.11858 4.59064C9.3221 4.62993 9.50632 4.73699 9.64121 4.89437C9.7761 5.05175 9.85373 5.25017 9.86144 5.4573V8.24302L9.79954 8.30492ZM9.24239 7.68587H7.88049V8.18111C8.25192 8.11921 8.37573 8.24302 8.62334 8.55254L8.80906 8.73826C8.86149 8.77756 8.92259 8.8037 8.98723 8.81447C9.05187 8.82524 9.11814 8.82034 9.18049 8.80016C9.19691 8.80016 9.21265 8.79364 9.22426 8.78203C9.23587 8.77042 9.24239 8.75467 9.24239 8.73826V7.68587ZM9.18049 6.50968H7.88049V7.06683H9.18049V6.50968Z" fill="white"/>
<defs>
<filter id="filter0_d_28_1102" x="0" y="0" width="17" height="18.6777" filterUnits="userSpaceOnUse" color-interpolation-filters="sRGB">
<feFlood flood-opacity="0" result="BackgroundImageFix"/>
<feColorMatrix in="SourceAlpha" type="matrix" values="0 0 0 0 0 0 0 0 0 0 0 0 0 0 0 0 0 0 127 0" result="hardAlpha"/>
<feOffset dy="1"/>
<feGaussianBlur stdDeviation="0.5"/>
<feComposite in2="hardAlpha" operator="out"/>
<feColorMatrix type="matrix" values="0 0 0 0 0 0 0 0 0 0 0 0 0 0 0 0 0 0 0.25 0"/>
<feBlend mode="normal" in2="BackgroundImageFix" result="effect1_dropShadow_28_1102"/>
<feBlend mode="normal" in="SourceGraphic" in2="effect1_dropShadow_28_1102" result="shape"/>
</filter>
</defs>
</svg>
