<svg width="15" height="17" viewBox="0 0 15 17" fill="none" xmlns="http://www.w3.org/2000/svg">
<path d="M7.5 0C11.6421 0 15 3.35786 15 7.5C15 9.83341 13.9344 11.9179 12.2632 13.2934L9.86168 15.695C8.55071 17.006 6.42522 17.006 5.11425 15.695L2.57999 13.1607C0.999297 11.7857 0 9.75958 0 7.5C0 3.35786 3.35786 0 7.5 0Z" fill="white"/>
<path d="M14 7.5C14 3.91015 11.0899 1 7.5 1C3.91015 1 1 3.91015 1 7.5C1 11.0899 3.91015 14 7.5 14C11.0899 14 14 11.0899 14 7.5Z" fill="#598017"/>
<path d="M8.79954 8.30492C8.92335 8.24302 9.04715 8.24302 9.17096 8.18111C9.31513 8.15498 9.46346 8.16384 9.6035 8.20692C9.74353 8.25001 9.87118 8.32608 9.97573 8.42873L10.1614 8.61445C10.2559 8.6899 10.36 8.75236 10.471 8.80016C10.5031 8.80233 10.5333 8.81608 10.5561 8.83884C10.5789 8.8616 10.5926 8.89185 10.5948 8.92397V9.17159C10.5926 9.20371 10.5789 9.23395 10.5561 9.25672C10.5333 9.27948 10.5031 9.29323 10.471 9.2954C10.2658 9.26626 10.0729 9.18051 9.91382 9.04778L9.6662 8.80016C9.57534 8.71094 9.45307 8.66094 9.32573 8.66094C9.19838 8.66094 9.07612 8.71094 8.98525 8.80016C8.92334 8.80016 8.86144 8.92397 8.79954 8.98587C8.65844 9.13249 8.47385 9.22973 8.27313 9.26319C8.07242 9.29664 7.86627 9.26452 7.68525 9.17159C7.56777 9.10872 7.46285 9.02478 7.37573 8.92397C7.31382 8.86207 7.31382 8.80016 7.25192 8.80016C7.16105 8.71094 7.03879 8.66094 6.91144 8.66094C6.78409 8.66094 6.66183 8.71094 6.57096 8.80016C6.4778 8.84647 6.39389 8.90941 6.32334 8.98587C6.23951 9.0739 6.13867 9.14398 6.02693 9.19187C5.9152 9.23975 5.79491 9.26445 5.67334 9.26445C5.55178 9.26445 5.43149 9.23975 5.31976 9.19187C5.20802 9.14398 5.10718 9.0739 5.02334 8.98587C4.93019 8.93956 4.84627 8.87663 4.77573 8.80016C4.71382 8.73826 4.59001 8.67635 4.52811 8.61445C4.49599 8.61227 4.46574 8.59853 4.44298 8.57577C4.42021 8.553 4.40647 8.52276 4.4043 8.49064V8.24302C4.40647 8.2109 4.42021 8.18065 4.44298 8.15789C4.46574 8.13512 4.49599 8.12138 4.52811 8.11921C4.70162 8.20822 4.8673 8.31177 5.02334 8.42873L5.27096 8.67635C5.36183 8.76558 5.48409 8.81557 5.61144 8.81557C5.73879 8.81557 5.86105 8.76558 5.95192 8.67635C6.07573 8.61445 6.13763 8.49064 6.26144 8.42873V5.51921C6.26878 5.44549 6.24699 5.37183 6.20071 5.31398C6.15443 5.25614 6.08735 5.2187 6.01382 5.20968C5.93991 5.18698 5.86009 5.1936 5.79093 5.22818C5.72177 5.26276 5.66858 5.32264 5.64239 5.3954C5.64239 5.4573 5.58049 5.51921 5.45668 5.51921H5.27096C5.14715 5.51921 5.14715 5.4573 5.14715 5.3954C5.17848 5.24298 5.25382 5.10309 5.36386 4.99305C5.47389 4.88302 5.61378 4.80768 5.7662 4.77635C5.86413 4.75629 5.96514 4.75664 6.06292 4.77739C6.1607 4.79814 6.25315 4.83883 6.33449 4.89693C6.41583 4.95503 6.48431 5.02929 6.53565 5.11506C6.58699 5.20082 6.62009 5.29626 6.63287 5.3954V5.89064H8.3043V5.33349C8.29528 5.25996 8.25784 5.19288 8.2 5.14661C8.14215 5.10033 8.06849 5.07853 7.99477 5.08587C7.93287 5.08587 7.80906 5.14778 7.74715 5.33349C7.74715 5.4573 7.62334 5.51921 7.56144 5.4573H7.37573C7.31382 5.4573 7.31382 5.3954 7.25192 5.33349V5.27159C7.26292 5.16948 7.29423 5.0706 7.34401 4.98078C7.3938 4.89095 7.46104 4.81199 7.5418 4.74854C7.62255 4.68509 7.71518 4.63843 7.81424 4.61132C7.91329 4.5842 8.01677 4.57717 8.11858 4.59064C8.3221 4.62993 8.50632 4.73699 8.64121 4.89437C8.7761 5.05175 8.85373 5.25017 8.86144 5.4573V8.24302L8.79954 8.30492ZM8.24239 7.68587H6.88049V8.18111C7.25192 8.11921 7.37573 8.24302 7.62334 8.55254L7.80906 8.73826C7.86149 8.77756 7.92259 8.8037 7.98723 8.81447C8.05187 8.82524 8.11814 8.82034 8.18049 8.80016C8.19691 8.80016 8.21265 8.79364 8.22426 8.78203C8.23587 8.77042 8.24239 8.75467 8.24239 8.73826V7.68587ZM8.18049 6.50968H6.88049V7.06683H8.18049V6.50968Z" fill="white"/>
</svg>
