<svg width="17" height="19" viewBox="0 0 17 19" fill="none" xmlns="http://www.w3.org/2000/svg">
<g filter="url(#filter0_d_28_1097)">
<path d="M8.5 0C12.6421 0 16 3.35786 16 7.5C16 9.83341 14.9344 11.9179 13.2632 13.2934L10.8617 15.695C9.55071 17.006 7.42522 17.006 6.11425 15.695L3.57999 13.1607C1.9993 11.7857 1 9.75958 1 7.5C1 3.35786 4.35786 0 8.5 0Z" fill="white"/>
</g>
<path d="M15 7.5C15 3.91015 12.0899 1 8.5 1C4.91015 1 2 3.91015 2 7.5C2 11.0899 4.91015 14 8.5 14C12.0899 14 15 11.0899 15 7.5Z" fill="#299091"/>
<path d="M6.84066 4.96849C6.3761 4.96849 5.99949 4.59187 5.99949 4.12731C5.99949 3.66275 6.3761 3.28613 6.84066 3.28613C7.30522 3.28613 7.68184 3.66275 7.68184 4.12731C7.68184 4.59187 7.30522 4.96849 6.84066 4.96849ZM12.1477 4.12731C12.1477 3.66275 11.7711 3.28613 11.3065 3.28613C10.842 3.28613 10.4654 3.66275 10.4654 4.12731C10.4654 4.59187 10.842 4.96849 11.3065 4.96849C11.7681 4.96849 12.1435 4.59653 12.1477 4.13496V4.12731ZM9.27243 7.06378L7.88831 5.67966C7.83524 5.6217 7.76045 5.58851 7.68184 5.5879H5.99184C5.9208 5.58851 5.85251 5.61581 5.80066 5.66437H5.8236L4.40125 7.06378C4.27056 7.15692 4.24013 7.33839 4.33327 7.46907C4.42641 7.59976 4.60787 7.6302 4.73856 7.53706C4.76487 7.51832 4.78781 7.49538 4.80654 7.46907L6.01478 6.26084L4.88302 9.41143H5.99949V11.3308C5.99528 11.3588 5.99528 11.387 5.99949 11.415C6.02541 11.5733 6.17483 11.6807 6.3332 11.6548C6.45632 11.6346 6.55283 11.5381 6.57301 11.415H6.58831V9.41143H7.11596V11.4226C7.14188 11.581 7.2913 11.6883 7.44967 11.6624C7.57279 11.6422 7.6693 11.5457 7.68949 11.4226C7.69369 11.3947 7.69369 11.3664 7.68949 11.3385V9.41143H8.79066L7.66654 6.26084L8.88243 7.46907C8.93733 7.52895 9.01533 7.56244 9.09654 7.56084C9.25706 7.56084 9.38713 7.43076 9.38713 7.27025C9.38086 7.18797 9.33896 7.11257 9.27243 7.06378ZM10.886 8.64672V11.4226C10.8603 11.5768 10.9646 11.7224 11.1187 11.7481C11.2729 11.7737 11.4186 11.6694 11.4442 11.5153C11.4493 11.4846 11.4493 11.4533 11.4442 11.4226V8.64672H12.706V5.87084C12.706 5.71461 12.5792 5.5879 12.423 5.5879H10.1901C10.0338 5.5879 9.90713 5.71461 9.90713 5.87084V8.64672H10.886Z" fill="white"/>
<defs>
<filter id="filter0_d_28_1097" x="0" y="0" width="17" height="18.6777" filterUnits="userSpaceOnUse" color-interpolation-filters="sRGB">
<feFlood flood-opacity="0" result="BackgroundImageFix"/>
<feColorMatrix in="SourceAlpha" type="matrix" values="0 0 0 0 0 0 0 0 0 0 0 0 0 0 0 0 0 0 127 0" result="hardAlpha"/>
<feOffset dy="1"/>
<feGaussianBlur stdDeviation="0.5"/>
<feComposite in2="hardAlpha" operator="out"/>
<feColorMatrix type="matrix" values="0 0 0 0 0 0 0 0 0 0 0 0 0 0 0 0 0 0 0.25 0"/>
<feBlend mode="normal" in2="BackgroundImageFix" result="effect1_dropShadow_28_1097"/>
<feBlend mode="normal" in="SourceGraphic" in2="effect1_dropShadow_28_1097" result="shape"/>
</filter>
</defs>
</svg>
