<svg width="15" height="17" viewBox="0 0 15 17" fill="none" xmlns="http://www.w3.org/2000/svg">
<path d="M7.5 0C11.6421 0 15 3.35786 15 7.5C15 9.83341 13.9344 11.9179 12.2632 13.2934L9.86168 15.695C8.55071 17.006 6.42522 17.006 5.11425 15.695L2.57999 13.1607C0.999297 11.7857 0 9.75958 0 7.5C0 3.35786 3.35786 0 7.5 0Z" fill="white"/>
<path d="M14 7.5C14 3.91015 11.0899 1 7.5 1C3.91015 1 1 3.91015 1 7.5C1 11.0899 3.91015 14 7.5 14C11.0899 14 14 11.0899 14 7.5Z" fill="#299091"/>
<path d="M5.84066 4.96849C5.3761 4.96849 4.99949 4.59187 4.99949 4.12731C4.99949 3.66275 5.3761 3.28613 5.84066 3.28613C6.30522 3.28613 6.68184 3.66275 6.68184 4.12731C6.68184 4.59187 6.30522 4.96849 5.84066 4.96849ZM11.1477 4.12731C11.1477 3.66275 10.7711 3.28613 10.3065 3.28613C9.84198 3.28613 9.46537 3.66275 9.46537 4.12731C9.46537 4.59187 9.84198 4.96849 10.3065 4.96849C10.7681 4.96849 11.1435 4.59653 11.1477 4.13496V4.12731ZM8.27243 7.06378L6.88831 5.67966C6.83524 5.6217 6.76045 5.58851 6.68184 5.5879H4.99184C4.9208 5.58851 4.85251 5.61581 4.80066 5.66437H4.8236L3.40125 7.06378C3.27056 7.15692 3.24013 7.33839 3.33327 7.46907C3.42641 7.59976 3.60787 7.6302 3.73856 7.53706C3.76487 7.51832 3.78781 7.49538 3.80654 7.46907L5.01478 6.26084L3.88302 9.41143H4.99949V11.3308C4.99528 11.3588 4.99528 11.387 4.99949 11.415C5.02541 11.5733 5.17483 11.6807 5.3332 11.6548C5.45632 11.6346 5.55283 11.5381 5.57301 11.415H5.58831V9.41143H6.11596V11.4226C6.14188 11.581 6.2913 11.6883 6.44967 11.6624C6.57279 11.6422 6.6693 11.5457 6.68949 11.4226C6.69369 11.3947 6.69369 11.3664 6.68949 11.3385V9.41143H7.79066L6.66654 6.26084L7.88243 7.46907C7.93733 7.52895 8.01533 7.56244 8.09654 7.56084C8.25706 7.56084 8.38713 7.43076 8.38713 7.27025C8.38086 7.18797 8.33896 7.11257 8.27243 7.06378ZM9.88596 8.64672V11.4226C9.86034 11.5768 9.96457 11.7224 10.1187 11.7481C10.2729 11.7737 10.4186 11.6694 10.4442 11.5153C10.4493 11.4846 10.4493 11.4533 10.4442 11.4226V8.64672H11.706V5.87084C11.706 5.71461 11.5792 5.5879 11.423 5.5879H9.19007C9.03384 5.5879 8.90713 5.71461 8.90713 5.87084V8.64672H9.88596Z" fill="white"/>
</svg>
