<svg width="15" height="17" viewBox="0 0 15 17" fill="none" xmlns="http://www.w3.org/2000/svg">
<path d="M7.5 0C11.6421 0 15 3.35786 15 7.5C15 9.83341 13.9344 11.9179 12.2632 13.2934L9.86168 15.695C8.55071 17.006 6.42522 17.006 5.11425 15.695L2.57999 13.1607C0.999297 11.7857 0 9.75958 0 7.5C0 3.35786 3.35786 0 7.5 0Z" fill="white"/>
<path d="M14 7.5C14 3.91015 11.0899 1 7.5 1C3.91015 1 1 3.91015 1 7.5C1 11.0899 3.91015 14 7.5 14C11.0899 14 14 11.0899 14 7.5Z" fill="#BA272A"/>
<path d="M7.49887 6.59742C6.5699 6.61623 5.83212 7.38453 5.85093 8.31349C5.852 8.36871 5.8559 8.42376 5.8624 8.47859C5.53082 8.59009 5.21859 8.75266 4.9371 8.96036C4.45427 9.3161 4.35134 9.99592 4.70708 10.4787C4.70983 10.4824 4.71259 10.4861 4.71534 10.4898C5.08966 10.9519 5.75786 11.0455 6.24475 10.7039C6.61273 10.4471 7.05014 10.3084 7.49887 10.3062C7.94515 10.3017 8.38241 10.4323 8.75299 10.6809C9.2125 11.0597 9.89209 10.9942 10.2708 10.5347C10.2747 10.5299 10.2786 10.5252 10.2824 10.5204C10.665 10.0976 10.6325 9.4448 10.2098 9.06222C10.1818 9.03683 10.1524 9.01305 10.1218 8.99095L10.0606 8.96036C9.77027 8.76727 9.46003 8.60576 9.13534 8.47859C9.2453 7.55598 8.58659 6.71893 7.66397 6.60889C7.60914 6.60239 7.55408 6.59856 7.49887 6.59742ZM4.53946 5.67977C4.12567 5.87378 3.93977 6.36051 4.11887 6.78095C4.15152 7.23449 4.54458 7.57632 4.99828 7.54565C5.41206 7.35165 5.59796 6.86491 5.41887 6.44448C5.38622 5.99093 4.99316 5.64911 4.53946 5.67977ZM10.4583 5.67977C10.8721 5.87378 11.058 6.36051 10.8789 6.78095C10.8462 7.23449 10.4532 7.57632 9.99946 7.54565C9.58567 7.35165 9.39977 6.86491 9.57887 6.44448C9.61152 5.99093 10.0046 5.64911 10.4583 5.67977ZM6.17593 4.05859C5.78363 4.21498 5.59238 4.65981 5.74884 5.0521C5.7509 5.05745 5.75312 5.06273 5.75534 5.06801C5.8159 5.52109 6.1864 5.86926 6.6424 5.90154C7.03469 5.74515 7.22594 5.30032 7.06949 4.90803C7.06742 4.90268 7.0652 4.8974 7.06299 4.89212C7.00242 4.43903 6.63192 4.09086 6.17593 4.05859ZM8.82181 4.05859C9.2141 4.21498 9.40536 4.65981 9.2489 5.0521C9.24683 5.05745 9.24462 5.06273 9.2424 5.06801C9.18183 5.52109 8.81133 5.86926 8.35534 5.90154C7.96304 5.74515 7.77179 5.30032 7.92825 4.90803C7.93032 4.90268 7.93253 4.8974 7.93475 4.89212C7.99532 4.43903 8.36582 4.09086 8.82181 4.05859Z" fill="white"/>
</svg>
