<svg width="17" height="19" viewBox="0 0 17 19" fill="none" xmlns="http://www.w3.org/2000/svg">
<g filter="url(#filter0_d_28_1092)">
<path d="M8.5 0C12.6421 0 16 3.35786 16 7.5C16 9.83341 14.9344 11.9179 13.2632 13.2934L10.8617 15.695C9.55071 17.006 7.42522 17.006 6.11425 15.695L3.57999 13.1607C1.9993 11.7857 1 9.75958 1 7.5C1 3.35786 4.35786 0 8.5 0Z" fill="white"/>
</g>
<path d="M15 7.5C15 3.91015 12.0899 1 8.5 1C4.91015 1 2 3.91015 2 7.5C2 11.0899 4.91015 14 8.5 14C12.0899 14 15 11.0899 15 7.5Z" fill="#BA272A"/>
<path d="M8.49887 6.59742C7.5699 6.61623 6.83212 7.38453 6.85093 8.31349C6.852 8.36871 6.8559 8.42376 6.8624 8.47859C6.53082 8.59009 6.21859 8.75266 5.9371 8.96036C5.45427 9.3161 5.35134 9.99592 5.70708 10.4787C5.70983 10.4824 5.71259 10.4861 5.71534 10.4898C6.08966 10.9519 6.75786 11.0455 7.24475 10.7039C7.61273 10.4471 8.05014 10.3084 8.49887 10.3062C8.94515 10.3017 9.38241 10.4323 9.75299 10.6809C10.2125 11.0597 10.8921 10.9942 11.2708 10.5347C11.2747 10.5299 11.2786 10.5252 11.2824 10.5204C11.665 10.0976 11.6325 9.4448 11.2098 9.06222C11.1818 9.03683 11.1524 9.01305 11.1218 8.99095L11.0606 8.96036C10.7703 8.76727 10.46 8.60576 10.1353 8.47859C10.2453 7.55598 9.58659 6.71893 8.66397 6.60889C8.60914 6.60239 8.55408 6.59856 8.49887 6.59742ZM5.53946 5.67977C5.12567 5.87378 4.93977 6.36051 5.11887 6.78095C5.15152 7.23449 5.54458 7.57632 5.99828 7.54565C6.41206 7.35165 6.59796 6.86491 6.41887 6.44448C6.38622 5.99093 5.99316 5.64911 5.53946 5.67977ZM11.4583 5.67977C11.8721 5.87378 12.058 6.36051 11.8789 6.78095C11.8462 7.23449 11.4532 7.57632 10.9995 7.54565C10.5857 7.35165 10.3998 6.86491 10.5789 6.44448C10.6115 5.99093 11.0046 5.64911 11.4583 5.67977ZM7.17593 4.05859C6.78363 4.21498 6.59238 4.65981 6.74884 5.0521C6.7509 5.05745 6.75312 5.06273 6.75534 5.06801C6.8159 5.52109 7.1864 5.86926 7.6424 5.90154C8.03469 5.74515 8.22594 5.30032 8.06949 4.90803C8.06742 4.90268 8.0652 4.8974 8.06299 4.89212C8.00242 4.43903 7.63192 4.09086 7.17593 4.05859ZM9.82181 4.05859C10.2141 4.21498 10.4054 4.65981 10.2489 5.0521C10.2468 5.05745 10.2446 5.06273 10.2424 5.06801C10.1818 5.52109 9.81133 5.86926 9.35534 5.90154C8.96304 5.74515 8.77179 5.30032 8.92825 4.90803C8.93032 4.90268 8.93253 4.8974 8.93475 4.89212C8.99532 4.43903 9.36582 4.09086 9.82181 4.05859Z" fill="white"/>
<defs>
<filter id="filter0_d_28_1092" x="0" y="0" width="17" height="18.6777" filterUnits="userSpaceOnUse" color-interpolation-filters="sRGB">
<feFlood flood-opacity="0" result="BackgroundImageFix"/>
<feColorMatrix in="SourceAlpha" type="matrix" values="0 0 0 0 0 0 0 0 0 0 0 0 0 0 0 0 0 0 127 0" result="hardAlpha"/>
<feOffset dy="1"/>
<feGaussianBlur stdDeviation="0.5"/>
<feComposite in2="hardAlpha" operator="out"/>
<feColorMatrix type="matrix" values="0 0 0 0 0 0 0 0 0 0 0 0 0 0 0 0 0 0 0.25 0"/>
<feBlend mode="normal" in2="BackgroundImageFix" result="effect1_dropShadow_28_1092"/>
<feBlend mode="normal" in="SourceGraphic" in2="effect1_dropShadow_28_1092" result="shape"/>
</filter>
</defs>
</svg>
