<svg width="17" height="19" viewBox="0 0 17 19" fill="none" xmlns="http://www.w3.org/2000/svg">
<g filter="url(#filter0_d_28_1088)">
<path d="M8.5 0C12.6421 0 16 3.35786 16 7.5C16 9.83341 14.9344 11.9179 13.2632 13.2934L10.8617 15.695C9.55071 17.006 7.42522 17.006 6.11425 15.695L3.57999 13.1607C1.9993 11.7857 1 9.75958 1 7.5C1 3.35786 4.35786 0 8.5 0Z" fill="white"/>
</g>
<path d="M15 7.5C15 3.91015 12.0899 1 8.5 1C4.91015 1 2 3.91015 2 7.5C2 11.0899 4.91015 14 8.5 14C12.0899 14 15 11.0899 15 7.5Z" fill="#598017"/>
<path d="M10.1176 5C9.42941 5 8.97059 5.38235 8.74118 5.84118C8.74118 5.84118 8.20588 6.52941 7.82353 6.52941H6.29412C5.91176 6.52941 5.52941 6.91176 5.52941 6.91176L4 8.44118V8.82353H4.38235L5.3 7.90588L5.45294 8.05882C5.45294 8.05882 4.76471 9.35882 4.76471 10.3529C4.76471 10.7353 5.14706 10.7353 5.14706 10.7353H5.52941C5.52941 10.7353 5.68235 10.7353 5.52941 10.5824L5.37647 10.4294C5.37647 10.0471 5.98824 9.35882 6.29412 8.97647C6.29412 8.97647 6.29412 9.58824 6.29412 10.0471C6.29412 10.2765 6.37908 10.7353 6.60849 10.7353H6.99084C6.99084 10.7353 7.14378 10.7353 6.99084 10.5824L6.8379 10.4294C6.68496 10.1235 7.28824 9.20588 7.28824 9.20588H8.66471L9.04706 10.3529C9.2 10.7353 9.42941 10.7353 9.42941 10.7353H10.1941C10.3471 10.7353 10.7294 10.5824 10.3471 10.3529L10.1941 10.2V8.82353C10.9588 8.82353 11.0353 7.82941 11.3412 7.52353L11.8765 7.44706C12.0294 7.44706 12.4882 7.29412 12.4882 6.83529V6.52941L11.5706 5.76471C11.1882 5.30588 10.6529 5 10.1176 5Z" fill="white"/>
<defs>
<filter id="filter0_d_28_1088" x="0" y="0" width="17" height="18.6777" filterUnits="userSpaceOnUse" color-interpolation-filters="sRGB">
<feFlood flood-opacity="0" result="BackgroundImageFix"/>
<feColorMatrix in="SourceAlpha" type="matrix" values="0 0 0 0 0 0 0 0 0 0 0 0 0 0 0 0 0 0 127 0" result="hardAlpha"/>
<feOffset dy="1"/>
<feGaussianBlur stdDeviation="0.5"/>
<feComposite in2="hardAlpha" operator="out"/>
<feColorMatrix type="matrix" values="0 0 0 0 0 0 0 0 0 0 0 0 0 0 0 0 0 0 0.25 0"/>
<feBlend mode="normal" in2="BackgroundImageFix" result="effect1_dropShadow_28_1088"/>
<feBlend mode="normal" in="SourceGraphic" in2="effect1_dropShadow_28_1088" result="shape"/>
</filter>
</defs>
</svg>
