<svg width="15" height="17" viewBox="0 0 15 17" fill="none" xmlns="http://www.w3.org/2000/svg">
<path d="M7.5 0C11.6421 0 15 3.35786 15 7.5C15 9.83341 13.9344 11.9179 12.2632 13.2934L9.86168 15.695C8.55071 17.006 6.42522 17.006 5.11425 15.695L2.57999 13.1607C0.999297 11.7857 0 9.75958 0 7.5C0 3.35786 3.35786 0 7.5 0Z" fill="white"/>
<path d="M14 7.5C14 3.91015 11.0899 1 7.5 1C3.91015 1 1 3.91015 1 7.5C1 11.0899 3.91015 14 7.5 14C11.0899 14 14 11.0899 14 7.5Z" fill="#598017"/>
<path d="M9.11765 5C8.42941 5 7.97059 5.38235 7.74118 5.84118C7.74118 5.84118 7.20588 6.52941 6.82353 6.52941H5.29412C4.91176 6.52941 4.52941 6.91176 4.52941 6.91176L3 8.44118V8.82353H3.38235L4.3 7.90588L4.45294 8.05882C4.45294 8.05882 3.76471 9.35882 3.76471 10.3529C3.76471 10.7353 4.14706 10.7353 4.14706 10.7353H4.52941C4.52941 10.7353 4.68235 10.7353 4.52941 10.5824L4.37647 10.4294C4.37647 10.0471 4.98824 9.35882 5.29412 8.97647C5.29412 8.97647 5.29412 9.58824 5.29412 10.0471C5.29412 10.2765 5.37908 10.7353 5.60849 10.7353H5.99084C5.99084 10.7353 6.14378 10.7353 5.99084 10.5824L5.8379 10.4294C5.68496 10.1235 6.28824 9.20588 6.28824 9.20588H7.66471L8.04706 10.3529C8.2 10.7353 8.42941 10.7353 8.42941 10.7353H9.19412C9.34706 10.7353 9.72941 10.5824 9.34706 10.3529L9.19412 10.2V8.82353C9.95882 8.82353 10.0353 7.82941 10.3412 7.52353L10.8765 7.44706C11.0294 7.44706 11.4882 7.29412 11.4882 6.83529V6.52941L10.5706 5.76471C10.1882 5.30588 9.65294 5 9.11765 5Z" fill="white"/>
</svg>
