<svg width="15" height="15" viewBox="0 0 15 15" fill="none" xmlns="http://www.w3.org/2000/svg">
<g clip-path="url(#clip0_28_1818)">
<path d="M15 7.5C15 3.35786 11.6421 0 7.5 0C3.35786 0 0 3.35786 0 7.5C0 11.6421 3.35786 15 7.5 15C11.6421 15 15 11.6421 15 7.5Z" fill="#A2A2A2"/>
<path d="M14 7.5C14 3.91015 11.0899 1 7.5 1C3.91015 1 1 3.91015 1 7.5C1 11.0899 3.91015 14 7.5 14C11.0899 14 14 11.0899 14 7.5Z" fill="#4898FF"/>
<path d="M8.31818 8.23636V7.90909L12 8.31818V7.09091L8.31818 5.61818V4.22727C8.31818 3.40909 7.90909 3 7.5 3C7.09091 3 6.68182 3.40909 6.68182 4.22727V5.61818L3 7.09091V8.23636L6.68182 7.90909V8.23636V9.13636V10.6091L5.45455 11.1818V12L7.5 11.5909L9.54545 12V11.1818L8.31818 10.5273V9.13636V8.23636Z" fill="#292929"/>
</g>
<defs>
<clipPath id="clip0_28_1818">
<rect width="15" height="15" fill="white"/>
</clipPath>
</defs>
</svg>
