<svg width="15" height="17" viewBox="0 0 15 17" fill="none" xmlns="http://www.w3.org/2000/svg">
<path d="M7.5 0C11.6421 0 15 3.35786 15 7.5C15 9.83341 13.9344 11.9179 12.2632 13.2934L9.86168 15.695C8.55071 17.006 6.42522 17.006 5.11425 15.695L2.57999 13.1607C0.999297 11.7857 0 9.75958 0 7.5C0 3.35786 3.35786 0 7.5 0Z" fill="#A2A2A2"/>
<path d="M14 7.5C14 3.91015 11.0899 1 7.5 1C3.91015 1 1 3.91015 1 7.5C1 11.0899 3.91015 14 7.5 14C11.0899 14 14 11.0899 14 7.5Z" fill="#D97200"/>
<path d="M7.49127 4.05859C7.09944 4.05859 3.67669 4.05859 4.05904 4.44095L7.11787 7.88212V9.79389C7.11787 10.1762 5.2061 10.1762 5.2061 10.9409H9.79434C9.79434 10.1762 7.88257 10.1762 7.88257 9.79389V7.88212L10.9414 4.44095C11.3237 4.05859 7.88303 4.05859 7.49127 4.05859ZM5.2061 4.8233H9.79434L9.02963 5.58801H5.97081L5.2061 4.8233Z" fill="#292929"/>
</svg>
