<svg width="15" height="17" viewBox="0 0 15 17" fill="none" xmlns="http://www.w3.org/2000/svg">
<path d="M7.5 0C11.6421 0 15 3.35786 15 7.5C15 9.83341 13.9344 11.9179 12.2632 13.2934L9.86168 15.695C8.55071 17.006 6.42522 17.006 5.11425 15.695L2.57999 13.1607C0.999297 11.7857 0 9.75958 0 7.5C0 3.35786 3.35786 0 7.5 0Z" fill="#A2A2A2"/>
<path d="M14 7.5C14 3.91015 11.0899 1 7.5 1C3.91015 1 1 3.91015 1 7.5C1 11.0899 3.91015 14 7.5 14C11.0899 14 14 11.0899 14 7.5Z" fill="#299091"/>
<path d="M6.72222 3H8.27778C9.565 3 10.2222 4.076 10.2222 5.4V9.664C9.39778 9.252 8.69389 9 7.5 9C6.30611 9 5.60222 9.252 4.77778 9.664V5.4C4.77778 4.076 5.435 3 6.72222 3ZM5.94444 5.4V6H9.05556V5.4H5.94444ZM6.33333 7V7.6H8.66667V7H6.33333ZM4 11V10.724C5.03444 10.048 7.97833 8.536 11 10.7V11H4Z" fill="#292929"/>
</svg>
