<svg width="15" height="17" viewBox="0 0 15 17" fill="none" xmlns="http://www.w3.org/2000/svg">
<path d="M7.5 0C11.6421 0 15 3.35786 15 7.5C15 9.83341 13.9344 11.9179 12.2632 13.2934L9.86168 15.695C8.55071 17.006 6.42522 17.006 5.11425 15.695L2.57999 13.1607C0.999297 11.7857 0 9.75958 0 7.5C0 3.35786 3.35786 0 7.5 0Z" fill="#A2A2A2"/>
<path d="M14 7.5C14 3.91015 11.0899 1 7.5 1C3.91015 1 1 3.91015 1 7.5C1 11.0899 3.91015 14 7.5 14C11.0899 14 14 11.0899 14 7.5Z" fill="#597FA6"/>
<path d="M5.57609 7.21833C5.5829 7.25485 5.58847 7.28643 5.59528 7.31738C5.66224 7.65278 5.80332 7.96898 6.00818 8.24285C6.03356 8.27628 6.05771 8.30104 6.1029 8.28495C6.11245 8.28276 6.1222 8.28152 6.13199 8.28124C6.29417 8.26045 6.45853 8.26358 6.6198 8.29052C6.72357 8.30543 6.82149 8.3477 6.90352 8.41297C6.98555 8.47825 7.04873 8.56418 7.08656 8.66195C7.12509 8.75349 7.1483 8.85074 7.15528 8.94981C7.1669 9.07934 7.14498 9.20968 7.09164 9.32829C7.0383 9.4469 6.95533 9.54979 6.85071 9.62704C6.6951 9.74073 6.51104 9.80908 6.31894 9.82452C5.95514 9.86966 5.58588 9.81776 5.24861 9.67409C5.04845 9.59671 4.87672 9.45998 4.75647 9.28223C4.69456 9.18443 4.63266 9.08414 4.57571 8.98014C4.43942 8.70526 4.33296 8.41659 4.25813 8.11904C4.2278 8.01009 4.18261 7.90547 4.14299 7.79962C4.13866 7.78785 4.12504 7.78043 4.11637 7.77114C4.10771 7.78414 4.09471 7.79404 4.09471 7.80952C4.08523 7.85714 4.07882 7.90532 4.07552 7.95376C4.07013 8.15884 4.08152 8.36401 4.10956 8.56723C4.15506 8.95215 4.27244 9.32509 4.45561 9.66666C4.68029 10.1009 5.03739 10.4524 5.47518 10.6701C5.62461 10.7467 5.78568 10.7979 5.95185 10.8218C6.15718 10.8493 6.36515 10.851 6.5709 10.8268C6.72805 10.8112 6.87982 10.7611 7.01537 10.68C7.18953 10.5707 7.34416 10.4331 7.47285 10.2727C7.59195 10.1296 7.68044 9.96357 7.73285 9.7849C7.77055 9.64993 7.79358 9.51129 7.80156 9.37138C7.82093 9.13687 7.79486 8.90082 7.7248 8.67619C7.67961 8.53938 7.61523 8.40876 7.5589 8.27566L7.54466 8.24285H7.58366C7.77556 8.24285 7.96685 8.24285 8.15813 8.23604C8.27301 8.23417 8.38318 8.1901 8.46766 8.11224C8.56678 8.02446 8.65454 7.92464 8.7289 7.81509C8.82609 7.67209 8.91461 7.52476 9.00871 7.38176C9.09543 7.23397 9.20255 7.09914 9.3269 6.98124C9.41679 6.88994 9.53811 6.83636 9.66613 6.83143C9.75535 6.83447 9.84427 6.84336 9.93233 6.85804C9.9785 6.86363 10.0227 6.8802 10.0611 6.90637C10.0996 6.93255 10.1312 6.96756 10.1533 7.00847C10.1947 7.07987 10.2295 7.15487 10.2573 7.23257C10.323 7.43845 10.3521 7.65425 10.3434 7.87019C10.344 8.03195 10.3174 8.19267 10.2648 8.34562C10.1647 8.61811 9.97783 8.85017 9.73299 9.00614C9.52181 9.15459 9.26542 9.22466 9.00809 9.20424C8.85655 9.19452 8.71208 9.13661 8.5958 9.03895C8.51053 8.96452 8.43742 8.87721 8.37913 8.78019C8.31454 8.68596 8.27765 8.57551 8.27266 8.46138C8.27131 8.44692 8.26862 8.43262 8.26461 8.41866L8.25347 8.42485C8.24793 8.43296 8.24296 8.44144 8.23861 8.45023C8.19016 8.54654 8.16273 8.65205 8.15813 8.75976C8.14928 8.93006 8.16323 9.10078 8.19961 9.26738C8.23476 9.46615 8.30995 9.6557 8.42061 9.82452C8.52261 9.98112 8.66536 10.107 8.83352 10.1885C8.96305 10.2451 9.10207 10.2768 9.24333 10.282C9.54187 10.3076 9.83938 10.2223 10.079 10.0424C10.2797 9.88527 10.4375 9.68001 10.5378 9.44566C10.6636 9.15861 10.7404 8.85247 10.7649 8.54C10.792 8.27849 10.7868 8.01466 10.7495 7.75443C10.7092 7.45616 10.6139 7.16796 10.4684 6.90447C10.3255 6.64382 10.1135 6.42767 9.85556 6.27985C9.77708 6.23458 9.69039 6.20533 9.60052 6.19381C9.44089 6.17586 9.27976 6.17586 9.12013 6.19381C8.88835 6.2142 8.67125 6.31595 8.50728 6.48104C8.39972 6.58963 8.30652 6.71154 8.22994 6.84381C8.13647 7.00414 8.0498 7.16819 7.96004 7.33038C7.88655 7.47544 7.79159 7.60859 7.67837 7.72533C7.61754 7.78968 7.54039 7.83633 7.45514 7.86032C7.3699 7.8843 7.27974 7.88472 7.19428 7.86152C7.04792 7.81637 6.90614 7.75751 6.77085 7.68571V7.68138C6.81604 7.6529 6.86123 7.62257 6.90766 7.59471C6.98824 7.54645 7.05901 7.48344 7.11628 7.409C7.24196 7.24768 7.34275 7.06844 7.41528 6.87723C7.46966 6.74695 7.49825 6.60736 7.49947 6.46619C7.49757 6.15143 7.37453 5.84949 7.1559 5.62304C7.03231 5.48635 6.86876 5.39212 6.68852 5.35376C6.51393 5.3202 6.33526 5.31331 6.15861 5.33333C5.92851 5.35726 5.70228 5.40966 5.48509 5.48933C5.20164 5.59483 4.94013 5.75181 4.71375 5.95238L5.18856 6.75095L5.22075 6.73485C5.34456 6.67295 5.46837 6.61104 5.59218 6.54914C5.80803 6.44103 6.0369 6.36113 6.27313 6.31143C6.3912 6.28499 6.51387 6.28711 6.63094 6.31762C6.71178 6.34492 6.7859 6.38905 6.84843 6.4471C6.91096 6.50515 6.96048 6.57579 6.99371 6.65438C7.00652 6.67927 7.01321 6.70686 7.01321 6.73485C7.01321 6.76285 7.00652 6.79044 6.99371 6.81533C6.95312 6.90385 6.89451 6.98291 6.82161 7.04747C6.7008 7.14805 6.55401 7.21243 6.39818 7.23319C6.2093 7.26012 6.01754 7.26012 5.82866 7.23319L5.57609 7.21833ZM6.9999 4.44128C6.99123 4.45366 6.97575 4.46728 6.97328 4.48214C6.96558 4.51834 6.96246 4.55536 6.96399 4.59233C6.9784 4.8216 7.04173 5.04514 7.14971 5.2479C7.2624 5.44775 7.41271 5.62391 7.59232 5.76666C7.82256 5.95685 8.10917 6.06567 8.40761 6.07619C8.57778 6.084 8.74826 6.0709 8.91523 6.03719C9.0482 6.01444 9.17936 5.98217 9.30771 5.94062C9.55293 5.85005 9.78264 5.72204 9.98866 5.56114C10.0382 5.52086 10.085 5.47722 10.1286 5.43052C10.1415 5.41909 10.1501 5.40346 10.1527 5.38637C10.1553 5.36928 10.1518 5.35182 10.1428 5.33704C10.1298 5.3129 10.1211 5.2869 10.1088 5.26276C10.0527 5.16386 9.98565 5.07165 9.9088 4.9879C9.83328 4.89876 9.7594 4.80838 9.68718 4.71676C9.67171 4.69695 9.65871 4.69323 9.63952 4.70562C9.58752 4.73966 9.53366 4.77123 9.48475 4.80962C9.34435 4.9238 9.19557 5.02726 9.03966 5.11914C8.76994 5.28269 8.45366 5.35235 8.14018 5.31723C7.99461 5.30174 7.8536 5.25733 7.72542 5.18662C7.50768 5.06218 7.31699 4.89549 7.16456 4.69633C7.11009 4.61833 7.05932 4.53166 6.9999 4.44128ZM8.25532 3.92871C8.25261 3.93409 8.24951 3.93926 8.24604 3.94419C8.05207 4.16044 7.85748 4.37587 7.66228 4.59047C7.6571 4.5953 7.65382 4.60183 7.65302 4.60886C7.65223 4.6159 7.65397 4.62299 7.65794 4.62885C7.70376 4.7198 7.76684 4.80096 7.84366 4.86781C7.9764 4.98327 8.11683 5.08958 8.26399 5.186C8.27018 5.19095 8.28566 5.186 8.29371 5.186C8.38817 5.12594 8.47416 5.05348 8.54937 4.97057C8.67006 4.82833 8.79817 4.69257 8.93318 4.56385V4.55643L8.25532 3.92871Z" fill="#292929"/>
<path d="M5.57528 7.21808L5.82723 7.24099C6.01611 7.26792 6.20787 7.26792 6.39675 7.24099C6.55258 7.22023 6.69937 7.15586 6.82018 7.05527C6.89357 6.98946 6.95221 6.90887 6.99228 6.8188C7.00509 6.79391 7.01178 6.76632 7.01178 6.73832C7.01178 6.71033 7.00509 6.68274 6.99228 6.65785C6.95946 6.57928 6.91039 6.50855 6.8483 6.4503C6.7862 6.39204 6.71249 6.34759 6.63199 6.31985C6.51491 6.28934 6.39224 6.28722 6.27418 6.31366C6.03794 6.36336 5.80908 6.44326 5.59323 6.55137C5.46942 6.60956 5.34561 6.67518 5.2218 6.73708L5.18961 6.75318L4.71294 5.95213C4.93922 5.75113 5.20073 5.59372 5.48428 5.48785C5.70152 5.4086 5.92775 5.35662 6.1578 5.33308C6.33492 5.31334 6.51402 5.32065 6.68894 5.35475C6.86918 5.39312 7.03273 5.48735 7.15632 5.62404C7.37421 5.85036 7.49678 6.15178 7.49866 6.46594C7.49666 6.60728 7.46722 6.74688 7.41199 6.87699C7.33946 7.06819 7.23867 7.24744 7.11299 7.40875C7.05572 7.4832 6.98495 7.5462 6.90437 7.59446C6.85794 7.62232 6.81275 7.65266 6.76756 7.68113V7.68547C6.90253 7.75655 7.04388 7.81479 7.18975 7.85942C7.27522 7.88261 7.36537 7.8822 7.45062 7.85821C7.53587 7.83423 7.61301 7.78758 7.67385 7.72323C7.78706 7.60649 7.88202 7.47334 7.95551 7.32827C8.04528 7.16608 8.13194 7.00204 8.22542 6.8417C8.30199 6.70944 8.3952 6.58752 8.50275 6.47894C8.66672 6.31385 8.88382 6.2121 9.11561 6.1917C9.27523 6.17375 9.43637 6.17375 9.59599 6.1917C9.68586 6.20323 9.77255 6.23247 9.85104 6.27775C10.1089 6.42557 10.321 6.64172 10.4639 6.90237C10.6094 7.16585 10.7047 7.45405 10.7449 7.75232C10.7823 8.01256 10.7875 8.27639 10.7604 8.53789C10.7359 8.85037 10.6591 9.15651 10.5332 9.44356C10.433 9.67791 10.2752 9.88316 10.0745 10.0403C9.83486 10.2202 9.53735 10.3055 9.2388 10.2799C9.09754 10.2747 8.95852 10.243 8.82899 10.1864C8.66083 10.1049 8.51808 9.97902 8.41609 9.82242C8.30543 9.6536 8.23024 9.46405 8.19509 9.26527C8.1587 9.09867 8.14475 8.92795 8.15361 8.75766C8.1582 8.64994 8.18563 8.54444 8.23409 8.44813C8.23844 8.43933 8.2434 8.43085 8.24894 8.42275L8.26009 8.41656C8.26409 8.43052 8.26679 8.44482 8.26813 8.45927C8.27312 8.57341 8.31001 8.68386 8.37461 8.77808C8.4329 8.87511 8.506 8.96242 8.59128 9.03685C8.70756 9.1345 8.85202 9.19242 9.00356 9.20213C9.26089 9.22255 9.51728 9.15249 9.72847 9.00404C9.9733 8.84807 10.1601 8.616 10.2602 8.34351C10.3129 8.19057 10.3395 8.02985 10.3388 7.86808C10.3476 7.65215 10.3185 7.43635 10.2528 7.23047C10.225 7.15277 10.1902 7.07776 10.1488 7.00637C10.1267 6.96546 10.0951 6.93044 10.0566 6.90427C10.0181 6.8781 9.97398 6.86152 9.9278 6.85594C9.84093 6.84204 9.75326 6.83377 9.66532 6.83118C9.53842 6.8351 9.41769 6.88684 9.32732 6.97604C9.20298 7.09394 9.09586 7.22877 9.00913 7.37656C8.91628 7.52266 8.82651 7.66999 8.72932 7.81299C8.65496 7.92253 8.5672 8.02235 8.46809 8.11013C8.38361 8.18799 8.27344 8.23206 8.15856 8.23394C7.96728 8.23827 7.77599 8.23889 7.58409 8.24075H7.54385L7.55809 8.2748C7.61442 8.40789 7.68189 8.53851 7.72399 8.67532C7.79251 8.90005 7.8171 9.13587 7.79642 9.36989C7.78844 9.5098 7.7654 9.64845 7.7277 9.78342C7.67529 9.96208 7.58681 10.1281 7.4677 10.2712C7.33901 10.4316 7.18438 10.5693 7.01023 10.6786C6.87467 10.7596 6.7229 10.8097 6.56575 10.8253C6.36001 10.8495 6.15203 10.8479 5.9467 10.8203C5.78117 10.7962 5.62075 10.745 5.47189 10.6687C5.03521 10.4508 4.67904 10.0998 4.4548 9.66642C4.27033 9.32449 4.15189 8.95089 4.10566 8.56513C4.07761 8.36191 4.06623 8.15673 4.07161 7.95166C4.07602 7.90377 4.08346 7.85622 4.09389 7.80927C4.09389 7.79689 4.10999 7.78699 4.11866 7.77585C4.12732 7.78513 4.14094 7.79256 4.14528 7.80432C4.18489 7.91018 4.23009 8.0148 4.26042 8.12375C4.33558 8.4196 4.44204 8.7066 4.57799 8.97989C4.63247 9.08389 4.69437 9.18418 4.75875 9.28199C4.87982 9.46023 5.05269 9.59701 5.25399 9.67385C5.59125 9.81752 5.96052 9.86941 6.32432 9.82427C6.51642 9.80883 6.70048 9.74048 6.85609 9.6268C6.9607 9.54954 7.04368 9.44666 7.09702 9.32805C7.15036 9.20944 7.17228 9.07909 7.16066 8.94956C7.15368 8.85049 7.13046 8.75324 7.09194 8.6617C7.05411 8.56394 6.99093 8.478 6.9089 8.41273C6.82687 8.34745 6.72895 8.30519 6.62518 8.29027C6.46391 8.26334 6.29955 8.26021 6.13737 8.28099C6.12757 8.28127 6.11783 8.28252 6.10828 8.2847C6.06309 8.3008 6.03894 8.27604 6.01356 8.24261C5.80895 7.96928 5.66789 7.65374 5.60066 7.31899C5.58766 7.28618 5.57961 7.25213 5.57528 7.21808Z" fill="#292929"/>
<path d="M7.00213 4.44141C7.06403 4.53179 7.1117 4.61845 7.17175 4.69769C7.32418 4.89685 7.51486 5.06354 7.73261 5.18798C7.86078 5.2587 8.0018 5.3031 8.14737 5.3186C8.46145 5.35413 8.77846 5.28446 9.0487 5.1205C9.20461 5.02862 9.3534 4.92516 9.4938 4.81098C9.5427 4.7726 9.59656 4.74103 9.64856 4.70698C9.66775 4.6946 9.68075 4.69831 9.69622 4.71812C9.76886 4.80974 9.84273 4.90012 9.91784 4.98926C9.99469 5.07301 10.0618 5.16522 10.1178 5.26412C10.1302 5.28826 10.1388 5.31426 10.1518 5.33841C10.1608 5.35318 10.1643 5.37064 10.1617 5.38773C10.1591 5.40482 10.1506 5.42045 10.1376 5.43188C10.094 5.47858 10.0473 5.52222 9.9977 5.5625C9.79168 5.7234 9.56197 5.85141 9.31675 5.94198C9.18841 5.98353 9.05724 6.0158 8.92427 6.03855C8.7573 6.07226 8.58682 6.08536 8.41665 6.07755C8.11821 6.06703 7.8316 5.95822 7.60137 5.76803C7.42175 5.62527 7.27145 5.44912 7.15875 5.24926C7.05077 5.0465 6.98744 4.82297 6.97303 4.59369C6.9715 4.55672 6.97462 4.5197 6.98232 4.4835C6.97799 4.46679 6.99346 4.45379 7.00213 4.44141Z" fill="#292929"/>
<path d="M8.25534 3.92871L8.93196 4.55519V4.56262C8.79695 4.69133 8.66883 4.82709 8.54815 4.96933C8.47294 5.05224 8.38695 5.1247 8.29248 5.18476C8.28444 5.18909 8.26896 5.19219 8.26277 5.18476C8.11561 5.08834 7.97517 4.98204 7.84244 4.86657C7.76562 4.79972 7.70254 4.71856 7.65672 4.62762C7.65316 4.6218 7.6517 4.61493 7.6526 4.60817C7.65351 4.6014 7.65671 4.59515 7.66167 4.59047C7.85647 4.37504 8.05126 4.1592 8.24605 3.94295C8.24947 3.93842 8.25257 3.93366 8.25534 3.92871Z" fill="#292929"/>
</svg>
