<svg width="15" height="17" viewBox="0 0 15 17" fill="none" xmlns="http://www.w3.org/2000/svg">
<path d="M7.5 0C11.6421 0 15 3.35786 15 7.5C15 9.83341 13.9344 11.9179 12.2632 13.2934L9.86168 15.695C8.55071 17.006 6.42522 17.006 5.11425 15.695L2.57999 13.1607C0.999297 11.7857 0 9.75958 0 7.5C0 3.35786 3.35786 0 7.5 0Z" fill="#A2A2A2"/>
<path d="M14 7.5C14 3.91015 11.0899 1 7.5 1C3.91015 1 1 3.91015 1 7.5C1 11.0899 3.91015 14 7.5 14C11.0899 14 14 11.0899 14 7.5Z" fill="#597FA6"/>
<path d="M7.5 6.34107C8.35944 6.34107 9.05556 5.5935 9.05556 4.67053C9.05556 3.74756 8.35944 3 7.5 3C6.64056 3 5.94444 3.74756 5.94444 4.67053C5.94444 5.5935 6.64056 6.34107 7.5 6.34107ZM7.5 3.83527C7.92778 3.83527 8.27778 4.21114 8.27778 4.67053C8.27778 5.12993 7.92778 5.5058 7.5 5.5058C7.07222 5.5058 6.72222 5.12993 6.72222 4.67053C6.72222 4.21114 7.07222 3.83527 7.5 3.83527ZM7.5 7.40603C6.58222 6.48724 5.35333 5.92343 4 5.92343V10.5174C5.35333 10.5174 6.58222 11.0812 7.5 12C8.41778 11.0854 9.64667 10.5174 11 10.5174V5.92343C9.64667 5.92343 8.41778 6.48724 7.5 7.40603ZM10.2222 9.73643C9.23833 9.87842 8.305 10.2794 7.5 10.9142C6.69889 10.2794 5.76167 9.87425 4.77778 9.73225V6.8297C5.59444 6.9884 6.35278 7.3935 6.97111 8.0116L7.5 8.54617L8.02889 8.01578C8.64722 7.39768 9.40556 6.99258 10.2222 6.83387V9.73643Z" fill="#292929"/>
</svg>
