<svg width="15" height="17" viewBox="0 0 15 17" fill="none" xmlns="http://www.w3.org/2000/svg">
<path d="M7.5 0C11.6421 0 15 3.35786 15 7.5C15 9.83341 13.9344 11.9179 12.2632 13.2934L9.86168 15.695C8.55071 17.006 6.42522 17.006 5.11425 15.695L2.57999 13.1607C0.999297 11.7857 0 9.75958 0 7.5C0 3.35786 3.35786 0 7.5 0Z" fill="#A2A2A2"/>
<path d="M14 7.5C14 3.91015 11.0899 1 7.5 1C3.91015 1 1 3.91015 1 7.5C1 11.0899 3.91015 14 7.5 14C11.0899 14 14 11.0899 14 7.5Z" fill="#597FA6"/>
<path d="M10.825 7.10718C10.923 7.10718 11 7.02932 11 6.93023V6.49141C11 6.43478 10.972 6.37816 10.9265 6.34631L7.6995 4.0637C7.5805 3.97877 7.4195 3.97877 7.297 4.0637L4.0735 6.34631C4.028 6.37816 4 6.43478 4 6.49141V6.93023C4 7.02932 4.077 7.10718 4.175 7.10718H4.7V10.2922H4.35C4.1575 10.2922 4 10.4515 4 10.6461C4 10.8407 4.1575 11 4.35 11H10.65C10.8425 11 11 10.8407 11 10.6461C11 10.4515 10.8425 10.2922 10.65 10.2922H10.3V7.10718H10.825ZM8.9 9.23054C8.9 9.42518 8.7425 9.58443 8.55 9.58443C8.3575 9.58443 8.2 9.42518 8.2 9.23054V8.16886L7.7905 8.78817C7.6505 8.99697 7.346 8.99697 7.2095 8.78817L6.8 8.16886V9.23054C6.8 9.42518 6.6425 9.58443 6.45 9.58443C6.2575 9.58443 6.1 9.42518 6.1 9.23054V7.56724C6.1 7.31244 6.303 7.10718 6.555 7.10718C6.7055 7.10718 6.849 7.18503 6.933 7.31244L7.5 8.16886L8.0635 7.31244C8.151 7.18503 8.291 7.10718 8.445 7.10718C8.697 7.10718 8.9 7.31244 8.9 7.56724V9.23054Z" fill="#292929"/>
</svg>
