<svg width="15" height="17" viewBox="0 0 15 17" fill="none" xmlns="http://www.w3.org/2000/svg">
<path d="M7.5 0C11.6421 0 15 3.35786 15 7.5C15 9.83341 13.9344 11.9179 12.2632 13.2934L9.86168 15.695C8.55071 17.006 6.42522 17.006 5.11425 15.695L2.57999 13.1607C0.999297 11.7857 0 9.75958 0 7.5C0 3.35786 3.35786 0 7.5 0Z" fill="#A2A2A2"/>
<path d="M14 7.5C14 3.91015 11.0899 1 7.5 1C3.91015 1 1 3.91015 1 7.5C1 11.0899 3.91015 14 7.5 14C11.0899 14 14 11.0899 14 7.5Z" fill="#BA272A"/>
<path d="M10.3 5.4H8.9V4.7C8.9 4.315 8.585 4 8.2 4H6.8C6.415 4 6.1 4.315 6.1 4.7V5.4H4.7C4.315 5.4 4 5.715 4 6.1V10.3C4 10.685 4.315 11 4.7 11H10.3C10.685 11 11 10.685 11 10.3V6.1C11 5.715 10.685 5.4 10.3 5.4ZM6.8 4.7H8.2V5.4H6.8V4.7ZM10.3 10.3H4.7V6.1H10.3V10.3Z" fill="#292929"/>
<path d="M7.85 6.8H7.15V7.85H6.1V8.55H7.15V9.6H7.85V8.55H8.9V7.85H7.85V6.8Z" fill="#292929"/>
</svg>
