<svg width="15" height="17" viewBox="0 0 15 17" fill="none" xmlns="http://www.w3.org/2000/svg">
<path d="M7.5 0C11.6421 0 15 3.35786 15 7.5C15 9.83341 13.9344 11.9179 12.2632 13.2934L9.86168 15.695C8.55071 17.006 6.42522 17.006 5.11425 15.695L2.57999 13.1607C0.999297 11.7857 0 9.75958 0 7.5C0 3.35786 3.35786 0 7.5 0Z" fill="#A2A2A2"/>
<path d="M14 7.5C14 3.91015 11.0899 1 7.5 1C3.91015 1 1 3.91015 1 7.5C1 11.0899 3.91015 14 7.5 14C11.0899 14 14 11.0899 14 7.5Z" fill="#597FA6"/>
<path d="M7.5161 3.29395L6.35375 4.82336V5.58806H8.64786V4.82336L7.5161 3.29395ZM6.35375 6.35277L4.82433 7.11747V10.941H10.1773V7.11747L8.64786 6.35277H6.35375ZM11.7067 7.49983V10.941H10.942V7.49983C10.942 7.28869 11.1132 7.11747 11.3243 7.11747C11.5355 7.11747 11.7067 7.28869 11.7067 7.49983ZM4.05963 7.49983V10.941H3.29492V7.49983C3.29492 7.28869 3.46614 7.11747 3.67727 7.11747C3.88841 7.11747 4.05963 7.28869 4.05963 7.49983Z" fill="#292929"/>
</svg>
